<mxfile host="app.diagrams.net" modified="2023-07-23T08:42:16.421Z" agent="Mozilla/5.0 (Windows NT 10.0; Win64; x64) AppleWebKit/537.36 (KHTML, like Gecko) Chrome/114.0.0.0 Safari/537.36" etag="_GhUyHjEKlXwtrOQxjNe" version="21.6.2" type="device">
  <diagram id="tmOsaE6itL4jnuzmlGSz" name="Page-1">
    <mxGraphModel dx="1878" dy="1008" grid="1" gridSize="10" guides="1" tooltips="1" connect="1" arrows="1" fold="1" page="1" pageScale="1" pageWidth="850" pageHeight="1100" math="1" shadow="0">
      <root>
        <mxCell id="0" />
        <mxCell id="1" parent="0" />
        <mxCell id="QVBjA24aKZEz9xPjlTkT-75" value="" style="shape=image;verticalLabelPosition=bottom;labelBackgroundColor=default;verticalAlign=top;aspect=fixed;imageAspect=0;image=data:image/png,iVBORw0KGgoAAAANSUhEUgAAAjQAAAHDCAYAAAAz9IA/AAAACXBIWXMAAEzlAABM5QF1zvCVAAAAGXRFWHRTb2Z0d2FyZQB3d3cuaW5rc2NhcGUub3Jnm+48GgAAIABJREFUeJzt3Xt03Hd55/Hn+c2MLEuKLTlOnHsgoRhYIKYphUK2SUMghARFciJKyi7LWTawW7TspoWOxiEkTlvPSOcU2K3JHs4u25zsnu0hCpLlKHUb2lAuCaU5XJK0JQE2OJDFlySKL/JFmpnfs38gUyexHY/mp3l+39+8X/9wOJzInzkyo3f0aDRqZhKacrl8aRRFnykWixd7b0nC2NjY2jiOHxgZGTnbe0sShoeHHxeRtSLy4ObNmy/x3pOESqVyyMzOK5VKz3hvScLo6OiT9Xp9YMOGDY96b0lCpVJ5SERuGxkZud97SxIqlcqEqm4pFot3eW9JQrlcvkNEtpdKpTHvLUmoVCq3qOqqYrF4k/eWJJTL5RtF5PJSqXSD95ZmRN4DAAAAmkXQAACA4BE0AAAgeAQNAAAIHkEDAACCR9AAAIDgETQAACB4BA0AAAgeQQMAAIJH0AAAgOARNAAAIHgEDQAACB5BAwAAgkfQAACA4BE0AAAgeAQNAAAIHkEDAACCR9AAAIDgETQAACB4BA0AAAgeQQMAAIJH0AAAgOARNAAAIHgEDQAACB5BAwAAgkfQAACA4BE0AAAgeAQNAAAIHkEDAACCR9AAAIDgETQAACB4BA0AAAgeQQMAAIJH0AAAgODppk2bnvMesQj5KIq64jje5z0kCVEURWa2wsz2eG9Jwq5du1bWarVcR0dH7bTTTsvE50hVV4nI82Zm3luSoKq9ZrZfROreW5KgqitE5JCZVb23JEFVe0SkamZz3luSoKrdIlI3s8PeW5KgqstFRM3soPeWJKjqMhEpmNms95Zm5OM4/lXvEY1S1beY2S1xHF/jvSUJZnZBFEV/HsfxW7y3JKFerz8gIhdUq9Xvx3F8vfeeJORyuSdE5B1xHM94b0lCLpf7hpndaGaPe29JQj6fnxCRz9br9W94b0lCFEVfEJH74zj+sveWxTKz6Lzzzruqs7Pz95566qmv1+v1H8Rx/AXvXUmIoujjqtobx/Ht3luSkMvl3i8ib4vj+OPeW5qRv/nmm5/yHtGocrn8ClWdD3H7sYyNjXXGcVzPyuMZHh6uioiY2VxWHlOlUjEze/rmm29+xntLEkZHR2sisiNDn585EdmdocdzUFWfLZVKwT2ejRs3Rm984xuvi6LodjN7jYh8t1ar7RCRPRn6/OxR1Sgrj6dcLs+IyMHQH0/eewAAIHxHQmbdunW3m9lrjrrO3iMi5zpOQ5vgh4IBAIu2cePGaHJycmjdunX/qKp3L3xX5peiKJrw2ob2QtAAABr2ciGz4JH+/v4nWj4ObYmTEwDgpG3cuDFat27d1RdddNHtIrLuZV74d0+LZgEEDQDg5R0dMma27mT+GTML9lVaCA9BAwA4rsWEzILHBgcHf7Bkw4AXIWgAAMeiU1NT11x00UUbzexNjf7DZsa5CS1F0AAAjqZTU1PXmNlGEWk4ZI6IooigQUsRNAAAkX8OmdtEpKnfIK+qj1977bX/lMws4OQQNADQ3hILmSPM7EtJfBygEQQNALSnxEPmCH5+Bh4IGgBoL0dC5lYRuXgJPv4PBwcH/2EJPi5wQgQNALSHpQ6ZI+5ewo8NHBdBAwAZNzU1dYWZVWRpQ0ZEODfBD0EDABm1EDJlEfm1Fv2RPxocHHykRX8W8AIEDQBkjEPIiIiImY238s8DjkbQAEBGLITMJhF5s8efn8vlODfBDUEDAIHzDpkFT/b393/P8c9HmyNoACBQKQkZERFRVV7dBFcEDQAEZiFk/lhEft17yxG8ugneCBoACEQaQ2bB9oGBge96j0B7I2gAIOVSHDIiIqKq4yJi3jvQ3ggaAEiphZD5IxF5i/eWE+HchDQgaAAgZfL5/Omnnnrqp83sQu8tJ+FnAwMDD3uPAAgaAEiJycnJS1T1j5YvX/72KIq855ysu4VzE1KAoAEAZwsh84eqepn3lkbFccy5CalA0ACAk5BDZsHT69ev/7b3CECEoAGAlpucnLxERG5X1d/y3tKke4RzE1KCoAGAFslQyIgI5yakSzA/dQYAoZqcnLxky5Ytf6Oq38hKzIjIjscee+xb3iOAI/gODQAskYWfkdmoqpd7b0maqo7feuutsfcO4AiCBgASluWQOQrnJqQKQQMACVkImdtU9R3eW5aSqu6cn59/yHsHcDSCBgCa1C4hc4SZ3TM0NFT33gEcjaABgEWamJh4exRFt6nqFd5bWon3bkIaETQA0KCFkBmJouga7y0OdtVqtW96jwBejKABgJPU5iFzxATnJqQRQQMAL2NqauptZlZq85AREc5NSC+CBgCO40jIiEjbh8yCZ/v6+r7uPQI4FoIGAF5kcnLyN1R1gxAyL2BmX77ssstq3juAYyFoAGDBkZBRVULmGKIo4tyE1CJoALQ9QuakPLdy5cq/9R4BHA9BA6BtTUxMvDWKopsJmZdnZpOcm5BmBA2AtnMkZHjV0snj3IS0I2gAtA1CZtGen5+f/6r3COBECBoAmTc5OXnRQshcLyLqvSdAk0NDQ/PeI4ATIWgAZNaRkFHV682MkFk8zk1IPYIGQOYQMonaU61W/8Z7BPByCBoAmbF169Y3mtmnCJlETXFuQgi0XC7/wHvEInSJyOkist15R1I6ROQ8Efmx95Ak7Ny584JardZRKBQOrVmz5invPUlQ1bUi8mMzy8qb8l2oqk+b2Zz3kIS8MpfL1XO5XJf3kCTUajWJokiiKPKeIrVa7ek4jmeb+RhmdoaqVkXkuYRmeVttZpGq7vYekpBe+cXX1Z97D2lGXkQ+6D1iEd4kIjdJmNtfIoqi8+M4vkMy8njq9fq4iJxfq9V+KCI3eu9Jgpl9U0SGReR57y0J2WJmN0vgEd3X1/eqnp6eD+/evfs1vb29snz5cu9JiXjmmWdk+fLl0tPT47rDzA48/fTT7xeRpr5Do6pFM/u5qv6vhKa5MrMPq+oKEfms95YkmNmAqv6aiHzKe0sz8iMjIw97j2hUuVzuiqLoYLFYDG77sYyNje0TkWqIn4tjGR4ePiwiYmazWXlMlUolNrPvlUqlZ7y3JGF0dHSuXq//44YNGx713rIYU1NTbxCRW8zsehHRKIqko6NDOjs7vaclIooiKRQKaXg8E5/85CcfbPaDlMvl3SLydIaeD96tqoey8jWoXC6vM7MLSqVS0I+Hn6EBEIwXh4z3nqzjl+khJAQNgNQjZFzsn5mZud97BHCyCBoAqTU5Ofn6KIo+Tci0nqpu/dCHPnTYewdwsggaAKlzJGR4+bUfM+PchKAQNABSY3Jy8vWq+geq+gEz83/NcvuarVarf+U9AmgEQQPA3b333vsv6vV6UVU/ICKEjDNVnR4aGjrkvQNoBEEDwM2RkBGR3xGRnPce/ALnJoSIoAHQcoRMqh3s6ur6S+8RQKMIGgAtMzU19TozGxFCJs2m3/Wudx3wHgE0iqABsOQImXBwbkKoCBoAS4aQCc7B7u7uv/AeASwGQQMgcYRMsLZxbkKoCBoAiZmcnHytqpaEkAkS5yaEjKAB0LQjIaOqhEygVPXwsmXLODchWAQNgEWbmJi4IIqioqp+WAiZoMVxvO2qq67a570DWCyCBkDDjoRMFEWETEZEUcS5CUEjaACctHvvvfeV9Xp9JIqifys8f2TJXEdHx7T3CKAZPCEBeFlHQkZECJkMMrO/4tyE0PHEBOC4CJn2oKrj3huAZvEEBeAlCJm2Ml8oFO7zHgE0iycqAL+0ZcuWV4hISQiZdnL/1Vdf/bz3CKBZPGEBIGTaGL9MD1nBExfQxgiZtlet1Wr3eo8AksATGNCGVDV//vnn3yIiA8LzQDv7ytDQ0Iz3CCAJPJEBbWRiYuL8KIo25PP5c3K53Lnee+BLVTk3ITMIGqANTExMnJ/L5X4viqKPisgy7z1Iher8/PyU9wggKQQNkGFHh4yZETI42gOcm5AlBA2QQdPT0+fV6/XfJ2RwPJybkDUEDZAhR0LGzDgt4URqnJuQNQQNkAGEDBr01aGhoWe8RwBJImiAgB0JGRH5iJl1eu9BMDg3IXMIGiBAU1NT54rIJ4SQQePqZrbFewSQNIIGCAghgwR8bXBwcLf3CCBpBA0QAEIGCeLchEwiaIAUI2SQsDiOY85NyCSCBkihrVu3rqnX6zdFUfSfCBkk6Ovr16/f4T0CWAoEDZAik5OTp4vI76nqx1V1uZl5T0KGmBnnJmQWQQOkwNEhIyLLvfcgk+JcLjfpPQJYKgQN4IiQQauY2Tf7+/t/7r0DWCoEDeCAkEGr8d5NyDqCBmghQgZOTFV5dRMyjaABWmB8fPy0fD7/+4QMPKjqQ9dee+3PvHcAS4mgAZbQkZApFAr/UUS6vPegPfHqJrQDggZYAoQMUsTy+fyE9whgqRE0QIIIGaTQ311zzTU/9R4BLDWCBkjA9PT06mq1+glCBmnDuQntgqABmjA9Pb26VqsNi8hNqrrCew/wImZmX/YeAbQCQQMswtEhIyKEDNLq4fXr1z/lPQJoBYIGaAAhg5BwbkI70XK5/DXvEYuwUkQuFJHveg9JyHIRuUhE/s57SBJ27tz55lqttrxQKOxbs2bN9733JOSSQqGws1AorBGRnPeYZh06dEiWLVsmURR5T0nE3Nyc5PN5yeWC/9SIyC8eTy6Xk3y+uX/nPHz48N/HcXw4oVnNeJWqzplZVn4XznkiUhCR/+s9JCFniEifiPzAe0gz8qo65j2iUWb2elW9UUSC234sZna2iGwK8XNxLPV6/Qsicna9Xn86K49JRC457bTTzsrKF8wdO3ZIb2+vFAoF7ymJ2LVrl6xYsUI6Ozu9pyTi2WefleXLl0t3d/eiP0a9Xv/Rjh07blfVBJctjpn9rojsUtVM/DyPmb1fVU8Rkf/uvSUJcRxfqaoXhf58nS8Wi/d5j2hUuVyeVdX3hbj9WMbGxtbGcTyXlcczPDw8KyISx/HzWXhM27ZtW/boo49G3d3dmfkOQBRF0tnZmZkAyOVy0tnZ2VQApMmePXtk2bJlTT0eVf3iBz/4wVT8/69cLl9tZttLpVIq9jSrUqn8qoisysLzm4hIuVw+y8xOGxkZCfrxZOP7zcASmp+ff5f3BqBRWfluCHCyCBrgZZjZkPcGoEHf6+/v/7H3CKCVCBrgBLZt27ZMRPq9dwCNUFVe3YS2Q9AAJ1CtVq+UX7yqDghGrVbjvZvQdgga4ATiOObchNA8ct111z3uPQJoNYIGOI6Fc9N7vXcADeLchLZE0ADHcfjw4XcL5yYEhvduQrsiaIDjiKKIcxNC89jg4GDQv+0VWCyCBjiGbdu2LTMzzk0ICu/dhHZG0ADHMDc3d5Xw5pMITBRFBA3aFkEDHBvnJgRFVR+/9tpr/8l7B+CFoAFe5M477+wUkWu8dwCNMLMveW8APBE0wIv09fVxbkJw+PkZtDuCBngR3rsJAfrh4ODgP3iPADwRNMBRFs5NV3vvABp0t/cAwBtBAxxl5cqV7xHOTQgM5yaAoAFegF+mhwD9aHBw8BHvEYA3ggZYcOedd3aa2Xu8dwCNMLNx7w1AGhA0wALOTQhRLpfj3AQIQQP8EucmBOgn/f393/MeAaQBQQOIyPT0dJeZ8cv0EBQz49VNwAKCBhCRWq12lYj0eO8AGsG5CfhnBA3wC5ybEJrt/f393/EeAaQFQYO2Nz093SX8Mj0ERlXHRcS8dwBpQdCg7dXr9fcI5yYEhl+mB7wQQYO2x3s3IUA/GxgYeNh7BJAmBA3aGucmBOpu4dwEvABBg7ZWrVavFpFu7x1AI+I45twEvAhBg7bGL9NDgJ5ev379t71HAGlD0KBtLfwyPd67CaG5Rzg3AS9B0KBt1Wq1a4RzEwLDuQk4NoIGbYtXNyFAOx577LFveY8A0oigQVuanp7uUtWrvHcAjVDV8VtvvTX23gGkEUGDtsS5CYHi3AQcB0GDtsS5CaFR1Z3z8/MPee8A0oqgQdvh3IRAfXloaKjuPQJIK4IGbader79XODchMLx3E3BiBA3aDucmBGhXtVr9hvcIIM0IGrSVhfduerf3DqBBE5ybgBMjaNBWqtVqv3BuQmA4NwEvj6BBW1FVzk0IzbN9fX1f9x4BpB1Bg7YxPj7eIyK8ugmhmbjssstq3iOAtCNo0DYKhcJ7RWS59w6gEao67r0BCAFBg7bBq5sQoOdWrlz5t94jgBAQNGgL4+PjParKq5sQFDOb5NwEnByCBm2ho6OjXzg3ITBRFPHqJuAkETRoC5ybEKAD8/PzX/UeAYSCoEHmbd269RQRudJ7B9CIWq32naGhoXnvHUAoCBpknpnx6iYEZ25u7mHvDUBItFKpBPeSQDNbrarrROSvvbck5BQR+U0Ruc97SBJ27NhxZa1WOyWfzz935plnun/LvKur6225XO6sZj7G/v37paenR1Q1qVmuZmdnpbOzU/L5vPeURBw8eFA6Ojqy9Hjier3+XRHZ7r0lIW8ys4Oq+oT3kCSY2WtFpENVH/HekgQze6WInK6q3/be0ox8HMd/4T2iUaq61sxeaWbBbT8WVT3DzN4iIpl4PHEcXyIip5jZjPffr3w+37lixYp+M2vq4+zbt0+6uroyEzQHDhyQrq6uzATAoUOHpLOzUzo6OrynNMXM5mq12jfq9foaM/u+mT3kvSkhp4rIs2a2zXtIElQ1JyLd3s9vCbpUVV8T+uPJl0qlP/Me0ahyuXxpFEXvHBkZCW77sYyNja2N43g4K49neHi4KCJn1Ov13d5/vyYnJz+gqk1/ldu1a5esWLFCcrlcErPczczMSE9Pj3R2dnpPScTevXulu7tburuDfZuuA6r6RVXd1N/fv6tSqUyo6jdGRkbu8h6WhHK5/GYR2e79fJCUSqVyjqquyspzdrlczpvZstA/P9n41zPgOHjvJqTcC0LGewwQMoIGmbV169ZTVPXKZs9NwBKYVdX/ScgAySFokFlxHF8rItm4qSArCBlgiRA0yCwzG8rKD/EieIQMsMQIGmTS1q1bT4mi6F2cm+CMkAFahKBBJsVxPCCcm+CHkAFajKBBVvHqJnggZAAnBA0yZ9u2bStU9Z2cm9BChAzgjKBB5szPzw+YGecmtAIhA6QEQYPMMTPOTVhqhAyQMgQNMmXh3HQF5yYsEUIGSCmCBpnCuQlLhJABUo6gQaZwbkLCCBkgEAQNMmPLli29IvJO7x3IBEIGCAxBg8wws2tVdZn3DgSNkAECRdAgM6IoGuKHgbFIhAwQOIIGmcC5CYtEyAAZQdAgKwZEpMN7BIIxa2afr9VqY0NDQzPeYwA0j6BBVvDqJpwMQgbIKIIGwVs4N13hvQOpRsgAGUfQIHiqOmhmnJtwLIQM0CYIGgSPX6aHYyBkgDZD0CBoC+emd3jvQGoQMkCbImgQNDNbr6qcm1Cfm5v7ckdHx38gZID2FHkPAJoRRRHnpvY2a2ajhw8f/u7u3bu/SMwA7YugQbDuu+++PjO73HsHXMya2Wi1Wj1/cHBwxMxq3oMA+OLkhGDNz88Pcm5qO/yMDIBjImgQLN67qa0QMgBOiKBBkDg3tQ1CBsBJIWgQpGq1ul5476YsI2QANISgQah4dVM2ETIAFoWgQXDuu+++PhH5Le8dSBQhA6ApBA2CU6vVrhPOTVlByABIBEGD4PDeTZkwa2af7+joGL366quf9x4DIHwEDYIyOTl5qqry6qZwETIAlgRBg9CsF/7ehoiQAbCk+MKAoKgq56aw7DezOwgZAEuNoEEwpqenVwuvbgoFIQOgpQgaBKNWq3FuSj9CBoALvjggJJyb0ouQAeCKoEEQFs5Nl3nvwEsQMgBSgaBBEOr1+nXC39c0IWQApApfIBAEfpleahAyAFKJoEHqLZybLvXe0eYIGQCpRtAg9Tg3uSJkAASBLxJIPc5NLggZAEEhaJBq4+PjpxUKBc5NrUPIAAgSQYNUy+fznJtag5ABEDS+UCDVeO+mJUfIAMgE3bRp0x3eIxplZmdFUfQ2M7vHe0sSVLVXRPrN7C7vLUnYuXPnDfV6vTeXy+0844wzJhf7caIoWr5y5coPikiU4LxF2bNnj/T29nrPSMz+/fstn88/MT8//1Acx3Pee5qlqoMi8rCZPe29JSHvVtWfmNkT3kOSoKq/KSL7zOz73lsScrGqdprZg95DkqCqrxWRc8zsK95bmpEXke3eIxqlqpGIzEuA249FVU8zs7pk5PGISHXhPw9LE4+pp6fnrYVCwT1mRERUVXK5nERRKuYsmpnNVavVb8VxfNHhw4f/UkR2eG9KyJyI7JKM/H9IVQ+IyDOSkccjIutE5HnJyONR1QtFpEsy8nhE5HQR6ZPAH4+amfeGhpXL5UujKPpMsVi82HtLEsbGxtbGcfzAyMjI2d5bkjA8PPy4iKwVkQc3b958yWI/zuTk5AOqmop3137iiSfkVa96leRyOe8pi/WC09Lo6OiT9Xp9YMOGDY96D0tCpVJ5SERuGxkZud97SxIqlcqEqm4pFouZ+K5tuVy+Q0S2l0qlMe8tSahUKreo6qpisXiT95YklMvlG0Xk8lKpdIP3lmbwMzRIpYVXN/1L7x0ZwM/IAGgLBA1SqaOjY8jM+Pu5eIQMgLbCFwykEr9Mb9EIGQBtiaBB6mzdunWNiHBuagwhA6CtETRInXq9fr2qBvvTty1GyACAEDRIIX6Z3knZb2Z3qGplcHBwj/cYAPBG0CBVxsfHzygUCot+qXcbIGQA4BgIGqTKwns3cW56KUIGAE6AoEGqcG56CUIGAE4CQYPU4Nz0AoQMADSAoEFqFAqF64VzEyEDAItA0CA1zGxIVb1neCFkAKAJBA1SYeHc9HbvHQ4IGQBIAEGDVCgUCkPSXucmQgYAEkTQIC3a5dVNhAwALAGCBu7a5NxEyADAEiJo4C6fz79PRCLvHUuEkAGAFiBo4C6jv0yPkAGAFiJo4GpiYuLMKIre5r0jQfvM7L8RMgDQWgQNXEVRlJVzEyEDAI4IGrhS1SEz857RDEIGAFKAoIGbhXPTb3jvWCRCBgBShKCBm0DPTYQMAKQQQQM3oZ2barXan+ZyuU8TMgCQPqH92zEyYmJi4hwzC+HcNCMiG81s7sknn/zDgYEBYgYAUoiggYsoiq6XdP/9mxGRjSJy4cDAwG0iEs63kgCgDXFygpe0/jK9GRH5UxH5HN+NAYBwEDRouYmJiXNS+OomQgYAAkbQoOVyudyQman3jgWEDABkAEGDljOzNJybCBkAyBCCBi21cG56q+MEQgYAMoigQUup6vtExOPcRMgAQIYRNGipKIpa/cv0nhORzULIAECmETRomampqXPN7C0t+uOeE5HN1Wr1s0NDQ3tb9GcCAJwQNGgZM2vFuYmQAYA2RNCglZby1U2EDAC0MYIGLTE1NXWuiPz6EnxoQgYAQNCgNZbg3ETIAAB+iaBBqyR1biJkAAAvQdBgySV0biJkAADHRdCgFX5bFn9uImQAAC+LoMGSW+R7NxEyAICTRtBgSS2cm97cwD9CyAAAGkbQYEnFcfx+VT2ZcxMhAwBYNIIGS0pVX+7cRMgAAJpG0GDJRFG0TEQuPs7/TMgAABJD0GDJdHR0rJaXvrqJkAEAJI6gwZIpFAqrj/qvhAwAYMno8PDwld4jGtXd3f2Gzs7Ojz733HPD3luS0NnZeU5XV9fozMzMB7y3JOR/mNk53d3d8upXv3rfgQMHtv70pz+dnJubO+A9bLFWr169de/evf+6Wq1mIsZOPfXUO2dnZzfOzc39xHtLElatWvXZubm5/33gwIHveG9JQm9v76fr9fpD+/fv/2vvLUno7e0dNrNde/fuHffekoTe3t7fUdVTnn/++S94b0lCT0/PVfl8/qI9e/ZUvLc0Qz/2sY+Z9wgAAIBmRN4DAAAAmpVX1eu9RzSqs7PzdV1dXR+amZn5A+8tSVi2bNlZ3d3dt83MzHzEe0sSzOy/ishZIvK4qn7Ke08S+vr6/nzv3r0fjeN4n/eWJKxateqO2dnZ0fn5+ae8tyShr69v09zc3JcOHjz4iPeWJPT29n6yXq///f79+7/mvSUJK1asuDGO42dmZ2e3eG9JwooVK65X1Z69e/fe6b0lCT09PVdEUfSGffv2fdZ7SzPULLyLU7lcvjSKos8Ui8XjvSQ4KGNjY2vjOH5gZGTkbO8tSRgeHn5cRNaKyIObN2++xHtPEiqVyiEzO69UKj3jvSUJo6OjT9br9YENGzY86r0lCZVK5SERuW1kZOR+7y1JqFQqE6q6pVgs3uW9JQnlcvkOEdleKpXGvLckoVKp3KKqq4rF4k3eW5JQLpdvFJHLS6XSDd5bmsHJCQAABI+gAQAAwSNoAABA8AgaAAAQPIIGAAAEj6ABAADBI2gAAEDwCBoAABA8ggYAAASPoAEAAMEjaAAAQPAIGgAAEDyCBgAABI+gAQAAwSNoAABA8AgaAAAQPIIGAAAEj6ABAADBI2gAAEDwCBoAABA8ggYAAASPoAEAAMEjaAAAQPAIGgAAEDyCBgAABI+gAQAAwSNoAABA8AgaAAAQPIIGAAAEj6ABAADBI2gAAEDwCBoAABA8ggYAAASPoAEAAMEjaAAAQPAIGgAAEDyCBgAABI+gAQAAwSNoAABA8AgaAAAQPIIGAAAEj6ABAADBI2gAAEDwCBoAABA8ggYAAASPoAEAAMEjaAAAQPAIGgAAEDwtl8u/6z2iUWb2K6p6nYhUvLck5HQR+c8issF7SBJ27Njx6Xq9viaXyz155pln/on3noR8zsw+paqz3kMScruZfUFV/5/3kCSo6ifM7D4R+YH3loR8REQeEZFvew9JyG+r6oyZfcV7SEKuUtVuM7vHe0gSzOztIvJqVf0z7y3NyIvIW71HNEpV1yz8ZQpu+3GsEJEOCfBzcRzLRUSiKOqR7DymSEQuFpE57yEJWSYibxSRc72HJMHMekTkNSKy0nvZZeYmAAAEfklEQVRLQvpE5EIRUe8hCTlDRLL0fHCuZOg5W1UvEJHVEvjjUTPz3tCwcrl8aRRFnykWixd7b0nC2NjY2jiOHxgZGTnbe0sShoeHHxeRtSLy4ObNmy/x3pOESqVyyMzOK5VKz3hvScLo6OiT9Xp9YMOGDY96b0lCpVJ5SERuGxkZud97SxIqlcqEqm4pFot3eW9JQrlcvkNEtpdKpTHvLUmoVCq3qOqqYrF4k/eWJJTL5RtF5PJSqXSD95Zm8DM0AAAgeAQNAAAIHkEDAACCR9AAAIDgETQAACB4BA0AAAgeQQMAAIJH0AAAgOARNAAAIHgEDQAACB5BAwAAgkfQAACA4BE0AAAgeAQNAAAIHkEDAACCR9AAAIDgETQAACB4BA0AAAgeQQMAAIJH0AAAgOARNAAAIHgEDQAACB5BAwAAgkfQAACA4BE0AAAgeAQNAAAIHkEDAACCR9AAAIDgETQAACB4BA0AAAgeQQMAAIJH0AAAgOARNAAAIHgEDQAACB5BAwAAgkfQAACA4BE0AAAgeAQNAAAIHkEDAACCR9AAAIDgETQAACB4BA0AAAgeQQMAAIJH0AAAgOARNAAAIHgEDQAACB5BAwAAgkfQAACA4BE0AAAgeLpp06brvUc0Koqi15nZvzGzoveWhJwlIreJyEecdyRix44d/yWO47OiKHr8zDPPvMV7TxJU9f/EcfzvVXWf95YkqOrnzWxURH7qvSUhfywid4vII95DkqCqnxCRh83sa95bEnKjqu42synvIQm5TlVPMbM7vYck5AoReb2IfM57SDPyIvLvvEc0Ko7jPlVdLQFuPxZV7RaRLjPLxOOJomhlHMcSRdEZkpHPkZnlVPVfici895aEnKKq681s1ntIQk4XkXeLyJu9hyTkFSLSJSK/4rwjKa81s1eIyGneQ5KgqheKSEEy8vymqueY2SoJ/PGomXlvaFi5XL40iqLPFIvFi723JGFsbGxtHMcPjIyMnO29JQnDw8OPi8haEXlw8+bNl3jvSUKlUjlkZueVSqVnvLckYXR09Ml6vT6wYcOGR723JKFSqTwkIreNjIzc770lCZVKZUJVtxSLxbu8tyShXC7fISLbS6XSmPeWJFQqlVtUdVWxWLzJe0sSyuXyjSJyealUusF7SzP4GRoAABA8ggYAAASPoAEAAMEjaAAAQPAIGgAAEDyCBgAABI+gAQAAwSNoAABA8AgaAAAQPIIGAAAEj6ABAADBI2gAAEDwCBoAABA8ggYAAASPoAEAAMEjaAAAQPAIGgAAEDyCBgAABI+gAQAAwSNoAABA8AgaAAAQPIIGAAAEj6ABAADBI2gAAEDwCBoAABA8ggYAAASPoAEAAMEjaAAAQPAIGgAAEDyCBgAABI+gAQAAwSNoAABA8AgaAAAQPIIGAAAEj6ABAADBI2gAAEDwCBoAABA8ggYAAASPoAEAAMEjaAAAQPAIGgAAEDyCBgAABI+gAQAAwSNoAABA8AgaAAAQPIIGAAAEj6ABAADBI2gAAEDwCBoAABC8/w8P57uFjTsOWAAAAABJRU5ErkJggg==;" vertex="1" parent="1">
          <mxGeometry x="710" y="980" width="564" height="451" as="geometry" />
        </mxCell>
        <mxCell id="QVBjA24aKZEz9xPjlTkT-16" value="" style="shape=image;verticalLabelPosition=bottom;labelBackgroundColor=default;verticalAlign=top;aspect=fixed;imageAspect=0;image=data:image/png,iVBORw0KGgoAAAANSUhEUgAAAjQAAAHDCAYAAAAz9IA/AAAACXBIWXMAAEzlAABM5QF1zvCVAAAAGXRFWHRTb2Z0d2FyZQB3d3cuaW5rc2NhcGUub3Jnm+48GgAAIABJREFUeJzt3XmYXGWZ/vH7qe4sJIEshCVsCigRR0YCKDIKkU3CjhgExxFHBXU0Kswg3Z2Ag4pUpYdFnQyKoiiuqOyKihmQH4ZlGDQwoIAEgkJCgOybne46z++PU00qlU7Sy6l66636fq6Li9Tpqu676KRz8z7nPcfcXbHJ5/NTc7nclW1tbQeHzpKFzs7OyUmS3NXe3r576CxZmDFjxhOSJkuaN2fOnHeEzpOFQqGw3t336ujoeDl0lizMnj37mWKxeNrMmTMfDZ0lC4VC4T5Jl7S3t98ZOksWCoXCTWZ2S1tb2/Whs2Qhn89fLWlhR0dHZ+gsWSgUCheb2YS2trbzQ2fJQj6fP1fSUR0dHe8LnWUocqEDAAAADBWFBgAARI9CAwAAokehAQAA0aPQAACA6FFoAABA9Cg0AAAgehQaAAAQPQoNAACIHoUGAABEj0IDAACiR6EBAADRo9AAAIDoUWgAAED0KDQAACB6FBoAABA9Cg0AAIgehQYAAESPQgMAAKJHoQEAANGj0AAAgOhRaAAAQPQoNAAAIHoUGgAAED0KDQAAiB6FBgAARI9CAwAAokehAQAA0aPQAACA6FFoAABA9Cg0AAAgehQaAAAQPQoNAACIHoUGAABEzy677LKloUMMQmsulxuVJMmq0EGykMvlcu6+g7uvCJ0lC0uWLBnb09PTMnz48J6ddtqpIb5HZjZB0nJ399BZsmBm49x9taRi6CxZMLMdJK139+7QWbJgZmMkdbt7V+gsWTCz0UmSFM3sb6GzZMHMtpNk7r4udJYsmNkIScPcfU3oLEPRmiTJQaFDDJSZHeruFydJclLoLFlw931yudyPkiQ5NHSWLBSLxbsk7dPd3T0/SZLpofNkoaWl5UlJRydJsix0liy0tLTc6+7nuvsTobNkobW19SZJVxWLxXtDZ8lCLpe7RtKdSZLcGDrLUP34xz9+k7tfcdZZZ91iZl8LnScLuVzu02Y2LkmSL4TOkoWWlpazJP1DkiSfDp1lKFpnzZr1XOgQA5XP519rZhtizN6Xzs7OkUmSFBvl/cyYMaNbkty9q1HeU6FQcHd/ftasWS+HzpKF2bNn90ha3EDfny5JLzXQ+1lnZq90dHRE+37MbE9JX5L0/lNPPfWXLS0ty2J+P+UKhcIKM8s1yu+3fD6/TNK62N9Pa+gAAIDGURr/dUg6T9JISXMPPfTQv4RNhWbAScEAgCEzs2Fm9klJCyS1Ky0zRUkXBA2GpkGhAQAMiZmdJukxSXMk7Vj2oe+6+yNhUqHZMHICAAyKmR0i6XJJU8sPS3JJXZIuCRALTYoVGgDAgJjZnmZ2jaQHtWmZefUpkgru/tfaJkMzY4UGANAvpevjXKD0HJkRW3nqi0pXboCaodAAALbKzIZJ+pCkSyXtpHSktDWz3H1t1YMBZSg0AIAtMrOTJV0p6XXaWGRsKy95VNJ3q50LqEShAQBsxszeonRsdET54X689LPu3hC31EBcOCkYAPAqM9vLzK5XesLvEdt6foVfuvudVYgFbBMrNAAAmdl4SW1Kr/C7tRN+++KSEkkXZp0L6C8KDQA0sdKdlmdIukjSuMF+GknfdvfHMgsGDBCFBgCakJmZpPdKykvaewifyiWtk/S5LHIBg0WhAYDmtIukpZI+Kmn8Vp53saQDtvJxkzTb3V/MMBswYBQaAGhCpQKyzRJiZndI+rmkd27hKYuUbusGgmKXEwBgi0oXyDtJ0vwtPGUmF9FDPaDQAABeZWZjK4+VCsusPp7+iKTvVT0U0A8UGgCAJMnMpkl61syO6ePDfd3u4AJ3T6ocC+gXCg0AoLfM3Kz0BOHbzOzobbzkF+4+t/rJgP6h0ABAkzOzkyTdImlk6dB2km40swlbeElR6UX4gLpBoQEAfFibXh24W9KH3X1Z2bHy+zhd4+6P1yQZ0E8UGgDAWZJuK/26W9KZ7n7TFp67WtLna5IKGAAKDQA0OXffoPSqwbcpLTM3b+XpeXd/qTbJgP7jwnoA0GTMbOfKUuLuXZJO3drLJD0v6SvVzAYMFis0ANBEzOwESc+Y2VmDeHm7u6/LOhOQBVZoAKBJlMrMTUpPAP6+mcndf9zPlz8m6a9VCwcMESs0ANAEzOxUpdeZ6d3N1CLpWjPbuT+vd/fnuIge6hmFBgCaw2mShpc93iDp/Zzgi0ZBoQGA5nCONt53aYPS3Uy3BswDZIpzaACgCbh70cw+JCmRdJO737at1wAxodAAQAMysz3dfZOTeN29KOmfwyQCqouREwA0GDM7XdLTZvYvobMAtUKhAYAGUiozP1Z6AvB/mdnHA0cCaoJCAwANoqzMDOs9JOkqM9s9XCqgNig0ANA4DtfGMiNJXZLOcPcXAuUBaoZCAwCN418l/Wfp1xskvdfdfx4wD1Az7HICgAbh7m5mn5FUlDTX3X8ROhNQKxQaAIiUme3n7k+VH3N3l3R+oEhAMIycACBCZjZd0mNmNjN0FqAeUGgAIDKlMvNDpScAf4lSA1BoACAqZnaGpB9p091MF5vZa4MEAuoEhQYA4rK/Nj3/8W+STnf3hWHiAPWBQgMAEXH3L0j6fOlh79bsXwaMBNQFdjkBQGTc/RIzK0p6yN1/FToPUA8oNABQx8zsze7+SOVxd/9iiDxAvWLkBAB1qnQC8P+a2RWhswD1jkIDAHXo1ltvfavSrdmtkv6VUgNsHYUGAOrMvHnz9njggQc+rk1PC/iEmU0OlQmodxQaAKgza9euHe7u5T+f/ybpNHd/MlQmoN5ZPp//U+gQgzBK0s6SFgbOkZXhkvaS9HToIFl48cUX9+np6Rk+bNiw9bvssstzofNkofR/xk+7ezF0lozsa2bPu3tX6CAZeY2kVyStDR0kI7vff//9yW233Ta2paXFzzzzzBcOOOCANaFDDZa772pm3ZKWhs6SkYnunjOzl0IHycg4pX+vLgodZChaJZ0dOsQgTFF687UYs28ml8u9JkmSq9Ug76dYLP5U0mt6enqeknRu6DxZcPffSZohaXnoLBm5xd1nqUFKtKRvSfqGpAdDB8mCmc0+7LDD7pk/f/7o8ePH/+WAAw6I+n2ZWZu7LzKz74XOkgV3/4iZ7SDpqtBZsuDup5nZIZIuCp1lKFrb29sfCh1ioPL5/KhcLreura0tuux96ezsXCWpO8bvRV9mzJjxN0ly9zWN8p4KhULi7n/o6Oh4OXSWLMyePburWCw+PnPmzEdDZ8lCoVBYI+mpWH+/mdlhkh5090SSCoXCCjN79rnnnrs+cLRM5PP5lyQ9H+v3p1KhUJhmZusb5e+gfD5/oLvv09HREfX74RwaAAjIzN4r6f9JutbM+JkMDBJ/eAAgkFKZ+YHS8f+HJH2TUgMMDn9wACAAM3u/Nl5nptf7JL0xTCIgbhQaAAijW5KXPV4v6RR3fyxQHiBq3MsJAAJw95+YmZSOnDZIOtXd54ZNBcSLQgMAgZRKzTBJL7r7f4fOA8SMQgMANWBmR0m61927y4+7+w8CRQIaCufQAECVmdlZkn4t6celFRkAGaPQAEAVlcrM95WuiJ8uSg1QFRQaAKgSMztb6Um/LWWHp0n6uzCJgMZFoQGA6lmidAdTr3WSTnb3+YHyAA2LQgMAVeLuv5b0bkl/08Yyc1fYVEBjYpcTAFSRu//KzKZLWuvuvw2dB2hUFBoAyIiZnSDpt+6+rvy4u/8iUCSgaTByAoAMmNmHJN0u6VdmNiZ0HqDZUGgAYIhKZeZapT9TD5f0CzMbHTYV0FwoNAAwBGb2z9pYZnodJOkNQQIBTYpCAwBD85SktWWP1ym9a/bDgfIATYlCAwBD4O73Kb1Y3mqlxeYkd787bCqg+bDLCQCGyN3vM7MTS7++N3QeoBmxQgMAA2Bmp5vZuMrj7n4vZQYIh0IDAP1kZh+R9FNJd5nZhNB5AGxEoQGAfiiVmW8o/bk5RdJvKDVA/aDQAMA2lLZmf1Ob/sx8vaR9gwQCsBkKDQBs2+8lLS17vFbp1uyHAuUBUIFCAwDb4O6PSjpG0itKy8yJ3GgSqC9s2waAfnD3R8zsWEmjSteeAVBHWKEBgApm9o9mtmvlcXefT5kB6hOFBgDKmNm5kr4n6bdmtlvoPAD6h0IDACWlMvN1pT8bJyu93syksKkA9AeFBgD06tbsa7Tpz8VJkvYIEgjAgFBoACB1t6Tnyh6vknQcW7OBOFBoAECSuz8n6UhJCyWtVFpmHggaCkC/sW0bAErcfWFpa/aO7v5g6DwA+o8VGgBNycw+ZGZ7Vx5396cpM0B8KDQAmo6ZfVTStyTdY2bcjwloABQaAE3FzD6mdGu2SdpT0t1mtk/YVACGikIDoGmY2QclfU1pmem1vaQdwyQCkBUKDYBm8itJfyp7vFLSNLZmA/Gj0ABoGu6+RNJRkv6otMy8ixOAgcbAtm0ATcXdl5S2Zu/q7r8PnQdANlihAdCwzOzjZnZA5XF3X0SZARoLhQZAQzKz85SeAPzffZUaAI2FQgOg4ZjZ+ZKuKj3cSZQaoOFRaAA0FDP7gKQrKw63ShoeIA6AGqHQAGg0t0sq34a9QumNJh8OlAdADVBoADQUd18h6V1KS80KpVuzuc4M0OAoNEA/rFixwrb9LNSLUqmZJmkqZQZoDhQaYBvM7O3z589vCZ0DfTOzzzz99NPbVx5392Xu/miITABqz/L5/D2hQwzCWEn7SmqU60hsJ+nNkh4IHSQLL7744lt6enq2GzZs2Kpddtllfug8Q9HV1dVy1VVXHXT44YePfPvb3/6ApO7QmTLyVkmPS1obOshQ3HnnnXvcfffd+wwfPtzf//73P7vffvs9HzpTRt4oaamkJaGDZOR1Ztbl7n8NHSQje0kaJmlB6CAZ2VXSeG16W5DotJpZZ+gQA+XubzKzcyVFl70v7r67pMti/F70pVgsXiNp92Kx+Hzs7+nKK6+8dNWqVdt1d3cXJf2nma0KnSkL7v4tM7tO0sLQWQbr2muvPe3pp58+QpI2bNhg119//R6HH374N6ZNm/ZY6GxD5e6zzOx+SXeFzpIFd/+EpCVmdmPoLFlw97PMbHtJ3wydJQtJkhxnZm+O/ed1a1tb2y9ChxiofD6/xszeG2P2vnR2dk5OkqSrUd7PjBkz1khSkiTLY35PZvYuSQdK0tixYxN3n9ve3v5y4FiZmD179rpisXjvzJkzoxzJmNlZks6pOPy33/72t7++++67o14VlKRCofARSY/E/OenXD6fP9HdF3Z0dDTE+ykUCgdJmtBA35/d3H2n9vb2qN8P59AAfTCzcZK+0/t45MiRHi4N+nCbylYvRowY0XPkkUfOcvfoywyAweHmlEDfviZpUu+DYcOGBYyCSu6+zsxOVnrNmSkf/OAHn997772fCp0LQDis0AAVSuOMs8qPDR/ORWbrjbuvk3SKpLfvvffea0LnARAWhQYoY2aTJF0tKSk/PmLECEZOAZnZBWY2rfK4u69196h3ZgDIBoUG2NQ3lW5f3OTPBis04ZjZBZL+Q9KtpTETAGyGQgOUlC4FcGJfH+McmjDMrF1pmZHSm0v+pLT7DAA2QaEBJJnZayVdpYpRUy9GTrVnZu+RlK84vEaNc7E5ABmi0KDpmVlO0nWSRqvvPxNJaysbAgO4TdItZY9flnS0uz8SKA+AOkahAaTzJb1zKx9fb8a9KWvN3bslvVdpqXlZ0jHcmwnAlvC/nWhqZra/pEsluaQttZZ1kja7+SGqz927zexMSXu5+9Oh8wCoX6zQoGmZWauk6yWN0JbLjJSet4EqM7OO0jWANuHuGygzALaFFRo0s4skHdKP51FoqszMLpR0maSimbW6+/dDZwIQF1Zo0JTMbIqkWUpHTVvjktZWP1HzMrOLJM0uPWyRdF1phxMA9BuFBk3HzEZK+oHSvzy3dbYvhaaKzOwUSV+sOLxM0pMB4gCIGIUGzehLkvbXpmVmg6QFknoqnmui0FTT7ZKuKXvcu5vpsUB5AESKQoOmYmZvl3Re2aFuSd+TdJCkXZX+Bdtd/hJxDk3VuLtL+helpeYlpdeZ+b+wqQDEiEKDpmFm20v6vtLf9xuU3oRyH3c/W9KblF5Y7ztKL7JXbl0NYzadUqn5hKS3UGYADBaFBs3kCkm9d9Pe190/6e7Plz52hqTVku5UutumfJWGFZqMmNnnzOwTlcfdPXH3v4TIBKAxsG0bTcHM3qn0ejNvdPdnKj42StI0STe7+98kPWdm10n6aOkpnEOTATO7RNK/S3Izy7n7nMCRADQQVmjQLB509w9WlpmSk5WOm35adqx8lYZCM0RlZUZKz0v6qpl9KFwiAI2GQoOm4O7rt/Lh8nFT7/Of08ZzaSg0Q2Bmx2ljmen1kqQHA8QB0KAoNGhqZeOmW0vjpnJfUnryMIVmCNz915LyZYd6dzP9MVAkAA2Ic2jQ7PoaN0mS3P0vZvYdcVLwkLn7TEtvWf5hSUe5++OhMwFoLKzQoNltNm6q8CVJy2sXp3G5e4ekN1NmAFQDKzRoWn3sbtpMaZVmUW2Txc3MPi+p6O5fqPyYu78YIBKAJsAKDZrZFsdN5dy98nYI2AIz+4Kkz0n6vJl9LnQeAM2DQoNmtq1xEwbAzC6VdHHZoc+b2WdC5QHQXCg0aErb2N2EATKzqZJmVRxeLOnXAeIAaEIUGjSrfo2b0D/ufo+kz5YdWqL0rtlPBIoEoMlwUjCaFeOmjLn75enObF2gdGs215kBUDOs0KDpMG6qHne/XOn9sigzAGqKQoNmxLhpiMzsi2b25dLF8jbh7stCZALQ3Bg5oRkxbhqC0m6m3hOA3cz+1d09ZCYAYIUGTYVx09CYWUGb7mY6T5tu1QaAICg0aDaMmwbJzA6VdGHF4Rck/ShAHADYBIUGzYZx0yC5+4OSzpWUlA69KOlYd/9zuFQAkKLQoGkwbho6d/+WpI9KWqR0a/afAkcCAEkUGjQXxk0DZGab/YwolZrJlBkA9YRCg2bCuGkAzOxLkn5oZpvthnT3NQEiAcAWsW0bTaFs3HQz46ZtM7PLJHWUHrqZ/ZO7F0NmAoCtYYUGzYJxUz+Z2eXaWGYk6SxJhUBxAKBfKDRoFoyb+sHMDpT0mYrDf5X09QBxAKDfKDRoeOxu6j93n690Raa7dOivko509wXhUgHAtlFo0AwYNw2Au98o6R8lPSvKDIBIUGjQDBg3bYWZDas85u4/k7Q/ZQZALCg0aGiMm7bOzPKSbjWzEZUfc/euAJEAYFDYto1Gx7hpC6644orPSPpw6eHNZvZuSgyAWLFCg0bHuKmCmdnNN9+847Jlyz5cdvh4SV8OlQkAhopCg4bFuGmL3vDwww9vX3HsOUmdIcIAQBasUChEtxTv7hNL18uYGzpLRraXdISkX4QOkoXFixcf19PTs31ra+vSSZMm3R0qx7x58/a8/fbbDz399NPve+tb37poiJ/u3ZLukNQQI5knn3zypOuvv354sVjMjR49et0555xzz6RJk9aGzjUER7r7H81sSeggg7V27dphCxYsGP/UU0/t1NPT85p169Z1nXTSSffvvPPO60Jny8AUd19nZk+GDpIFd99f0nAzeyR0liy4+96SdjazB0NnGYrWJEnuCB1ioMxssrvv7e7RZe+Lme3q7ocq/QszekmSvEPS9u6+LOTvrwceeOCTLS0tf9t///2/myRJ97ZfsWVmdqq7z1U6vorefvvtN/WEE064Y+7cucdNnz79ql122eXlJElCxxqKKWb2P0mSPB46SH8sWLBgx6eeemqvJUuW7Lls2bK9Vq9evVdXV9fE3o9PnDhx/dlnn/3LiRMnzo38+9JrR0mvuPsvQwfJgpm1SBod49+fWzDVzN4Q+/sxdw+dYcDy+fzUXC53ZVtb28Ghs2Shs7NzcpIkd7W3t+8eOksWZsyY8YSkyZLmzZkz5x0hMpTGTS8pvXfTB4b6+QqFwnp336ujo+PloaerLTMzSSPKx26zZ89+plgsnjZr1qw/untPwHiZKBQK90m6pL29va7OlSptiX+jpDdLOrD0zxRJ48qe5pKs7PHTF1544VMTJky4oa2t7fqaha2ifD5/taSFHR0dDTHWLBQKF5vZhLa2tvNDZ8lCPp8/V9JRHR0d7wudZSjY5YRGxe4mvVpmvizpYDM73t03WWFqhDJTL8xsB0l/r7TA/J2kg0v/jCx7WqLNz10sLzN3SJo+fvz4H1QxKtCQKDRoVE2/u6lUZr4i6VOlQ3eUSs2agLEagpntpY0rLm9Wuuqyd8XT+iovW9uI8V1J57h7T6HAvUCBgaLQoOGU7W66uVl3N5XKzFclzSg7/A5JV0s6O0ioBmBmB0i6VNJJ2vYu0f7sIu0dN10h6bMe4zkAQJ1g2zYaEeOmdLWg8tyhZyVdHCBLw3D3/3P3UyXtpfSu5L9TuhKjsn/3V+/z29z9AsoMMDQUGjSiph83ufszko6WtLx06C+Sjnb358Klahzu/oK7f9XdD5e0p6RPS5qn/pebROnqzDnu3hAnygKhUWjQULiY3kbu/rCkYyXNl/ROd382cKSG5O6L3P0/3f0ISa+R9A1JW/u9l0jqlvQed/92LTICzYBzaNBomnLcVDpnZkwfu5geNrODGGdUl5nlJJ0o6QtKTxReJmlUH091SWslnezu99QuIdD4WKFBo2m6cVPZCcD/z8x2rPw4ZaZ6zCxnZidLeljSbZImSDpP6apY5X93l/SKpKmUGSB7FBo0jGYcN1XsZjpQ0ty+Sg2ytZUis5+kH0iaqk2vL+OS/irp7e7+hxrHBZoChQaNpKnGTaUy81/adGv2gZKuCZOo8ZUVmd+rosi4+1fcvUvpfb9aKl76J0n/4O5/rmlgoIlQaNBImm3ctLuk0yuOLZDUEJdjryelInOGpMeUFpnx2rzI9JquTcdNv1O6MvNCzQIDTYhCg4bQjOMmd39e0jslLS4dek7SMe7+12ChGkxFkfmJ0hXALRUZmdlEpdvle8dNP5f0LndfUcPYQFOi0KBRnKImGjf1cvcnJL1L0v2SDnf3hWETNYaBFpky5eOm70s63d3XVz0wAAoNGkbDj5ss1dcupsfc/R9YmRm6IRSZXtNL/75C0tnu3l29tADKUWgQvdK46Tg18LipdALwHEn3m9nuofM0mgyKTO+46UhJn+dWBkDtUWjQCBp63FRWZj4h6fWS7qbUZCOLIlPmFEmfdPdLsk8KYFu4UjAaQcOOm0pl5hpJ55Ydfr3Sy+ufGCRUAyhd2fc9kj4vaX+l97o6T9LXB1hiyv3S3Rdv+2kAqoEVGkStCcZNOym9H1O5pyV9LECW6GW8IrMJygwQFoUGsWvocZO7v6T0qrPPlA79WemNJp8Plyo+1SwyAOoDhQaxa9hxUy93/4ukYyTNlXQkF2jrv7Ii87goMkBD4xwaRKts3HRzo4ybSud27Orui8qPu/uz2nz0hC0oO0fmC5LeoGzOkQFQx1ihQcwaatxUtpvpYTPbP3SeGPWxIjNKrMgATYFCg5g1zLipVGaulvQvknaVdBelpv/cXTfccMMRosgATYuRE6LUSOOm0njkm5I+XHZ4V6WrNUcHCRWJ3tHS+PHjD1y+fPlhYrQENC1WaBCrRho3jZX0topjT0r6QIAsUagcLXV3d+f23Xffr4sVGaBpUWgQq4YZN7n7cqWXzH+sdOgpSUdVnhiMLZ8jc+GFF84/55xzbqbIAM2LQoPoNOLF9ErXmzlG0q1KrzNDmSmzrZN9hw0blgQNCCA4Cg1iFPW4qfSX896Vx919ibufxhVnN2LXEoD+otAgRtGOm0onsX5b0u/N7JDQeeoVRQbAQFFoEJWYx01lZeaDksZJ+g2lZlMUGQCDRaFBbKIcN5XKzHVKy0yvcZKuCpOovvRRZLYTRQbAAFBoEJtYx02jJU2uOPYnpe+naW2lyEymyAAYCAoNohHzuMndVyvN/mDp0JOSjnH3F8OlCociAyBrFBrEJMpxUy93XylpmqTvq0m3ZlNkAFQLhQYxiWbcZGYtZvbGyuPuvsLdP9BsKzMUGQDVRqFBFGIaN5lZi9LdTA+Z2ZGh84REkQFQKxQaxCKKcVOpzFwn6WylW45/bmbvDBoqAIoMgFqj0CAWdT9uKpWZ72rTm0qOklQwMwuTqrYoMgBCodCg7pnZaKXjplvqfNw0TNLOFccel3Squ3uAPDVDkQEQGoUGMThZEYybSmXrVElzS4eekHSsuy8Jl6q6KDIA6gWFBjHoHTf9JnSQbXH39UrP9/mapKmNeqNJigyAekOhQV2r53FTaWv2WyqPu/t6d/+Eu78UIlc1UWQA1CsKDepdXY6bSicAf0fS78zslMBxqo4iA6DeUWhQ7+pu3FRWZv5J0nBJP23UUkORARALCg3qVj2Om8ysVdIPlJaZXsMlXVy6o3ZDoMgAiE3D/ABGQ6rHcZNLKlYc+5Okk909CZAnUxQZALGi0KCe1d24yd2LSq8C/MPSoUclHRH7vZkoMgBiR6FBVSxYsGBIr6/HcVOvUqn5Z0mzJR3t7q+ETTR4FBkAjYJCg8z19PTYfffdpyQZ0gSmLsZNZtba172Y3L3b3dtjLTNJkujb3/72u0SRAdAg7LLLLrs6dIiBcvfdcrncP7j7z0JnyYKZjZN0irtfHzpLFh544IEP3HbbbWPOOOOMpVOmTPnJYD7H1772teMWL16850UXXXTd8OHDK89ZqYkkSexb3/rW0QsXLnzd9OnT/eCDD/5ukiR1tVo0UEmS2Lx58/Z56KGHjnnllVdyo0ePXn3ggQc+euyxxz4e6r9zFszs3ZIecvfnQ2fJyDQze9bdnwwdJAtmdoSkVe4+P3SWjBxsZiPdfV7oIFkws/0l7eHudTPeH4xWSQtDhxio0m6SDYowe1/MbKfSGGNh6CxZePTRR4eX/j1iypQpCwf6+tWrVw9ftGjRHrvtttv/DR8+fGizq0G+NigzAAASnElEQVTq6enJXXPNNWe+8MILr5ekG2+80V566aXxxx133P0h8gyVu9tvfvObAx566KF3rV27dqexY8cmb3vb2+459thj79xuu+16QufLQJekJWqQP0NmtlbSy2qQ9yPpQEnL1SDvx8z2VXrj2YWBo2RlZ0njFfn7sRjvmZfP56fmcrkr29raDg6dJQudnZ2TkyS5q729fffQWbIwatSo7vXr17eOHTt23YoVK0YP9PVmdpakHyldtbo9+4Tb/Pqtpa8/vfx4Lpd7JEmSg0vlMwql8v8eSV+Q9AZJz0m66tJLLz3PzE6dOXPmo0EDZqRQKNwn6ZL29va6vRv7QBQKhZvM7Ja2traGWLXN5/NXS1rY0dHRGTpLFgqFwsVmNqGtre380FmykM/nz5V0VEdHx/tCZxkKzqFBpsxs7/Xr17dK0qpVq0aZ2YRBfJrQu5uKkja5bcGkSZOSqVOnnhlLmdnWyb6tra3x/Z8MAGxFa+gAaDjH9/6itPp3rKQb+vvist1NN4Xa3eTubmYzSg8/IWn+Rz7ykf1HjRq1LESegdjCisx5kr7Oib4AGhkrNMja8dt4vC11sbvJ0zb2KUmzJB09evToul7RYPs1gGZHoUFmzGyEpKMqDp84wFsC1HzcZGbDzOykyuPunrj7Ze5etyszFBkASFFokKUjlJ75X26ipCn9eXGIi+mZ2TClI7HbzaytFl8zCxQZANgUhQZZ2tJ4qb9jp5qOm8rKzLtLh/Jm9ulafO3BosgAQN8oNMjSiUpv3lguUf8LTc3GTaWt2T/RxjIjSSbpbDMbXu2vP1AUGQDYOgoNMmFme0vaT2kpKJeT9DYz23Ebr6/puMndeyQ9VnH4D5KOc/cN1f76/UWRAYD+odAgK1tbhckp3b69NTXf3eTuF0u6tPTwD5KOdfeltfr6W0ORAYCBodAgK8dr83FT5ce3JsjF9Eql5lNK75odvMxQZABgcCg0GLLSdu0jtfm4qZdLOmFL27drMW4ys+Fm9o99hnOf4+7Lq/F1+4siAwBDQ6FBFo5QOi7aEtPWt29XddxUOsn3Bkk/MLPZ1fgag0WRAYBsUGiQhf7uYjphC8fPkLRKVRg3lcrMTySdVjp0YT2UGooMAGSLQoMsnKCtnz8jbWH7dmncNE3SrVmPm0ojrp9JOrXiQ0ea2cgsv1Z/UWQAoDooNBiS0nbtydry+TO9cpIO7WP79slKry6c+bjJ3RNJd1cc/r2kabW+8SVFBgCqi0KDodps1WXSpEnrJGnnnXdeUfGhvrZvV23cJEnufpWkfy09/L3Srdk1uzcTRQYAaoNCg6GaVvH4uje96U3LJemQQw55XtJNFR9/tQBVc9xUrlRqzla6NbsmZYYiAwC1RaHBoPVxd+3rJJ1T9nGX9F5JPyp7Tvn27UzHTWY2wsw+Zmabjb/c/XvuXrlilDmKDACEQaHBUJRv175O0jml81Ze5e5FSR/QxlJTvn07s3FT2W6mr0u6pq9SU00UGQAIi0KDoegdH/VZZnqVSs0HJd1YOnRCluOmUpn5qaRTSofOVY1KTVmR+aMoMgAQTGvoAIja8dpGmenl7t1mdqak75Ve92dlMG4qlZafKR1flTtAablYN5TPv5Wvm5P0HklfVLrL6zmlRebrlBgAqD1WaDAope3a96sfZaZX2fhpgaT3K4Nxk7u70hOPyzM8LOkEd8+8zPSxIjNSrMgAQHCs0GCwujSAMtPL3Ytm9ilJiyT9LIvdTe7+ndJ06VvaeNfsTO/N5O66/PLLT5H0WbEiAwB1h0KDQXH3RUN4+TSl46DMLqZXKjXLJd3t7quy+ry9o6WJEyeOWLZs2bWiyABAXWLkhBAGvbvJzEaa2QVmtlkZd/dbsyozlaOlnp4ejRkz5iIxWgKAukShQU2Z2RilJwUPeHdT2dbs/5D0w75KTQb5+jxH5t/+7d+6Zs6c+Q2KDADUJwoNau0kDWLcVCozN2rjbqYzlGGp2dbJvq2tTGcBoJ5RaFBrgx03/UxpGSq3u9LiMWjsWgKAxkChQc0MZdyk9ArA5eXiPknHu/uaQWbpq8h8TNLrKTIAEB8KDWppUOMmSXL3OySdrrTU9JaZAZ8AvI0i8w137x7o5wQAhMeJAailId27yd3vMLMTJD3k7qsH8totXNn3Y5K+7e49g8kDAKgfrNCgJgYybjKz7czsEjPb7PwYd79rIGVmKysyryutyFBmAKABUGhQK/0aN5nZiNJz/l3SrX2Vmv6gyABAc6HQoFa2OW4qlZkbJZ1YOvQuDbDUUGQAoDlRaFB1Axg33aCNZabXKPXjXC+KDAA0NwoNaqG/u5sul1S+DXue0rtmb3FrNkUGACBRaFAb/drd5O6/k3SC0lIzT+nW7D5PAKbIAADKsW0bVVU2bvpZfy6m5+73mtkxkh7va2WG7dcAgL6wQoNqO1l9jJvMbJSZXW5mO1S+wN0frCwzrMgAALaGQoNq22zcZGajJN0q6d8k/aqvUlP2XIoMAGCbKDSomp6enpykaSrb3VQqM7dJOqb0tMPUR6npo8iMEEUGALAFFBpUzaJFi3bQ5uOm6yUdXfHUDZKK0laLzOspMgCALaHQoGpefPHFsdp8d9OlkpaWPf6d0m3d6wdaZMzs3Wb2WTN7U7XeAwAgDhQaVM3SpUvHqOJieu4+X9KxkpZJulfphfSO1+BWZG6RtKek/zOzv5rZNaWSs3113hEAoF6xbRtVkyRJTn1cTM/d/2BmR0r6e0n/o3T79UINcPu1u7uZfab08FOSPlr6p9vM7pX0K0m/dPfHhvpeAAD1jRUaVE1LS0si6RQz26n3WNk5Mj+R9D0N8RwZd3dJn5H0n2WHh0k6UlKn0tWb51m9AYDGRqFB5orFokmvFppzJN1jZrtV62TfslLz1bLDVvbr3ZSu3NwkaYWZ/a+ZXWJmB5tZ+fMAAJFi5ITMLV68eDtJ2rBhQ+/vr/0lPaO0xCxUFa7sWxo/nVd6+OmKD5eXlpykgyQdLOnfJb1kZr+WdLukO919ZVaZAAC1YzNmzDgudIiBGj169AEjR4782NKlS2eEzpKFkSNH7jFq1KjZy5Yte3/oLFn45je/eUdXV9cmq39mtmGPPfa49oQTTvjFsGHDitX62kmS2A033PDxpUuXnjqYl48YMWLBuHHjHtxnn30enDJlytO5XM4laeLEibetXLnyA93d3Q1ReHbcccfvrFmz5vNdXV3Phs6ShQkTJlzV1dX1/bVr1z4cOksWxo0b97lisXjf6tWr54bOkoVx48bNcPclK1eu3NYNaqMwbty4fzSz7ZcvX35N6CxZGDNmzPGtra1vXrFiRSF0lqGwT37ykx46BBpHd3e3rr32WiVJ8uqx1tZW7bTTTqrldGflypVau3btkD7H8OHD9brXvU6vec1rtOeee2rYsGEZpQMAZI2REzJVLBZ14IEHas2aNfrzn/+s1tZWjR07Vj09tb0eXnpazdAUi0V1d3eru7tbPT09FBoAqGOtZjY9dIiBGjly5BtHjRr1z8uWLbswdJYsjBgxYrfRo0dfsmzZso+GzjJU2223nQ477LCvStrtkEMOWTB8+PDPjRkzpquWGW688caz1q1bN12Sa9PzZ7bk1eeNGDHi+XHjxv3vHnvs8ehBBx30+IgRI4qSNH78+B+tXLnyY0mSrKpe8tqZMGHC1WvWrJm9YcOG50JnycL48eMv6+rqumHdunWPhM6ShXHjxn22WCz+z+rVq+8JnSULO+yww7lJkry8Zs2aW0JnycIOO+ww3czGrFy58juhs2RhzJgxx+RyuQNWrVp1VegsQ2FZ/J9sreXz+am5XO7Ktra2g0NnyUJnZ+fkJEnuam9v3z10lizMmDHjCaXXlpk3Z86cd9Tya5vZFyVdpK2XmUQbd/gtlzS39M/P3X1RXy8oFArr3X2vjo6OlzOOHMTs2bOfKRaLp82cOfPR0FmyUCgU7pN0SXt7+52hs2ShUCjcZGa3tLW1XR86Sxby+fzVkhZ2dHR0hs6ShUKhcLGZTWhrazs/dJYs5PP5cyUd1dHR8b7QWYaCkRMaxlbKTG9r7z32pNIbZM6VdI+7d9csJACgKig0aAhmdpmkjt6H2rTUrFDpqsGSfu3uL9U+IQCgmig0iF5FmZHSMvOw0gJzh6SH3L1qW8UBAOFRaBC1sjKzTNKvxSoMADQlCg2iZWanS+qRdJhYhQGApkahQbTc/Sal92cCADQ5bk4JAACiR6EBAADRo9AAAIDoUWgAAED0KDQAACB6FBoAABA9Cg0AAIgehQYAAESPQgMAAKJHoQEAANGj0AAAgOhRaAAAQPQoNAAAIHoUGgAAED0KDQAAiB6FBgAARI9CAwAAokehAQAA0aPQAACA6FFoAABA9Cg0AAAgehQaAAAQPQoNAACIHoUGAABEj0IDAACiR6EBAADRo9AAAIDoUWgAAED0KDQAACB6FBoAABA9Cg0AAIgehQYAAESPQgMAAKJHoQEAANGj0AAAgOhRaAAAQPQoNAAAIHoUGgAAED0KDQAAiB6FBgAARI9CAwAAokehAQAA0bN8Pv+J0CEGyt1fb2bvkVQInSUjO0s6T9LM0EGysHjx4s8Vi8VdWlpanpk0adIVofNk5MvufpGZrQkdJCNfcPdrzOyF0EGyYGYXuPsvJP0pdJaMfFTSI5IeDB0kI2ea2TJ3/03oIBk53sxGu/vPQgfJgru/XdJ+ZnZd6CxD0SrpbaFDDJSZ7VL6zRRd9i3YQdJwRfi92ILtJCmXy41R47ynnKSDJXWFDpKREZL+XtKeoYNkwd3HSHqDpLGhs2RkvKR9JVnoIBnZVVIj/TzYUw30M9vM9pE0UZG/H3P30BkGLJ/PT83lcle2tbUdHDpLFjo7OycnSXJXe3v77qGzZGHGjBlPSJosad6cOXPeETpPFgqFwnp336ujo+Pl0FmyMHv27GeKxeJpM2fOfDR0liwUCoX7JF3S3t5+Z+gsWSgUCjeZ2S1tbW3Xh86ShXw+f7WkhR0dHZ2hs2ShUChcbGYT2trazg+dJQv5fP5cSUd1dHS8L3SWoeAcGgAAED0KDQAAiB6FBgAARI9CAwAAokehAQAA0aPQAACA6FFoAABA9Cg0AAAgehQaAAAQPQoNAACIHoUGAABEj0IDAACiR6EBAADRo9AAAIDoUWgAAED0KDQAACB6FBoAABA9Cg0AAIgehQYAAESPQgMAAKJHoQEAANGj0AAAgOhRaAAAQPQoNAAAIHoUGgAAED0KDQAAiB6FBgAARI9CAwAAokehAQAA0aPQAACA6FFoAABA9Cg0AAAgehQaAAAQPQoNAACIHoUGAABEj0IDAACiR6EBAADRo9AAAIDoUWgAAED0KDQAACB6FBoAABA9Cg0AAIgehQYAAESPQgMAAKJHoQEAANGj0AAAgOhRaAAAQPQoNAAAIHoUGgAAED277LLLpocOMVC5XO6N7v5Bd28LnSUju0m6RNJHA+fIxOLFi7+SJMluuVzuiUmTJl0cOk8WzOyHSZJ83MxWhc6SBTP7L3efLekvobNk5EuSfiLpkdBBsmBmF0h6yN3vCZ0lI+ea2UvufmvoIBl5j5lt7+7fCR0kI8dIepOkL4cOMhStks4JHWKgkiQZb2YTFWH2vpjZaEmj3L0h3k8ulxubJIlyudyuapDvkbu3mNk/SdoQOktGtjez0919TeggGdlZ0jRJbwkdJCOvlTRK0usD58jK/u7+Wkk7hQ6SBTPbV9IwNcjPNzPbw90nKPL3Y+4eOsOA5fP5qblc7sq2traDQ2fJQmdn5+QkSe5qb2/fPXSWLMyYMeMJSZMlzZszZ847QufJQqFQWO/ue3V0dLwcOksWZs+e/UyxWDxt5syZj4bOkoVCoXCfpEva29vvDJ0lC4VC4SYzu6Wtre360FmykM/nr5a0sKOjozN0liwUCoWLzWxCW1vb+aGzZCGfz58r6aiOjo73hc4yFJxDAwAAokehAQAA0aPQAACA6FFoAABA9Cg0AAAgehQaAAAQPQoNAACIHoUGAABEj0IDAACiR6EBAADRo9AAAIDoUWgAAED0KDQAACB6FBoAABA9Cg0AAIgehQYAAESPQgMAAKJHoQEAANGj0AAAgOhRaAAAQPQoNAAAIHoUGgAAED0KDQAAiB6FBgAARI9CAwAAokehAQAA0aPQAACA6FFoAABA9Cg0AAAgehQaAAAQPQoNAACIHoUGAABEj0IDAACiR6EBAADRo9AAAIDoUWgAAED0KDQAACB6FBoAABA9Cg0AAIgehQYAAESPQgMAAKJHoQEAANGj0AAAgOhRaAAAQPQoNAAAIHoUGgAAED0KDQAAiB6FBgAARI9CAwAAovf/Aa86FJCvOBWtAAAAAElFTkSuQmCC;" vertex="1" parent="1">
          <mxGeometry x="1407" y="22" width="509.23" height="407.21" as="geometry" />
        </mxCell>
        <mxCell id="DBCZifxouWshRnNQ3hR5-4" value="" style="shape=image;verticalLabelPosition=bottom;labelBackgroundColor=default;verticalAlign=top;aspect=fixed;imageAspect=0;image=data:image/png,iVBORw0KGgoAAAANSUhEUgAAAfsAAAGWCAYAAAB/4SpWAAAACXBIWXMAAEU0AABFNAGuxrUdAAAAGXRFWHRTb2Z0d2FyZQB3d3cuaW5rc2NhcGUub3Jnm+48GgAAGeNJREFUeJzt3X2QXXd93/HP99zdPXpcrWQrIhZpZYXBj3WwW2IGx2BaqiTYJklLHlpKUk+CPdjrYJHp3rMO7fpCPOfeJE7iaiZNOriTTFuaQqGuxgWXMGkJNnZLjEXAxoBl2ViSUxwsQLK0dx/Ot39oXRQhefesJf3u+er9+mc1s3c1nzlzdd579tyrNXfXoOt2u3skXVEUxYHUW+rodDqr8jx/siiK81JvqWt8fPwFSevN7LYdO3bcnXpPHWVZ3pBl2WXtdnt76i119Xq9u6qqenxycvKe1FvqKsvy/lardcfExMTDqbfU1e129/b7/QunpqYOpd5SR6fTGcvzfFdRFFtSb6mrLMurzOz2oiiuTb2lrl6vd5Okre12u516y1JlqQcAAIDTi9gDABAcsQcAIDhiDwBAcMQeAIDgiD0AAMERewAAgiP2AAAER+wBAAiO2AMAEByxBwAgOGIPAEBwxB4AgOCIPQAAwRF7AACCI/YAAARH7AEACI7YAwAQHLEHACA4Yg8AQHDEHgCA4Ig9AADBEXsAAIIj9gAABEfsAQAIjtgDABAcsQcAIDhiDwBAcMQeAIDgiD0AAMFZt9u9NfWIxVRVdYeZ/aaZHU69pY6qqobNbMrM3p96S1179+7tuvuq1atXf3zDhg3/K/WeOtz9Skmbzezjqbcsw89UVfVXWZY9lHpIXe7+HjP7pKSnU2+py90/6O6/kWVZP/WWOqqqWimpnWXZHam3LMNWd99mZn+Qekhd7n6VpHPMbGfqLUs1VFXVq1KPWIyZtdz9B9x9OvWWOrIsG3L3rAnH+AQySTKztU3bb2br3H2VuzdqtySZ2SozG23aMZckM8vdfUPT/p1KkpllkjZVVTWTeksdZpZLajX0+bLB3fOG/jsdlbS6Scfd3D31hkV1u909kq4oiuJA6i11dDqdVXmeP1kUxXmpt9Q1Pj7+gqT1Znbbjh077k69p46yLG/Isuyydru9PfWWunq93l1VVT0+OTl5T+otdZVleX+r1bpjYmLi4dRb6up2u3v7/f6FU1NTh1JvqaPT6Yzleb6rKIotqbfUVZblVWZ2e1EU16beUlev17tJ0tZ2u91OvWWpuGcPAEBwxB4AgOCIPQAAwRF7AACCI/YAAARH7AEACI7YAwAQHLEHACA4Yg8AQHDEHgCA4Ig9AADBEXsAAIIj9gAABEfsAQAIjtgDABAcsQcAIDhiDwBAcMQeAIDgiD0AAMERewAAgiP2AAAER+wBAAiO2AMAEByxBwAgOGIPAEBwxB4AgOCIPQAAwRF7AACCI/YAAARH7AEACI7YAwAQHLEHACA4Yg8AQHDEHgCA4Ig9AADBEXsAAIIj9gAABEfsAQAIjtgDABAcsQcAIDhiDwBAcMQeAIDgiD0AAMERewAAgrOyLH8z9YgluFHSH0vqpx5Sh7sPm9m7Jf1+6i117du371Z3X7FmzZo/GxsbeyT1njrc/e+Y2UZJf5Z6yzJcI+lbkr6UeEdtZvYOd/+cpP2ptyzDe8zsQ+4+m3pITbmkfy7pDxPvqM3dN5vZGyR9LPWWZfgRdx8zs8+kHrJUQ5KeSj1iCebc/RkzO5x6SE0jkubUjGN8vEqSqqr6lhq238w26eixb9TuBZdLel4N3F5V1ZEsy/a5+57UW+oyszlJT6thFxSSVrr7nJk17vmSZZm5+2E18LluZpsX/tiY7ebuqTcsqtvt7pF0RVEUB1JvqaPT6azK8/zJoijOS72lrvHx8RckrTez23bs2HF36j11lGV5Q5Zll7Xb7e2pt9TV6/Xuqqrq8cnJyXtSb6mrLMv7W63WHRMTEw+n3lJXt9vd2+/3L5yamjqUeksdnU5nLM/zXUVRbEm9pa6yLK8ys9uLorg29Za6er3eTZK2ttvtduotS8U9ewAAgiP2AAAER+wBAAiO2AMAEByxBwAgOGIPAEBwxB4AgOCIPQAAwRF7AACCI/YAAARH7AEACI7YAwAQHLEHACA4Yg8AQHDEHgCA4Ig9AADBEXsAAIIj9gAABEfsAQAIjtgDABAcsQcAIDhiDwBAcMQeAIDgiD0AAMERewAAgiP2AAAER+wBAAiO2AMAEByxBwAgOGIPAEBwxB4AgOCIPQAAwRF7AACCI/YAAARH7AEACI7YAwAQHLEHACA4Yg8AQHDEHgCA4Ig9AADBEXsAAIIj9gAABEfsAQAIjtgDABCclWX54dQjluDtku6XNJN6SB3u3jKz6yXdm3pLXfv37//HVVWNjI6OfmF0dPSrqffUtFXSmKQvpB6yDJe7+3fNbHfqIctwjaQvSfpW4h3L8dOS7pM0l3pIHWY27O4/KWln6i3LsNHMLnb3z6QesgyvkbRG0q7UQ5ZqyN0HPvZm9g+qqvovZnYo9ZY6zCx397dKGvhjfDx3v17SyOzs7CPu3qgTiZm9VdKWJjy3j5dl2Up3/4a7/2nqLXVlWXaBu3/K3Zv2zaHMbJu7f0TSdOotNa2W9KYmPtfN7CJJY03cLuknzOxVTdo+NDk5eV/qEYvpdruHsyz7H0VRHEi9pY5Op7Mqz/N+URQDf4yPNz4+PitJ09PTjzXhOXKssiw3ZlnmTTzuvV7vLZIeb9oxl6SyLMdbrdaDExMTD6feUle3252emZm5f2pqqlEXFJ1OZyzP8yMNfb4ckHRNE7f3er3Nkl5s0jmGe/YAAARH7AEACI7YAwAQHLEHACA4Yg8AQHDEHgCA4Ig9AADBEXsAAIIj9gAABEfsAQAIjtgDABAcsQcAIDhiDwBAcMQeAIDgiD0AAMERewAAgiP2AAAER+wBAAiO2AMAEByxBwAgOGIPAEBwxB4AgOCIPQAAwRF7AACCI/YAAARH7AEACI7YAwAQHLEHACA4Yg8AQHDEHgCA4Ig9AADBEXsAAIIj9gAABEfsAQAIjtgDABAcsQcAIDhiDwBAcMQeAIDgiD0AAMERewAAgiP2AAAER+wBAAiO2AMAEByxBwBJhw8fNjPjnIiQrCzLz6YesQSvl/SopLnUQ2rKJP09Sf8n9ZC69u/f/4aqqoZGR0efGh0d3Z96T02bJK2W9FTqIctwvqTDkv5v6iHLcImkb0g6mHrIYubm5uzZZ59dvXv37tG9e/eu7ff7555//vnPbNu2bW/qbTUNSbpc0udTD1mGUUk/JOmx1EOW4VWSVkh6OvGOJRsys/HUIxbj7p8ws3+hBpxEjlVV1Yosy+6TNPDH+Hju/ueSRqenpz+2bt26/5h6T00/5e6vNbPfSj2kLnf/NUm7zeze1Fvqcvffd/c/yLLsL1NvOdYTTzwxumvXrgu++c1vXnDw4MELpqenL56dnd0iqfXSY972trcdfPOb3/xP3P1IuqXLstbdP9KE8/jxqqp6nZn9spndmnrLMrxD0qsl/V7qIUs11G63v5h6xGK63e6Muz9WFMWB1Fvq6HQ6q/I8ny2KYuCP8fHGx8fnJWl2dnZfE54jxyrL8oosy9Y3bbck9Xq956uq2tvE50xZlgdbrdbXJyYmkm03s/MlvU7Sjyx8/Ls6elJ+yZyOXg2/pJJ069VXX337kSNHvjw1NXXojI09BTqdzlie5zNNfK6XZblG0sEmbu/1em+QNNKk7UOLPwQABouZDUm6QEdjfrGkSyW9UdL6hYe4joa8ddyXDh3z+RlJP+Pun+x2u7ef9tFAQsQewMAzs1WSfknSlTp6j/pife/8VS18PPbFdabvD/1L5iUdkvST7v7QqV8LDB5iD2DgufthM/uwjkb6HEkXvfQp1XtX0byk5yW91d2b+MIwYFl4mwmARnD377j7v3f36yWNSfo5SZ+QNLvwkPlF/opK0l5JP0bocbYh9gAax90Pu/tH3f06ST8g6RZJu1/uSyR9UdKPuvvLPQ4IiR/jA2gsMztH0q2SbpM0rKNX9ye6V/8ZSW9390a9fRc4VYg9gMY5QeQ/JOnrknac4OE7Jf1CA99DD5wyxB5AY5wk8l13f87Mdur7r+z/WNKvuHvT/vdN4JQi9gAGnpltkPSrOkHkFz6/VtKP62+Gvidp0t39DM8FBg6xBzCwjon8eyWN6LjIH+PtC59/Key/5u6/e8aGAgOO2AMYOMdFfqWO/jj+jhNE/iU/v/DRJb3b3f/d6V8JNAexBzAwlhF5mdmopG2SpiX9rLvfdya2Ak1C7AEktxDs90gq9L3Id9x9Kb9e+Xod/bXAb3f3B07fSqC5iD2AZF5h5F/yJkl/3913nYaJQAjEHsAZt/Dq+Zv1yiL/kuV+HXDWIPYAzphTHHlJEqEHFkfsAZx2pyPyAJaO2AM4bYg8MBiIPYBT7rjIr5L0RyLyQDLEHsAp8+yzz64ys7aIPDBQiD2AV8zM1l599dXnP/jgg/9NR//b2j8SkQcGRpZ6AIDmMrO1C1fyzzz44IOvWbdu3aclbXX3mwg9MDiIPYDajo28pA9I+uj73ve+zxZF0XP3fYnnATgOsQewZCeKvBau5Dds2DCddh2Ak+GePYBFHfPq+rak1Tp6T/4DXMUDzUDsAZwUkQdiIPYAvg+RB2Ih9gD+PyIPxETsARB5IDhiD5zFzGyNpFtE5IHQiD1wFjpJ5D/o7ntT7gJwehB74CxC5IGzE7EHzgLHRH5C0hoReeCsQuyBwIg8AInYAyEReQDHIvZAIEQewIkQeyAAIg/g5RB7oMFOEPn/LOkOd38q6TAAA4XYAw20EPlfljQpab2IPICXQeyBBiHyAJaD2AMNQOQBvBLEHhhgx0V+g6Q/EZEHUBOxBwbQSSLfcffdSYcBaCRiDwyQQ4cODd97771vlXSniDyAU8TKsnw69Ygl2CzpOUlV6iE1mY5ub9x7nZ977rkfmp+fz8bGxl5Ys2bNwdR7alojaVjSgdRDlmpmZsYeeuihNQ888MD6w4cP2yWXXPLitm3bvn3uuefOpd5WwyZJ35bUTz2kLjN79cKv9fXUW2rKJJ2nBp5jJOVmts7dv5l6yDI07hwzlOf5FalHLKbf7z8q6S15nn879ZY6Dh8+vLLVav1FE47x8aqq2i1p7MUXX/ztc8455w9T76mj3+//U3e/eMWKFe9PvWUxjzzyyKqdO3e+69ChQ9vdfe3WrVu/ds0113zk0ksv/b3U2+rq9/sfldTL8/wvUm+pq9/vf3lkZOTHzOzF1Fvq6Pf7o5L+vInnmJmZmSslbc/z/BdSb6mr3+//kqQteZ53Um9ZqqHt27e/kHrEYrrdbiXpwPbt2xvzXZQkdTqdVa1Wy5twjI83Pj7ukjQ3N3e4afvLsnwxy7L+IO82s9WSfkXH3ZO/8cYbb66q6plB3n4yZVnOtlqt7zZxe7fbrQ4ePHhgamrqUOotdXQ6nSrP86qJx7wsy++a2WwTt/d6vcOSppu0PUs9ADibmNlqM3uvpCcl/ZakT0m6yN1/kfvyAE4XXqAHnAHHXMkXks4RL7wDcAYRe+A0IvIABgGxB06Dk0T+A+7+ZNJhAM5KxB44hYg8gEFE7IFTgMgDGGTEHngFiDyAJiD2wDIQeQBNQuyBGog8gCYi9sASHBP5tqRzReQBNAixB17GSSL/QXf/etJhAFADsQdOgMgDiITYA8cg8gAiIvaAJDNbJendIvIAAiL2OKsReQBnA2KPs9Jxkd8k6WOSfp3IA4iI2OOsQuQBnI2y1AOAM8HMcjO7UdKTkn5H0gOSLnT3nyP0AKIj9gjtmMg/Jenf6GjkLyLyAM4mxB4h9fv91nGRf1Dfi/zX0q4DgDOLe/YIxczyyy+//M1f+cpX3iFppY7ek38/gQdwNuPKHiEc++P6Rx999Bc3bty4X1zJA4AkYo+GO8E9+Qff+c53/vott9zy34k8ABxF7NFIJ4q8Fq7kL7nkkr9Kuw4ABguxR6O8XOS5kgeAEyP2aAQzGyHyALA8xB4D7ZjI79H3In8xkQeApSP2GEiLRP6radcBQLMQewyUk/y4nsgDwCtA7DEQThD5z4nIA8ApQeyRFJEHgNOP2CMJIg8AZw6xxxlF5AHgzCP2OCNOEvlLiDwAnH7EHqfVIpF/Iu06ADg7EHucFkQeAAYHsccpReQBYPAQe5wSx0R+t4g8AAwUYo9X5ASRf0hEHgAGCrHHshB5AGgOYo9aiDwANA+xx5KcJPKXEnkAGHxDqQdgsM3OzrYWIv8vJZ0n6ROSrnP3L6ZdBgBYKrv55pv/a+oRi1mxYsW2mZmZ/1lV1WzqLXWYWWvFihX/8MiRI/en3rIM1z722GPDn//852ePHDkytHnz5n1XXnnlVzdt2nQw9bDFDA8P/y0zWzczM/Ol1FvqyvP80vn5+YNzc3PPpN5SV57nb5ydnX2iqqoXUm+pa+XKlT8xPT39aXefS72ljizLhkdGRt4yPT39qdRb6mq1WucMDQ29tt/vP5R6S13Dw8NbzGz1zMzMY6m3LJXdcsstnnoEBtPOnTvVarV05ZVX6txzz009BwCwTEOSPpJ6xGJWrlx57fT09J+6+0zqLXUsXNlfe+TIkZ2pt9RlZj993XXXjbRarUfd/eup99QxNDR0fqvVWtfv93el3lLXyMjI69z9O7Ozs3tSb6lrxYoVb5qdnX1sfn7+W6m31LVy5crrp6enP9m0K3szG16xYsWPHzly5L7UW+rKsuzc4eHhi/r9/mdTb6lrZGTkh81sdb/f/8vUW5bK3Af/wr7b7e6RdEVRFAdSb6mj0+msyvP8yaIozku9pa7x8fEXJK03s9t27Nhxd+o9dZRleUOWZZe12+3tqbfU1ev17qqq6vHJycl7Um+pqyzL+1ut1h0TExMPp95SV7fb3dvv9y+cmpo6lHpLHZ1OZyzP811FUWxJvaWusiyvMrPbi6K4NvWWunq93k2Strbb7XbqLUvFq/EBAAiO2AMAEByxBwAgOGIPAEBwxB4AgOCIPQAAwRF7AACCI/YAAARH7AEACI7YAwAQHLEHACA4Yg8AQHDEHgCA4Ig9AADBEXsAAIIj9gAABEfsAQAIjtgDABAcsQcAIDhiDwBAcMQeAIDgiD0AAMERewAAgiP2AAAER+wBAAiO2AMAEByxBwAgOGIPAEBwxB4AgOCIPQAAwRF7AACCI/YAAARH7AEACI7YAwAQHLEHACA4Yg8AQHDEHgCA4Ig9AADBEXsAAIIj9gAABEfsAQAIjtgDABAcsQcAIDi78847fzD1iMVkWfa/3X2bu38n9ZY6sixbKelzVVVdnnpLXc8999zj7j7WarX+1aZNmz6Uek8dZvbzWZZdPD8/P5V6S12tVmuqqqqvuft/Sr2lrizLPmxmvz0/P/+F1FvqyrLsC/1+/+rh4eEXU2+pY2hoaLSqqk9XVfWjqbfUZWavz7LsV+fn59+VektdWZb9M3f/2+5+Z+otS2VlWX419YglON/dv2Fm86mH1GSStkranXpIXfv37//hqqpa69ate37t2rUHUu+paVRSLun51EOWYaO7z5hZo76xXfBqSX8taTr1kGXYKulpSVXiHXVlkrZIeirxjtrcfaWZbZC0L/WWZVjn7sNm9tephyyVuXvqDYvqdrt7JF1RFEWjotPpdFblef5kURTnpd5S1/j4+AuS1pvZbTt27Lg79Z46yrK8Icuyy9rt9vbUW+rq9Xp3VVX1+OTk5D2pt9RVluX9rVbrjomJiYdTb6mr2+3u7ff7F05NTR1KvaWOTqczluf5rqIotqTeUldZlleZ2e1FUVybektdvV7vJklb2+12O/WWpeKePQAAwRF7AACCI/YAAARH7AEACI7YAwAQHLEHACA4Yg8AQHDEHgCA4Ig9AADBEXsAAIIj9gAABEfsAQAIjtgDABAcsQcAIDhiDwBAcMQeAIDgiD0AAMERewAAgiP2AAAER+wBAAiO2AMAEByxBwAgOGIPAEBwxB4AgOCIPQAAwRF7AACCI/YAAARH7AEACI7YAwAQHLEHACA4Yg8AQHDEHgCA4Ig9AADBEXsAAIIj9gAABEfsAQAIjtgDABAcsQcAIDhiDwBAcMQeAIDgiD0AAMERewAAgiP2AAAER+wBAAjOyrJ8feoRS3CvpHdJOph6SB3uviLLso+7+9tSb6lr3759n3b30TzPf2fjxo1/knpPHVVVXZ9l2Wsk/W7qLcvwXnffY2Y7Uw9Zhn+dZdm/rarqy6mHLMN9Zvaz7n4k9ZA65ubm1g4NDf0HST+Vektd7n6Zmd0gaXvqLXWZ2T9y982SdqTeslRDkrqpRyzBBklTkuZSD6mp5e6jasYx/hvMbJW7a2Rk5HpJr0u9p44sy35Q0hpJm1JvWYbXmNkVkt6Yekhd7v5ad79Z0ndTb1mGde7+AUnzqYfUMTQ0NCRpvZp5jlknaYsauH0h9CskbU69ZanM3VNvWFS3290j6YqiKA6k3lJHp9NZlef5k0VRnJd6S13j4+MvSFpvZrft2LHj7tR76ijL8oYsyy5rt9uNu2Lo9Xp3VVX1+OTk5D2pt9RVluX9rVbrjomJiYdTb6mr2+3u7ff7F05NTR1KvaWOTqczluf5rqIotqTeUldZlleZ2e1FUVybektdvV7vJklb2+12O/WWpeKePQAAwRF7AACCI/YAAARH7AEACI7YAwAQHLEHACA4Yg8AQHDEHgCA4Ig9AADBEXsAAIIj9gAABEfsAQAIjtgDABAcsQcAIDhiDwBAcMQeAIDgiD0AAMERewAAgiP2AAAER+wBAAiO2AMAEByxBwAgOGIPAEBwxB4AgOCIPQAAwRF7AACCI/YAAARH7AEACI7YAwAQHLEHACA4Yg8AQHDEHgCA4Ig9AADBEXsAAIIj9gAABEfsAQAIjtgDABAcsQcAIDhiDwBAcMQeAIDgiD0AAMERewAAgiP2AAAER+wBAAju/wHrsQ4eSoIgwwAAAABJRU5ErkJggg==;" parent="1" vertex="1">
          <mxGeometry x="40" y="20" width="507" height="406" as="geometry" />
        </mxCell>
        <mxCell id="DBCZifxouWshRnNQ3hR5-5" value="\(V\)" style="text;html=1;strokeColor=none;fillColor=none;align=center;verticalAlign=middle;whiteSpace=wrap;rounded=0;fontSize=22;" parent="1" vertex="1">
          <mxGeometry x="344" y="165" width="60" height="30" as="geometry" />
        </mxCell>
        <mxCell id="DBCZifxouWshRnNQ3hR5-6" value="\(a\)" style="text;html=1;strokeColor=none;fillColor=none;align=center;verticalAlign=middle;whiteSpace=wrap;rounded=0;fontSize=25;" parent="1" vertex="1">
          <mxGeometry x="331" y="285" width="60" height="30" as="geometry" />
        </mxCell>
        <mxCell id="DBCZifxouWshRnNQ3hR5-7" value="\(b\)" style="text;html=1;strokeColor=none;fillColor=none;align=center;verticalAlign=middle;whiteSpace=wrap;rounded=0;fontSize=25;" parent="1" vertex="1">
          <mxGeometry x="130" y="180" width="60" height="30" as="geometry" />
        </mxCell>
        <mxCell id="DBCZifxouWshRnNQ3hR5-8" value="" style="endArrow=none;dashed=1;html=1;rounded=0;" parent="1" edge="1">
          <mxGeometry width="50" height="50" relative="1" as="geometry">
            <mxPoint x="175" y="192" as="sourcePoint" />
            <mxPoint x="363" y="192" as="targetPoint" />
          </mxGeometry>
        </mxCell>
        <mxCell id="DBCZifxouWshRnNQ3hR5-9" value="" style="endArrow=none;dashed=1;html=1;rounded=0;" parent="1" edge="1">
          <mxGeometry width="50" height="50" relative="1" as="geometry">
            <mxPoint x="362" y="287" as="sourcePoint" />
            <mxPoint x="362" y="192" as="targetPoint" />
          </mxGeometry>
        </mxCell>
        <mxCell id="QVBjA24aKZEz9xPjlTkT-3" value="" style="shape=image;verticalLabelPosition=bottom;labelBackgroundColor=default;verticalAlign=top;aspect=fixed;imageAspect=0;image=data:image/png,iVBORw0KGgoAAAANSUhEUgAAAjQAAAHDCAYAAAAz9IA/AAAACXBIWXMAAEzlAABM5QF1zvCVAAAAGXRFWHRTb2Z0d2FyZQB3d3cuaW5rc2NhcGUub3Jnm+48GgAAIABJREFUeJzt3XmcXGWZ9vHrru5OQgLZCEvYZFFC0AiKCgiI7IhsYhTBERe2GewRUCfdnQACIlXJi+CSQVBARMERZR9QgRfk1bAMgyyCQEggIJCEJWQPSXfV/f5xTptKp5P0crqeeqp+38+HD9Tp6q6rSNJ95bnPc465u2KTz+f3z+Vyl7a0tOwROksWpk2bNq5UKt3X2tq6degsWWhubn5O0jhJM6ZPn75v6DxZKBQKK9x9u7a2tjdDZ8nC1KlTXywWi8dOnjz5qdBZslAoFB6UdH5ra+vdobNkoVAo3Gxmt7a0tFwXOksW8vn85ZLmtLW1TQudJQuFQuFcMxvd0tJydugsWcjn86dKOrCtre2E0Fn6Ixc6AAAAQH9RaAAAQPQoNAAAIHoUGgAAED0KDQAAiB6FBgAARI9CAwAAokehAQAA0aPQAACA6FFoAABA9Cg0AAAgehQaAAAQPQoNAACIHoUGAABEj0IDAACiR6EBAADRo9AAAIDoUWgAAED0KDQAACB6FBoAABA9Cg0AAIgehQYAAESPQgMAAKJHoQEAANGj0AAAgOhRaAAAQPQoNAAAIHoUGgAAED0KDQAAiB6FBgAARI9CAwAAokehAQAA0aPQAACA6FFoAAAVY2abhM6A2mQXX3zx26FD9EFjLpcbWiqVFocOkoVcLpdz9+HuvjB0lizMnz9/REdHR8OgQYM6Nttss5r4NTKz0ZLecXcPnSULZjbS3ZdIKobOkgUzGy5phbu3h86SBTPbWFK7u68MnaWvOjo6bN68eQ2vvPJK4+zZs4esWLFC7e3tpRNPPHHpqFGjSqHz9YeZbSTJ3H156CxZMLPBkprcfWnoLP3RWCqVPhw6RG+Z2Z7ufm6pVDoydJYsuPuOuVzu16VSac/QWbJQLBbvk7Rje3v7E6VSaWLoPFloaGh4XtJBpVJpQegsWWhoaPizu5/q7s+FzpKFxsbGmyVdViwW/xw6SxZyudyVku4ulUo3hc7SEw888MBms2bNGr9w4cJd33333V3b29vHd3R07CipofM5w4cPn3/ggQcePmLEiHdKpaj7jHK53DfMbGSpVLowdJYsNDQ0fEHSx0ul0jdCZ+mPxilTprwcOkRv5fP57c1sVYzZuzNt2rQhpVKpWCvvp7m5uV2S3H1lrbynQqHg7v7qlClT3gydJQtTp07tkDS3hn59Vkp6o4bez3Ize6utra2q3o+ZNUraRdJu6T+7p/9s1uWpLsk6HwwbNmzxGWec8Z/5fP6JSmUdSIVCYaGZ5Wrl91s+n18gaXns76cxdAAAQPUxsxGSJkjaVdL7Je2R/jOk7GlrFJfyTy/773mTJk26rampKdrxGeJAoQGAOmZmOUk7afWqS+fKy7ZdnlrS2htJuisz5VzSp5qamk7LICqwXuxyAoD6tr2kEyVdIOkcSUdp7TIj9e3nxc/dvSbGTKh+FBoAqGPu/qK7X+Du71cyYvqupOfLn9KXLyvpXUnn9z8h0DMUGgCAJMndn3b389y988Tf70maXf6UHn4pk1Rw939knRFYFwoNAGAt7v6Uu5+j5ETgH0laqQ2fM9NpnqRLBiob0B1OCgYArMXMNpX075LOlDRS0ptae3v2ukxx92UDlQ3oDoUGAPBPZUXmLEkjJD0raZmkrXv4JZ6S9IuBSQesG4UGACAzGyOpWauLzJNKRkwf7OWX+g93r4lbaiAuFBoAqGNlReZsScMl/UXSEkmHq+fnzHT6vbvfnW1CoGcoNABQh8xsM0nfUjJeGirpAUkvSzpe0uBefjlXcuG9SVlmBHqDQgMAdcTMNpf0Ta0uMvdJ+pukL0vav69fVtI17v50JiGBPqDQAEAdKCsy35C0kaR7lZSZUyUd2I8v7ZKWSzqvvxmB/qDQAEANM7MtlJwf8w0lN5a8U8kVfF+T9AFJj0oatZ4vcY2kjdf3EpKmuvu8LPICfUWhAYAaZGbbSvq2pNOUnBNzp6TvuPtfy5623hKSlqEGSX9Xctft7rwu6dJ+Bwb6iSsFA0ANMbPtzOyHkmYq2b10r6SPuPtRXcpMTxwm6RhJH5O0rptMTuYieqgGrNAAQA0ws+2U7Fo6TdIgSXdJOs/dH+/l1xnh7ovSh7919xXp8SlKVnnKPSnpl/0KDmSEFRoAiJiZvafLiswdkj6Qrsj0tswcLuklMztYkjrLTKq7G1N+291LfYwOZIpCAwARMrPt0yLzvJIic7uk97v759392T58vcMl3aLkBOHbzeygDXzKne5+b29fBxgoFBoAiEhaZK6U9IJWF5ld0yLzXB+/5pGSblWyC0pKtnXfZGaj1/EpRUktfXktYKBwDg0ARMDMdpDUKulrSv4yepOkc9x9ZgZf/mta8+rA7ZK+5u4LyiOU/feV7v5MBq8LZIYVGgCoYma2Y7oiM1PSVyX9WtIu6YpMFmVGkr6gZKVHSsrM8e5+8zqeu0TSBRm9LpAZVmgAoAo9+eSTW5nZdZJOVHKfpF9L+q67v5D1a7n7KjP7vKQbJV3r7res5+l5d38j6wxAf1FoAKCKmNmu48aN22PmzJnHKDlX5QZJF7r7rAxfY/OupcTdVyq55sw6P03Sq5J+mFUOIEuMnACgCpjZ+9MVmadeeOGFbTbffPOHJI1395MyLjNHSHrRzL7Qh09vdfflWWUBssQKDQAEZGYfkDRJyWipKOmG5ubmLbbaaqvrW1paZmf8WkdIulnJCcC/MjO5+3/18NOflvSPLPMAWWKFBgACMLMJ6YrMk5KOl3S1pJ3c/aSxY8dmfisBMztGyXVmOnczNUi6Kr0L9wa5+8tcRA/VjBUaAKggM5sg6VxJE5XsKLpKyTkyrw3wSx+r5JYInVZJ+iIn+KJWUGgAoALM7IOSzlFSZFZJ+pmkC9z99QpFOEXJqsyX0tc/3t1vq9BrAwOOQgMAA8jMdpM0RUmRWSHpx5KmVrDISJLcvWhmX1WyBfxmd799Q58DxIRCAwADwMx2lzRZSZFZrqTIFNx9boVef1t3X+MkXncvSvpKJV4fqDROCgaADJnZ3mZ2h6THJR2hpMi8193PrGCZOU7SLDP7t0q8HlANWKEBgAyY2ccltUk6UtJSST9SclXdeRXOcZyk/5LUJOk/zczd/YpKZgBCYIUGAPrBzPZJV2RmSPqkkiLTuSITssxIydV9LzOzrSuZAwiBFRoA6AMz21dSi5IVmSWSpkqa1uUO1ZW2n1aXGUlaKelzFdgSDgRHoQGAXkiLzHckHazVRWaqu78TNFjim0q2Zv+7kq3Zn3f3/w4bCagMCg0A9EBaZM6XdJCqr8hIktzdzexMJbdQuNfd7wydCagUCg0ArEdaZC6UdICkxUqKTMHdFwYNJsnMdnb3meXH3N0lnR0oEhAMJwUDQDfMbF8zu1/SnyV9UNIFkt7j7q1VUmYmSnrazCaHzgJUA1ZoAKCMmR0s6SJJe0p6W0mRuczdFwUNViYtMzcoOQH4e+ldsy8OHAsIihUaAFBSZMzsEUn3SNpJSZHZyd3Pr7Iy8zlJv9aau5nONbPtgwQCqgQrNADqWroic7Gkj0p6S0mRudTdFwcNtm7jteb37nclHefuc8LEAaoDhQZAXepSZN6U1Crpx+6+PGiwDXD3C80sp2TreOfW7N8HjgUER6EBUDfMzJRcCO88SR+R9IYiKTLl3P18MytKetTd/xA6D1ANKDQAal5ZkfmOpD20usj8yN1XhMy2IWa2m7s/2fW4u383RB6gWnFSMICaZWY5MztK0v9Kul3SNkqKzPbuPjWCMvM5Sf9rZt8PnQWodhQaADWnmyKzmaSzFEmRkaTbbrvtY0q2ZjdK+ialBlg/Cg2AmpEWmc9JelpJkdlUSZHZ2d1/6O7vBg3YQzNmzNjm4Ycf/leteVrAGWY2LlQmoNpxDg2A6Lm7brzxxk9I+qGkXSS9oqTIXBlLiSm3bNmyQe5e/hfOdyUd6+7Ph8oEVDvL5/PPhg7RB0MlbS5pTuAcWRkkaTtJs0IHycK8efN27OjoGNTU1LRiiy22eDl0niykfzOe5e7F0FkyspOZveruK0MH6Q931+OPP77J/fffv9Vbb71lw4cPb99rr70W7LfffgsbGxs9dL5+2Pqhhx4q3X777SMaGhr8+OOPf23ChAlLQ4fqK3ff0szalVx5uRaMcfecmb0ROkhGRir5ufp66CD90SjppNAh+uBDSm6+FmP2teRyufeUSqXLVSPvp1gs/lbSezo6OmZKOjV0niy4+18kNUuqmjsr99Ot7j5FkZbo9vb23A033HDA7Nmz/629vX3r4cOHr9ptt93uOPTQQy8bPXr0qtD5+svMpu69994PPPHEE8NGjRr1yoQJEx4Jnak/zKzF3V83s1+GzpIFdz/ZzIZLuix0liy4+7Fm9hFJ54TO0h+Nra2tj4YO0Vv5fH5oLpdb3tLSEl327kybNm2xpPYYfy2609zc/K4kufvSWnlPhUKh5O6Pt7W1vRk6SxamTp26slgsPjN58uSnQmfpDTNrknSCpCmSdpb0kqTTJ02a9NWGhoaftra2zggasI/MbG9Jj7h7SZIKhcJCM3vp5Zdfvi5wtEzk8/k3JL1aQ98PDjezFbXyMyifz+/u7ju2tbVF/X44KRhA1TOzJjM7SdIzkn6h5D5Gpys52fenDQ0N0Y6XzOzzkv6fpKvSKwAD6AP+8ACoWmVF5u9KikyDyoqMu3cEDdhPaZm5Xsn4/6uSfkapAfqGPzgAqo6ZDUqLzLNKiky7pC+rRoqMJJnZF7X6OjOdTpC0a5hEQNwoNACqRjdFZqWSIjPB3a+roV1mUlLSykdlKyQd7e5PB8oDRI3r0AAIzswGSfqKpHOV3J7gGSVF5voaKzH/5O43JreY0vVK7pp9jLvfGzYVEC8KDYBgyorMeZK2VnKF3ymq4SJTLi01TZLmufv/DZ0HiBmFBkDFmdlgJSswnUXmb5ImS/pV59blWmNmB0r6s7u3lx939+sDRQJqCufQAKgYMxtqZmdKelHSlUquHPt5Sbul58jUapn5gqQ/SvqvdEUGQMYoNAAGnJkNS4vMLEk/kPSWkiKzu7v/1t2jvY7MhqRl5ldKVsSPE6UGGBAUGgADppsi84bqpMhIUrpj63ol18/pdLik94dJBNQuzqEBkDkz21jSyZJaJW0p6QlJ35D0u1ovMV3MV7KDaUj6eLmko9z9iXCRgNrECg2AzJjZxl1WZF5Scm2VD9XDikxX7v5HSZ+R9K5Wl5n7wqYCahMrNAD6LV2R+bqkSZJGS3pQ0qnufkfQYFXA3f9gZhMlLXP3P4XOA9QqCg2APjOzTSSdIalF0ihJMyRNrdciY2ZHSPqTuy8vP+7udwaKBNQNRk4Aes3MNjGzFkkvSyoouXnk0e6+bx2Xma9KukPSH9IVKwAVRKEB0GNmNjwtMq9odZE5uJ6LjPTPMnOVku+p+0m608yGhU0F1BcKDYANMrNNzex8rV6ReUbSQWmRqetL9pvZV7S6zHT6sKRdggQC6hTn0ABYJzPbVNK/SzpL0ggl58ic6+73Bw1WXWZKWiZpk/TxciXjt8fCRQLqDys0ANZiZmPSFZnZkr6j5KaRB6QrMpSZMu7+oJKL5S1RUmyO5P8RUHms0AD4JzMbI6lZ0tmShku6V9I57v5I0GBVzt0fNLNPp//959B5gHpEoQEgM9tM0reUjJeGKikyU9z9f4IGq0Jmdpyk+9x9YflxigwQFiMnoI6Z2eZmVpA0R8m1ZB6U9DF3P4QyszYzO1nSbyXdZ2ajQ+cBsBorNEAdWrx4ccMVV1xxpqQTJG2kZEWmzd3/N2yy6pWWmZ8q+YvghyTdY2aHuPuCsMkASBQaoK6Y2RaSzm5sbNy2o6Pjq5LulHQ+O3LWL92a/TNJVnb4fZJ2kkShAaoAIyegDpjZtmb2QyWjpUnbb7/9ir322usEdz+KMtMjf5X0dtnjZUq2Zj8aKA+ALlihAWqYmW2n5GTf0yQNknSXpO+ccsopvysWi88GDRcRd3/KzA5WMprbSNKn3f2BwLEAlGGFBqhBZrZduiLzvJJt2PdK+ki6IvPXsOni5O5PSjpE0qGUGaD6sEID1BAze4+kb0o6XVKTpJskfcfdWY3pBTM7UcnW7Hnlx939iUCRAGwAKzRADTCz7busyNwu6f3u/nnKTO+Y2amSfinpT2a2Veg8AHqGQgNELC0yV0p6QauLzK5pkXkubLr4pGXmCiXfG8cpud7M2LCpAPQEIycgQma2g6RWSV9T8sP3JiW3KJgZNFjE0q3ZV2rNrdljJW0jaW6ITAB6jhUaICJmtmO6IjNT0lcl/VrSLumKDGWmf+6X9HLZ48WSDmNrNhAHCg0QATMbb2bXac0i8353P8ndXwibrja4+8uSDlByrZ5FSsrMw0FDAegxRk5AFTOzXZWMlk6UVJJ0g6QL3X1W0GA1yt3nmNkhkjblDuNAXFihAaqQmb0/XZF5StLxSorM+HRFhjKTATP7anou0hrcfRZlBogPhQaoImb2gbTIPKm1i8zssOlqh5mdJulqSQ+Y2U6h8wDoPwoNUAXMbEKXInO1pJ3SIvNi2HS1xcxOV7I12yRtK+l+M9sxbCoA/UWhAQJKi8yNWl1krpK0o7uf7u6vhk1Xe8zsy5J+ojW3Zm8iadMwiQBkhUIDBGBmHywrMkdL+pmkHdIi81rYdDXtD5LKr5y8SNLhbM0G4kehASrIzHZLi8wTkj4t6cdavSLzeth0tc/d50s6UNLflZSZQzkBGKgNbNsGKsDMdpc0WdJEScuVFJmCu3MF2gpz9/np1uwtufM4UDtYoQEGkJntbWZ3SHpc0hFKisx73f1MyszAM7N/NbMJXY+7++uUGaC2UGiAAWBmH0+LzIOSPinpR1pdZOYFDVcnzOwsJScA/9/uSg2A2kKhATJkZvukRWaGKDLBmNnZki5LH24mSg1Q8ziHBsiAme0rqUXSkZKWSpoqaZq7LwgarA6Z2ZckXdrlcKOkQQHiAKgQVmiAfjCzfc3sHkl/lrS/kiKznbu3UmaCuUNS+TbshUpuNPlYoDwAKoBCA/RBWmTuVVJk9lRSZN6TFpl3wqarb+6+UNKhSkrNQiVbs7nODFDjGDkBPbBw4UIbMWJE52jpQkkHSFqspMgU0h+iqBLuvtDMDpe0jbs/FToPgIFHoQE2wMz22WeffRoffvjhuyR9RNLbkqZI+rG7LwmbDmZ25sknn7zJe9/73jWOpyM/xn5AnbB8Pv9A6BB9MELSTpJq5ToSG0naTdLDoYNkYd68eR/t6OjYqKmpafEWW2zxROg8/bFy5cqGyy677MN77rnnkIceemjVhAkT5h144IGvDRs2rCN0tn76mKRnJC0LHaQ/7r777m3uv//+HQcNGuRf/OIXX9p5551r5f5XuyopzvNDB8nIe81spbv/I3SQjGwnqUnS7NBBMrKlpFFa87Yg0Wk0s2mhQ/SWu3/AzE6VFF327rj71pIujvHXojvFYvFKSVsXi8VXY39Pl1566UWLFy/eyMyKra2tX2toaFgUOlMW3P1qM/u5pDmhs/TVVVdddeysWbM+IUmrVq2y6667bpv99tvvp4cffvjTobP1l7tPMbOHJN0XOksW3P0MSfPN7KbQWbLg7l8ws02U3IMteqVS6bD0tixRf79ubGlpuTN0iN7K5/NLzezzMWbvzrRp08aVSqWVtfJ+mpubl0pSqVR6J+b3ZGaHStpdkkaMGFEys3taWlreDBwrE1OnTl1eLBb/PHny5CjPLzGzL0g6pcvhd//0pz/98f777496VVCSCoXCyZKejPnPT7l8Pv9pd5/T1tZWE++nUCh8WNLoGvr12crdN2ttbY36/bDLCeiGmY2UdG3n4yFDhni4NOjG7SpbvRg8eHDHAQccMMXdoy8zAPqGk4KB7v1E0tjOB01NTQGjoCt3X25mRym55syHvvzlL7+6ww47zAydC0A4rNAAXaTjjC+UHxs0iIvMVht3Xy7paEn77LDDDktD5wEQFoUGKGNmYyVdLqlUfnzw4MGMnAIys2+n15VZg7svc/eod2YAyAaFBljTz5RsX1zjzwYrNOGY2bcl/R9Jt6VjJgBYC4UGSKWXAvh0dx/jHJowzKxVSZmRkptL3pjuPgOANVBoAElmtr2ky9Rl1NSJkVPlmdlnJeW7HF6q2rnYHIAMUWhQ98wsJ+nnkoap+z8TpcZGNgQGcLukW8sevynpIHd/MlAeAFWMQgNIZ0v65Ho+vsLMKhQFndy9XdLnlZSaNyUdzI0mAawLf+1EXTOz8ZIukuSS1tValkvapGKh8E/u3m5mx0vazt1nhc4DoHqxQoO6ZWaNkq6TNFjrLjNSct4GBpiZtaXXAFqDu6+izADYEFZoUM/OkfSRHjyPQjPAzGySpIslFc2s0d1/FToTgLiwQoO6ZGYfkjRFyahpfVzSsoFPVL/M7BxJU9OHDZJ+nu5wAoAeo9Cg7pjZEEnXK/nhuaGzfSk0A8jMjpb03S6HF0h6PkAcABGj0KAefU/SeK1ZZlZJmi2po8tzTRSagXSHpCvLHnfuZno6UB4AkaLQoK6Y2T6Szio71C7pl5I+LGlLJT9g28s/RZxDM2Dc3SX9m5JS84aS68z8LWwqADGi0KBumNkmkn6l5Pf9KiU3odzR3U+S9AElF9a7VslF9sotr2DMupOWmjMkfZQyA6CvKDSoJ9+X1Hk37Z3c/evu/mr6sc9JWiLpbiW7bcpXaVihyYiZnWdmZ3Q97u4ld38lRCYAtYFt26gLZvZJJdeb2dXdX+zysaGSDpd0i7u/K+llM/u5pNPSp3AOTQbM7HxJ35HkZpZz9+mBIwGoIazQoF484u5f7lpmUkcpGTf9tuxY+SoNhaafysqMlJyX9CMz+2q4RABqDYUGdcHdV6znw+Xjps7nv6zV59JQaPrBzA7T6jLT6Q1JjwSIA6BGUWhQ18rGTbel46Zy31Ny8jCFph/c/Y+S8mWHOncz/T1QJAA1iHNoUO+6GzdJktz9FTO7VpwU3G/uPtmSW5Z/TdKB7v5M6EwAagsrNKh3a42buviepHcqF6d2uXubpN0oMwAGAis0qFvd7G5aS7pK83plk8XNzC6QVHT3C7t+zN3nBYgEoA6wQoN6ts5xUzl373o7BKyDmV0o6TxJF5jZeaHzAKgfFBrUsw2Nm9ALZnaRpHPLDl1gZmeGygOgvlBoUJc2sLsJvWRm+0ua0uXwXEl/DBAHQB2i0KBe9WjchJ5x9wck/UfZoflK7pr9XKBIAOoMJwWjXjFuypi7X5LszNa3lWzN5jozACqGFRrUHcZNA8fdL1FyvyzKDICKotCgHjFu6icz+66Z/SC9WN4a3H1BiEwA6hsjJ9Qjxk39kO5m6jwB2M3sm+7uITMBACs0qCuMm/rHzApaczfTWVpzqzYABEGhQb1h3NRHZranpEldDr8m6dcB4gDAGig0qDeMm/rI3R+RdKqkUnponqRD3P2FcKkAIEGhQd1g3NR/7n61pNMkva5ka/azgSMBgCQKDeoL46ZeMrO1vkekpWYcZQZANaHQoJ4wbuoFM/uepBvMbK3dkO6+NEAkAFgntm2jLpSNm25h3LRhZnaxpLb0oZvZv7h7MWQmAFgfVmhQLxg39ZCZXaLVZUaSviCpECgOAPQIhQb1gnFTD5jZ7pLO7HL4H5KuCBAHAHqMQoOax+6mnnP3J5SsyLSnh/4h6QB3nx0uFQBsGIUG9YBxUy+4+02STpT0kigzACJBoUE9YNy0HmbW1PWYu/9O0njKDIBYUGhQ0xg3rZ+Z5SXdZmaDu37M3VcGiAQAfcK2bdQ6xk3r8P3vf/9MSV9LH95iZp+hxACIFSs0qHWMm7owM7vllls2XbBgwdfKDn9K0g9CZQKA/qLQoGYxblqnXR577LFNuhx7WdK0EGEAIAtWKBSiW4p39zHp9TLuDZ0lI5tI+oSkO0MHycLcuXMP6+jo2KSxsfHtsWPH3h8qx4wZM7a944479jzuuOMe/NjHPvZ6P7/cZyTdJakmRjLPP//8kdddd92gYrGYGzZs2PJTTjnlgbFjxy4LnasfDnD3v5vZ/NBB+mrZsmVNs2fPHjVz5szNOjo63rN8+fKVRx555EObb7758tDZMvAhd19uZs+HDpIFdx8vaZCZPRk6SxbcfQdJm5vZI6Gz9EdjqVS6K3SI3jKzce6+g7tHl707Zralu++p5Adm9Eql0r6SNnH3BSF/fz388MNfb2hoeHf8+PG/KJVK7Rv+jHUzs2Pc/V4l46vo7bzzzvsfccQRd917772HTZw48bItttjizVKpFDpWf3zIzP6nVCo9EzpIT8yePXvTmTNnbjd//vxtFyxYsN2SJUu2W7ly5ZjOj48ZM2bFSSed9PsxY8bcG/mvS6dNJb3l7r8PHSQLZtYgaViMPz/XYX8z2yX292PuHjpDr+Xz+f1zudylLS0te4TOkoVp06aNK5VK97W2tm4dOksWmpubn5M0TtKM6dOn7xsiQzpuekPJvZu+1N+vVygUVrj7dm1tbW/2P11lmZlJGlw+dps6deqLxWLx2ClTpvzd3TsCxstEoVB4UNL5ra2tVXWuVLolfldJu0naPf3nQ5JGlj3NJVnZ41mTJk2aOXr06N+0tLRcV7GwAyifz18uaU5bW1tNjDULhcK5Zja6paXl7NBZspDP50+VdGBbW9sJobP0B7ucUKvY3aR/lpkfSNrDzD7l7musMNVCmakWZjZc0geVFJj3S9oj/WdI2dNKWvvcxfIyc5ekiaNGjbp+AKMCNYlCg1pV97ub0jLzQ0n/nh66Ky01SwPGqglmtp1Wr7jspmTVZYcuT+uuvKxvI8YvJJ3i7h2FAvcCBXqLQoOaU7a76ZZ63d2UlpkfSWouO7yvpMslnRQkVA0wswmSLpJ0pDa8S7Qnu0g7x03fl/QfHuM5AECVYNs2ahHjpmS1oOu+aBbMAAAXPElEQVS5Qy9JOjdAlprh7n9z92MkbafkruR/UbISo7J/91Tn81vc/duUGaB/KDSoRXU/bnL3FyUdJOmd9NArkg5y95fDpaod7v6au//I3feTtK2kb0iaoZ6Xm5KS1ZlT3L0mTpQFQqPQoKZwMb3V3P0xSYdIekLSJ939pcCRapK7v+7uP3b3T0h6j6SfSlrf772SpHZJn3X3ayqREagHnEODWlOX46b0nJmNu9nF9JiZfZhxxsAys5ykT0u6UMmJwgskDe3mqS5pmaSj3P2ByiUEah8rNKg1dTduKjsB+P+Z2aZdP06ZGThmljOzoyQ9Jul2SaMlnaVkVazr/3eX9Jak/SkzQPYoNKgZ9Thu6rKbaXdJ93ZXapCt9RSZnSVdL2l/rXl9GZf0D0n7uPvjFY4L1AUKDWpJXY2b0jLzn1pza/bukq4Mk6j2lRWZv6pLkXH3H7r7SiX3/Wro8qnPSvq4u79Q0cBAHaHQoJbU27hpa0nHdTk2W1JNXI69mqRF5nOSnlZSZEZp7SLTaaLWHDf9RcnKzGsVCwzUIQoNakI9jpvc/VVJn5Q0Nz30sqSD3f0fwULVmC5F5kYlK4DrKjIyszFKtst3jpv+W9Kh7r6wgrGBukShQa04WnU0burk7s9JOlTSQ5L2c/c5YRPVht4WmTLl46ZfSTrO3VcMeGAAFBrUjJofN1miu11MT7v7x1mZ6b9+FJlOE9N/f1/SSe7ePnBpAZSj0CB66bjpMNXwuCk9AXi6pIfMbOvQeWpNBkWmc9x0gKQLuJUBUHkUGtSCmh43lZWZMyS9T9L9lJpsZFFkyhwt6evufn72SQFsCFcKRi2o2XFTWmaulHRq2eH3Kbm8/qeDhKoB6ZV9PyvpAknjldzr6ixJV/SyxJT7vbvP3fDTAAwEVmgQtToYN22m5H5M5WZJOj1AluhlvCKzBsoMEBaFBrGr6XGTu7+h5KqzL6aHXlByo8lXw6WKz0AWGQDVgUKD2NXsuKmTu78i6WBJ90o6gAu09VxZkXlGFBmgpnEODaJVNm66pVbGTem5HVu6++vlx939Ja09esI6lJ0jc6GkXZTNOTIAqhgrNIhZTY2bynYzPWZm40PniVE3KzJDxYoMUBcoNIhZzYyb0jJzuaR/k7SlpPsoNT3n7vrNb37zCVFkgLrFyAlRqqVxUzoe+Zmkr5Ud3lLJas1BQUJFonO0NGrUqN3feeedvcVoCahbrNAgVrU0bhohaa8ux56X9KUAWaLQdbTU3t6e22mnna4QKzJA3aLQIFY1M25y93eUXDL/6fTQTEkHdj0xGOs+R2bSpElPnHLKKbdQZID6RaFBdGrxYnrp9WYOlnSbkuvMUGbKbOhk36amplLQgACCo9AgRlGPm9Ifzjt0Pe7u8939WK44uxq7lgD0FIUGMYp23JSexHqNpL+a2UdC56lWFBkAvUWhQVRiHjeVlZkvSxop6R5KzZooMgD6ikKD2EQ5bkrLzM+VlJlOIyVdFiZRdemmyGwkigyAXqDQIDaxjpuGSRrX5dizSt5P3VpPkRlHkQHQGxQaRCPmcZO7L1GS/ZH00POSDnb3eeFShUORAZA1Cg1iEuW4qZO7L5J0uKRfqU63ZlNkAAwUCg1iEs24ycwazGzXrsfdfaG7f6neVmYoMgAGGoUGUYhp3GRmDUp2Mz1qZgeEzhMSRQZApVBoEIsoxk1pmfm5pJOUbDn+bzP7ZNBQAVBkAFQahQaxqPpxU1pmfqE1byo5VFLBzCxMqsqiyAAIhUKDqmdmw5SMm26t8nFTk6TNuxx7RtIx7u4B8lQMRQZAaBQaxOAoRTBuSsvWMZLuTQ89J+kQd58fLtXAosgAqBYUGsSgc9x0T+ggG+LuK5Sc7/MTSfvX6o0mKTIAqg2FBlWtmsdN6dbsj3Y97u4r3P0Md38jRK6BRJEBUK0oNKh2VTluSk8AvlbSX8zs6MBxBhxFBkC1o9Cg2lXduKmszPyLpEGSflurpYYiAyAWFBpUrWocN5lZo6TrlZSZToMknZveUbsmUGQAxKZmvgGjJlXjuMklFbsce1bSUe5eCpAnUxQZALGi0KCaVd24yd2LSq4CfEN66ClJn4j93kwUGQCxawwdAOhO2bjp5moZN3Vy96KZfUXSPyRd4u5vBY7UZ+mY7LOSLpS0i6SXlRSZKygxAGLCCg2qVVWMm8yssbt7Mbl7u7u3xlpmSqWSrrnmmkPFigyAGmEXX3zx5aFD9Ja7b5XL5T7u7r8LnSULZjZS0tHufl3oLFmYN2/eCcVicWRDQ8O8Lbfc8pa+fI2f/OQnh82dO3fbc8455+eDBg3qes5KRZRKJbv66qsPmjNnznsnTpzoe+yxxy9KpVJVrRb1VqlUshkzZuz46KOPHvzWW2/lhg0btmT33Xd/6pBDDnkm1P/nLJjZZyQ96u6vhs6SkcPN7CV3fz50kCyY2SckLXb3J0JnycgeZjbE3WeEDpIFMxsvaRt3r5rxfl80SpoTOkRvpcvkqxRh9u6Y2WbpuRlzQmfJSHv673fVh/e0ZMmSQa+//vo2W2211d8GDRo0O9NkPdTR0ZG78sorj3/ttdfeJ0k33XSTvfHGG6MOO+ywh0Lk6S93t3vuuWfCo48+euiyZcs2GzFiRGmvvfZ64JBDDrl7o4026gidLwMrJc1XjfwZMrNlkt5UjbwfSbtLekc18n7MbCclN56dEzhKVjaXNEqRvx+L8Z55+Xx+/1wud2lLS8seobNkYdq0aeNKpdJ9ra2tW4fOkoXm5ubnJI2TNGP69On79vbzzewLkn6tZNXqjqzz9eD1G9PXn1h+PJfLPVkqlfZIy2cU1nGOzGUXXXTRWWZ2zOTJk58KGjAjhULhQUnnt7a2Vu3d2HujUCjcbGa3trS01MSqbT6fv1zSnLa2tmmhs2ShUCica2ajW1pazg6dJQv5fP5USQe2tbWdEDpLf3AODapR6N1NRUlr3LZg7Nixpf333//4WMrMhnYtNTY2xvc3GQBYD3Y5oapUw+4md3cza04fniHpiZNPPnn80KFDF4TI0xvsWgJQryg0qDZVsbspLTX/Luk1SVcMGzbstWoez1JkANQ7Rk6oNhUfN5lZk5kd2fW4u5fc/WJ3r9qVGS6IBwAJCg2qRoh7N5lZk6TfSLrDzFoq8ZpZoMgAwJooNKgmFR03lZWZz6SH8mb2jUq8dl9RZACgexQaVJOKjZvSrdk3anWZkSSTdJKZDRro1+8tigwArB+FBlWh0uMmd++Q9HSXw49LOszdVw306/cURQYAeoZCg2pR8d1N7n6upIvSh49LOsTd367U668PRQYAeodt26gWQS6m5+7nmtl8Sde7+zuVfO3usP0aAPqGFRoEV4lxk5kNMrMTu/uYu08PXWZYkQGA/qHQoBoM6LgpPcn3N5KuN7OpA/EafUWRAYBsUGhQDT4nabEGYNyUlpkbJR2bHppUDaWGIgMA2aLQIKh03HS4pNuyHjel56P8TtIxXT50gJkNyfK1eooiAwADg0KD0I6SNFQDMG5y95Kk+7sc/qukwyt940uKDAAMLAoNQhuwcZMkuftlkr6ZPvyrkq3ZFbs3E0UGACqDbdsIpmzcdNNArpi4+2Vm9pakO9x94UC9Tjm2XwNAZbFCg5AyHTeZ2WAzO93MrOvH3P2XlSgzrMgAQBgUGoSU2bipbDfTFZKu7K7UDCSKDACERaFBEFnubkrLzG8lHZ0eOlUVKjVlRebvosgAQDAUGoSSybgpLS2/0+oy02mCknIxILopMkNEkQGAYCg0CCWTcZO7u6SbJZXKDj8m6Qh3X96fr90digwAVCcKDSou64vpufu1kk5WUmoeU7I1O9N7M7m7LrnkkqNFkQGAqsS2bYSQ+cX03P1aM3tH0v3uvjirr9u5/XrMmDGDFyxYcJXYfg0AVYkVGoTQ53GTmQ0xs2+b2Vpl3N1vy6rMdB0tdXR0aOONNz5HrMgAQFWi0KCizGxjSZ9SH8ZNZVuz/4+kG7orNRnk6/YcmW9961srJ0+e/FOKDABUJwoNKu1IJbuPejVuSsvMTUrGVVKyypNZqdnQyb6NjUxnAaCaUWhQaX0dN/1OSRkqt7WS4tFn7FoCgNpAoUHF9GfcpOQKwOXl4kFJn3L3pX3M0l2ROV3S+ygyABAfCg0qqU/jJkly97skHaek1HSWmV6fALyBIvNTd2/v7dcEAITHiQGopH5dTM/d7zKzIyQ96u5LevO5ZXe//q6kcUq2X58u6Rp37+hLHgBA9WCFBhXRm3GTmW1kZueb2Vrnx7j7fb0pM+tZkXlvuiJDmQGAGkChQaX0aNxkZoPT53xH0m3dlZqeoMgAQH2h0KBSNjhuSsvMTZI+nR46VL0sNRQZAKhPFBoMuF6Mm36j1WWm01D14FwvigwA1DcKDSqhp7ubLpFUvg17hpK7Zq9zazZFBgAgUWhQGT3a3eTuf5F0hJJSM0PJ1uxuTwCmyAAAyrFtGwOqbNz0u55cTM/d/2xmB0t6pruVGbZfAwC6wwoNBtpR6mbcZGZDzewSMxve9RPc/ZGuZYYVGQDA+lBoMNDWGjeZ2VBJt0n6lqQ/dFdqyp5LkQEAbBCFBgNm5cqVDZIOV9nuprTM3C7p4PRpe6ubUtNNkRksigwAYB0oNBgwM2fOHK21x03XSTqoy1NXSSpK6y0y76PIAADWhUKDAfPiiy9uqrV3N10k6e2yx39Rsq17BUUGANBXFBoMiPb2ds2dO3eUulxMz92fkHSIpAWS/qzkQnqfEkUGANAPbNvGgJgzZ46KxWJO3VxMz90fN7MDJH1Q0v8o2X49R2y/BgD0ESs0GBCzZs1SY2NjUdLRZrZZ5/Gyc2RulPRLsSIDAMgAhQaZa29vz73yyitqbGwsSTpF0gNmthXnyAAABgojJ2Tu+eef36Sjo0MdHR1N6aHxkl5UUmLmiNESACBj1tzcfFjoEL01bNiwCUOGDDn97bffbg6dJQtDhgzZZujQoVMXLFjwxdBZsnDNNdfcuXz58obyY2a2aptttrnqiCOOuLOpqakYKltfjRkz5vZFixZ9qb29fVHoLFnYdNNNr126dOkFK1eufCl0liyMHj36spUrV/5q2bJlj4XOkoWRI0eeVywWH1yyZMm9obNkYeTIkc3uPn/RokUbukFtFEaOHHmimW3yzjvvXBk6SxY23njjTzU2Nu62cOHCQugs/WFf//rXPXQI1I729nZdffXVKpVKck9+a40cOVITJ07U4MGDA6cDANQqRk7IVLFY1G677SZJeuaZZ7TpppvqyCOPVFNT0wY+EwCAvms0s4mhQ/TWkCFDdh06dOhXFixYMCl0liwMHjx4q2HDhp2/YMGC00Jn6a+NNtpIe++9948kbbXLLrvMHjRo0HmDBg1aGTpXf40aNerXixYtOr1UKi0OnSULo0ePvnzp0qVTV61a9XLoLFkYNWrUxStXrvzN8uXLnwydJQsjR478j2Kx+D9Llix5IHSWLAwfPvzUUqn05tKlS28NnSULw4cPn2hmGy9atOja0FmysPHGGx+cy+UmLF68+LLQWfrDOscCMcnn8/vncrlLW1pa9gidJQvTpk0bVyqV7mttbd06dJYsNDc3P6fk2jIzpk+fvm/oPFkoFAor3H27tra2N0NnycLUqVNfLBaLx06ePPmp0FmyUCgUHpR0fmtr692hs2ShUCjcbGa3trS0XBc6Sxby+fzlkua0tbVNC50lC4VC4VwzG93S0nJ26CxZyOfzp0o6sK2t7YTQWfqDbdsAACB6FBoAABA9Cg0AAIgehQYAAESPQgMAAKJHoQEAANGj0AAAgOhRaAAAQPQoNAAAIHoUGgAAED0KDQAAiB6FBgAARI9CAwAAokehAQAA0aPQAACA6FFoAABA9Cg0AAAgehQaAAAQPQoNAACIHoUGAABEj0IDAACiR6EBAADRo9AAAIDoUWgAAED0KDQAACB6FBoAABA9Cg0AAIgehQYAAESPQgMAAKJHoQEAANGj0AAAgOhRaAAAQPQoNAAAIHoUGgAAED0KDQAAiB6FBgAARI9CAwAAokehAQAA0aPQAACA6FFoAABA9Cg0AAAgehQaAAAQPQoNAACIHoUGAABEj0IDAACiR6EBAADRo9AAAIDoUWgAAED0LJ/PnxE6RG+5+/vM7LOSCqGzZGRzSWdJmhw6SBbmzp17XrFY3KKhoeHFsWPHfj90noz8wN3PMbOloYNk5EJ3v9LMXgsdJAtm9m13v1PSs6GzZOQ0SU9KeiR0kIwcb2YL3P2e0EEy8ikzG+buvwsdJAvuvo+knc3s56Gz9EejpL1Ch+gtM9si/c0UXfZ1GC5pkCL8tViHjSQpl8ttrNp5TzlJe0haGTpIRgZL+qCkbUMHyYK7byxpF0kjQmfJyChJO0my0EEysqWkWvp+sK1q6Hu2me0oaYwifz/m7qEz9Fo+n98/l8td2tLSskfoLFmYNm3auFKpdF9ra+vWobNkobm5+TlJ4yTNmD59+r6h82ShUCiscPft2tra3gydJQtTp059sVgsHjt58uSnQmfJQqFQeFDS+a2trXeHzpKFQqFws5nd2tLScl3oLFnI5/OXS5rT1tY2LXSWLBQKhXPNbHRLS8vZobNkIZ/PnyrpwLa2thNCZ+kPzqEBAADRo9AAAIDoUWgAAED0KDQAACB6FBoAABA9Cg0AAIgehQYAAESPQgMAAKJHoQEAANGj0AAAgOhRaAAAQPQoNAAAIHoUGgAAED0KDQAAiB6FBgAARI9CAwAAokehAQAA0aPQAACA6FFoAABA9Cg0AAAgehQaAAAQPQoNAACIHoUGAABEj0IDAACiR6EBAADRo9AAAIDoUWgAAED0KDQAACB6FBoAABA9Cg0AAIgehQYAAESPQgMAAKJHoQEAANGj0AAAgOhRaAAAQPQoNAAAIHoUGgAAED0KDQAAiB6FBgAARI9CAwAAokehAQAA0aPQAACA6FFoAABA9Cg0AAAgehQaAAAQPQoNAACIHoUGAABEj0IDAACiR6EBAADRs4svvnhi6BC9lcvldnX3L7t7S+gsGdlK0vmSTgucIxNz5879YalU2iqXyz03duzYc0PnyYKZ3VAqlf7VzBaHzpIFM/tPd58q6ZXQWTLyPUk3SnoydJAsmNm3JT3q7g+EzpKRU83sDXe/LXSQjHzWzDZx92tDB8nIwZI+IOkHoYP0R6OkU0KH6K1SqTTKzMYowuzdMbNhkoa6e028n1wuN6JUKimXy22pGvk1cvcGM/sXSatCZ8nIJmZ2nLsvDR0kI5tLOlzSR0MHycj2koZKel/gHFkZ7+7bS9osdJAsmNlOkppUI9/fzGwbdx+tyN+PuXvoDL2Wz+f3z+Vyl7a0tOwROksWpk2bNq5UKt3X2tq6degsWWhubn5O0jhJM6ZPn75v6DxZKBQKK9x9u7a2tjdDZ8nC1KlTXywWi8dOnjz5qdBZslAoFB6UdH5ra+vdobNkoVAo3Gxmt7a0tFwXOksW8vn85ZLmtLW1TQudJQuFQuFcMxvd0tJydugsWcjn86dKOrCtre2E0Fn6g3NoAABA9Cg0AAAgehQaAAAQPQoNAACIHoUGAABEj0IDAACiR6EBAADRo9AAAIDoUWgAAED0KDQAACB6FBoAABA9Cg0AAIgehQYAAESPQgMAAKJHoQEAANGj0AAAgOhRaAAAQPQoNAAAIHoUGgAAED0KDQAAiB6FBgAARI9CAwAAokehAQAA0aPQAACA6FFoAABA9Cg0AAAgehQaAAAQPQoNAACIHoUGAABEj0IDAACiR6EBAADRo9AAAIDoUWgAAED0KDQAACB6FBoAABA9Cg0AAIgehQYAAESPQgMAAKJHoQEAANGj0AAAgOhRaAAAQPQoNAAAIHoUGgAAED0KDQAAiB6FBgAARI9CAwAAokehAQAA0aPQAACA6FFoAABA9P4/7ndvU7PStigAAAAASUVORK5CYII=;" vertex="1" parent="1">
          <mxGeometry x="720" y="14.98" width="514" height="411.02" as="geometry" />
        </mxCell>
        <mxCell id="QVBjA24aKZEz9xPjlTkT-4" value="\(V\)" style="text;html=1;strokeColor=none;fillColor=none;align=center;verticalAlign=middle;whiteSpace=wrap;rounded=0;fontSize=22;" vertex="1" parent="1">
          <mxGeometry x="1030" y="165" width="60" height="30" as="geometry" />
        </mxCell>
        <mxCell id="QVBjA24aKZEz9xPjlTkT-5" value="\(U\)" style="text;html=1;strokeColor=none;fillColor=none;align=center;verticalAlign=middle;whiteSpace=wrap;rounded=0;fontSize=22;" vertex="1" parent="1">
          <mxGeometry x="870" y="110" width="60" height="30" as="geometry" />
        </mxCell>
        <mxCell id="QVBjA24aKZEz9xPjlTkT-6" value="\(U + V\)" style="text;html=1;strokeColor=none;fillColor=none;align=center;verticalAlign=middle;whiteSpace=wrap;rounded=0;fontSize=22;" vertex="1" parent="1">
          <mxGeometry x="1110" y="22" width="60" height="30" as="geometry" />
        </mxCell>
        <mxCell id="QVBjA24aKZEz9xPjlTkT-9" value="\(V\)" style="text;html=1;strokeColor=none;fillColor=none;align=center;verticalAlign=middle;whiteSpace=wrap;rounded=0;fontSize=22;" vertex="1" parent="1">
          <mxGeometry x="1771" y="27" width="60" height="30" as="geometry" />
        </mxCell>
        <mxCell id="QVBjA24aKZEz9xPjlTkT-10" value="\(a\)" style="text;html=1;strokeColor=none;fillColor=none;align=center;verticalAlign=middle;whiteSpace=wrap;rounded=0;fontSize=25;" vertex="1" parent="1">
          <mxGeometry x="1754" y="283" width="60" height="30" as="geometry" />
        </mxCell>
        <mxCell id="QVBjA24aKZEz9xPjlTkT-11" value="\(b\)" style="text;html=1;strokeColor=none;fillColor=none;align=center;verticalAlign=middle;whiteSpace=wrap;rounded=0;fontSize=25;" vertex="1" parent="1">
          <mxGeometry x="1499" y="34" width="60" height="30" as="geometry" />
        </mxCell>
        <mxCell id="QVBjA24aKZEz9xPjlTkT-12" value="" style="endArrow=none;dashed=1;html=1;rounded=0;" edge="1" parent="1">
          <mxGeometry width="50" height="50" relative="1" as="geometry">
            <mxPoint x="1548" y="54" as="sourcePoint" />
            <mxPoint x="1778" y="54" as="targetPoint" />
          </mxGeometry>
        </mxCell>
        <mxCell id="QVBjA24aKZEz9xPjlTkT-13" value="" style="endArrow=none;dashed=1;html=1;rounded=0;" edge="1" parent="1">
          <mxGeometry width="50" height="50" relative="1" as="geometry">
            <mxPoint x="1778" y="288" as="sourcePoint" />
            <mxPoint x="1778" y="56" as="targetPoint" />
          </mxGeometry>
        </mxCell>
        <mxCell id="QVBjA24aKZEz9xPjlTkT-14" value="\(\hat j\)" style="text;html=1;strokeColor=none;fillColor=none;align=center;verticalAlign=middle;whiteSpace=wrap;rounded=0;fontSize=25;" vertex="1" parent="1">
          <mxGeometry x="1501" y="224" width="60" height="30" as="geometry" />
        </mxCell>
        <mxCell id="QVBjA24aKZEz9xPjlTkT-15" value="\(\hat i\)" style="text;html=1;strokeColor=none;fillColor=none;align=center;verticalAlign=middle;whiteSpace=wrap;rounded=0;fontSize=25;" vertex="1" parent="1">
          <mxGeometry x="1561" y="294" width="60" height="30" as="geometry" />
        </mxCell>
        <mxCell id="QVBjA24aKZEz9xPjlTkT-17" value="\(\hat u\)" style="text;html=1;strokeColor=none;fillColor=none;align=center;verticalAlign=middle;whiteSpace=wrap;rounded=0;fontSize=25;" vertex="1" parent="1">
          <mxGeometry x="1547" y="122" width="60" height="30" as="geometry" />
        </mxCell>
        <mxCell id="QVBjA24aKZEz9xPjlTkT-18" value="\(\hat v\)" style="text;html=1;strokeColor=none;fillColor=none;align=center;verticalAlign=middle;whiteSpace=wrap;rounded=0;fontSize=25;" vertex="1" parent="1">
          <mxGeometry x="1706" y="194" width="60" height="30" as="geometry" />
        </mxCell>
        <mxCell id="QVBjA24aKZEz9xPjlTkT-19" value="" style="shape=image;verticalLabelPosition=bottom;labelBackgroundColor=default;verticalAlign=top;aspect=fixed;imageAspect=0;image=data:image/png,iVBORw0KGgoAAAANSUhEUgAAAjcAAAHFCAYAAAAOmtghAAAACXBIWXMAAEzlAABM5QF1zvCVAAAAGXRFWHRTb2Z0d2FyZQB3d3cuaW5rc2NhcGUub3Jnm+48GgAAIABJREFUeJzs3XmcVXX9P/DX+84Mw4AKKIsgu7Io5pK7Ihni1wWXUoZK/eLya6HSLCnmqqiomKfvlyyTLPObkWUmuWQaLrmUJpJLKqICooSEJKKILDLMcN+/P845cBjvnbnLOfdzPue8no9HjxG4986bgDuv+bzO53NEVWEbx3HGAZiRzWYPr8bnE5EvArgDwKmqen/Yr+84zoEA5mSz2WFhv7YJF1544X9UtQ+AubNmzRpvep5KzZw5s2tra+uGbDabAVDyPxgREQAnA5gO4NMA3gXwIwA3qOrmMGdt83mfAjAIwCBt8w/dcZzNdXV1/adMmbImqs9fTY7jrMxkMmOnTp262PQsYXAcZ4GITG5qappnepYwOI7zhIhc39TU1O77p4jsD+AlAFlV/UF1piud4zh3AXggm83OLuf5IjIEQBbA+XDfU34P4GpVXRrakCVwHOdmAEuy2ewPTXz+KNSaHsASjQDWA/iL6UHIHgVCTRYRhxrvc/cFcCSAH7cNNkQx1uh9vMvoFBHJE2rugMFQk2QMNx0Qka4AjgdwT9RfkCgZTIaagEYAGQB/qNLnIwrDGQBeUNU3TQ8SJoaa6mO46dgpALqCXySoA+2Emp+o6sdVHqcRwAoA/6jy5yUqi1dJjYT7byYRGGrMYbjpGCspalfMQg0rKbJVYiophhrzGG7aISJdwEqKCsgTalbDYKgJYCVFNrK+kmKoiQ+Gm/adClZS1EaMQ42vEcC/wUqKLCEi+8HiSoqhJn4ypgeIOVZStM1VV10lInIKgOcB/AlAf7hvaINV9QdxCDYisjvcSmoOKymyiF9J3W10ihKJyBARuRnAEgDnwQ01+6jqJAYbs7hyU0CgkrqXlVS6bdy4Ud566y3cdtttzwI4CPFbqQmaCFZSZJ8JcCspKwLBqlWrut59993nALgFXKmJJYabwlhJpZxfP4nIVd4iyADEN9T4WEmRVWyqpPz6SUSOB5AD8Dsw1MQSa6nC/ErqEdODUHWJ6xQAz8Grn0444QT069dvSFzqp3xYSZGlYl9Jta2f9tprrxWTJk26lPVTfDHc5BGopO5jJZUeeULNAADZk08+eZ/PfOYzWLlyZSxDTQArKbJRbCupQtfUnH/++c+NHDlytdnpqD0MN/nx4L4UKRRq4F0oPGbMmLiHGh8rKbJKoJKK1XstLxS2H6+5yY+VVAoEtnRfifhfKNyuQCV1AyspskisKqkCW7qvUdU3jA5GJWO4acOrpE4Ad0klVpJCTQAP7iMb+Qf3GV0NYahJHoabT2IllVAJDTU+v5Kab3oQomJ4ldTeMLhLiqEmuRhuPomVVMIkPNT4ldRRYCVFdjFWSTHUJB/DTQArqWRJeqgJYCVFNqp6JcVQkx4MNztiJZUAKQo1PlZSZJVqV1IMNenDcLMjVlIWS2GoYSVFtqpKJcVQk14MNx5WUvZKY6gJYCVFNjoDwD+jqqQYaojhZjtWUhYSkXEAHKQv1PhYSZFVApXUJRG89mDvdRlqUo7hZjtWUhbxQs11AA5GOkNN8OC+n7CSIov4ldRdYb0gQw21xXADVlI2YajZQSOAGnC1kewSWiXFUEOFMNy4WEnFHENNXqykyCphVVIMNdQRhhsXK6mYYqjJj5UUWaqiSqpNqMnA3W11GUMNtZX6cMNKKp4YajrESopsVFYlxVBDpcqYHiAGWEnFiIiME5HnAPwFwEC4oWawqv6AwWYHrKTIKvPnzx8Et5Iq+r1WRAaLyM0A3gDwZQD3AhipqhMZbKg9qV+5ASupWOBKTfFYSZGN/vnPf472/rPDSoorNVSpVIebQCX1R1ZSZjDUlIWVFFln9erVR6KDSoqhhsKS6nADVlLGMNRUhJUUWeXtt9/uunnz5gEAbsr36ww1FLa0hxu/knrY9CBpwVBTGVZSZKOXXnqpt/efO1RSBULNNFVdUs35KHlSG25YSVUXQ01oWEmRdRYtWtSroaHhzU2bNi0FGGooeqkNN3BvtMhKKmJtQs17YKipFCspsoqIfApAlz333PNphhqqljSHmwlgJRWZZcuWYd68eaMBnARgFYBvA/gFQ035RKQvgKMA3MhKiiwyAQDefffdA+Fu6QaA3wKYoapvGpuKEk2uu+661aaHKEMnEemiqh+W8+QtW7bIjBkzdhs5cuSWM88886OwhytDLYBdAHxgepBKLVy4sNMjjzzS7b333kPXrl11zJgxG4844ojNdXV1tn8x7gV35cmYp59+uuGBBx7Y6Stf+cqHQ4cObanw5XrC/fuWC2G0ONhNVT8Uka2mBwlJDxHZoKqV/jkbtWbNmppbb72129q1a2symQz233//zWPHjt3Us2dP2/+cdgGwBUBSLmnYGUArAJu/+Xwhm82e6P+gFsDhBocpi6oeJSIXwz3tsmS33HLLSS0tLTeuW7fuIriHxRmlqvuIyI0AjjU9SzlaW1vllltuOXbVqlXfamlpGdWlS5fc6NGjM6NGjXpq8ODB55mer1Ii0qCqC2H438rDDz/8u0wmM2iPPfY4GhWGElV9vVOnTse3tLSsDWk80+ap6lkissz0ICGZKyLTVPWfpgcpx8MPPzzw2WefvWDTpk2fA1AzZMiQtcccc8z/Dh8+/E7Ts4XkpwAeh1urJcEMVV0mIr80PUi5tm7d2hz8sdi4uu04zjgAM7LZbFlfbERkDtyLiXvH4WJix3EOBDAnm80OMz1LKURE4G6nvxLAp+HWT/8zefLkS2pqanoDmDtr1qzxJmcMw8yZM7u2trZuyGazGbg36as6r5L6N9xK6tuVvp7jOJvr6ur6T5kyZU3l05nnOM7KTCYzdurUqYtNzxIGx3EWiMjkpqameaZnKYWI7AlgGoCzvZ/6AEDviy666B99+/a9tqmp6X5z04XHcZy7ADyQzWZnm54lDI7j3AxgSTab/aHpWcKSutsveLukTgLwpzgEG1t5Fwr/A8B9AAbAvVB4L1X9cW1trX2JOf7OgPvvdY7pQYjaCtwmYRGASXBvkzAKwPsA/rn77rvbXHeQhVIXbsBdUhXx7v30LNw6bzB2vPfTJqPDJZu/S+oZ04MQ+Qrc+2lvVZ0IoB4l3kuKKCxpDDe8l1QZGGrM8Q7uOwrAXdwlRXHQXqgJbOtu9D52eC8porClKtx4ldSJcCspLpMWgaEmFiaAB/dRDBQZanwTALzY3r2kiKKSqnADVlJFY6iJFR7cR0aJyKASQo1/cB8rKTImbYf4sZLqgHeh8PcBHILtJwrfyEBjRqCSulFVk3ImDVlCRAYBuBSlnyjsV1IMN2REasJNoJL6IyupT2KoiS1WUlR1FYQaHyspMipNtRQrqTxYP8UeKymqmkD9tBRF1E8FXoOVFBmXmpUbsJLaAVdq4o+VFFVLCCs1QaykyLhUhBtWUtsx1FiFlRRFygs1FwP4GoA6hHOXblZSZFwqwg1YSTHU2KkRwEqwkqKQFQg1l6tqRbevEJF94VZSl1Y8JFEF0hJuUltJMdTYiZUURSGqUBPAg/soFhIfbgKV1H1pqqQYaqzHSopCU4VQ42uEW0m9EfLrEpUk8eEGKaukGGoSg5UUVayKoYaVFMVKGsKNX0k9bHqQKDHUJAcrKapUNUNNACspio1Eh5s0VFJeqLkWwKFgqEkKVlJUFkOhxsdKimIj0eEGwHgktJJiqEk0VlJUEsOhhpUUxU7Sw03iKimGmmQLVFKzWElRR0yHmgBWUhQriQ03XiV1EhJSSTHUpMYZYCVFHYhRqPH5B/exkqJYSGy4QUIqqTahZg0YapLOr6SeMT0IxU8MQ41fSe0DVlIUI0kON1ZXUgw16eNVUqPBSoraiGOoCWAlRbGTyHBjcyWVJ9RcBeB6Vf3I6GBUDaykaAcxDzU+VlIUO4kMN7Cwklq0aFEXEfkHGGrSjJUUAQDef//9utmzZ38bwKmIb6hhJUWxldRw0whgAyyopERkXH19/Y+am5v7AegEhppUYiVFwPaVmpqamhFbt24djpiGmgC/krrH6BREbWRMDxC2QCX1pzhXUiIyzlup+UtLS0v/MWPGfABgT1WdzmCTSqykUkxEBonIDQAWA7hgr732+mj8+PFnqerEGAcbwK2kXor5jJRCiQs3iHklFQw1AIYCuGry5MmnnHjiiR8w1KQaK6kUEpGBwVAD4E8A9jn33HPfPvroo982O137ApVULN9rKd2SGG5iWUnlCzXwVmoGDBiw0ex0ZJKI9IFbSd3FSiodAqFmCQKhxoKVmiC/krrb6BREeSTqmps4VlIiMh7AlXBvaLkawHcB/FxVGWjI51dS3EqbcCIyGMBlAM6B+83lHQBmWBRogiYAeNnS2SnhEhVusL2SmmN6EG7pphJMBLAKwDzTg1A0RGQggCnYcUv3Faq6yOhgZQpUUpeZnoUon6SFG+OVlBdqZgA4DAw11AHukkq2pIWaAFZSFGuJCTemKymGGioTd0klUIJDjY+7pCjWEhNuYGiXFEMNVagRbiXFXVIJkIJQAxEZBVZSFHNJCjd+JfVQNT4ZQw1VKrBLipWU5dIQagJ4cB/FXiLCTTUrKYYaCtEEsJKyWspCja8RbiWV5N8jWS4R4QZVqKQYaigCrKQsldJQw0qKrJGUcBNZJcVQQ1FgJWWntIaaAFZSZAXrw01UlRRDDUWMlZRFAqHmq3BvcJu2UONjJUVWsD7cwA02oVVSDDVUJaykLMBQsx0rKbJJEsJNKJUUQw1VS6CS+ikrqXhiqMmLlRRZw+pw41VS41FBJcVQQwbw4L6YYqhpFyspsobV4QYVVFIMNWSQX0nxXlIxwVDTPlZSZBvbw03JlRRDDZnkVVJHg5VULDDUFI2VFFnF2nCzZcuWDEqopERkNNxQ8xkw1JA5rKRigKGmZKykyCrWhpsFCxZ0RxGVFEMNxQwrKYMYakrHSopsZG24Wbhw4a5op5ISkRMAXAngcADvAWgCcJOqbqjakEQBgUrqJlZS1SUigwBcAuA8uO97vwdwDUNNUSZ4H+8yOgVRkUSkxspw8+GHH9a/9dZb3QHMaVtJcaWGYsyvpOaYHiQtCqzUXKmqrxsdzC4TAbysqktMD0JUpDFWhpuHHnrosJaWlh2uW/BCzTUAjgFDDcUTK6kqEZEBAL4LhpqKiMhIuJXUNNOzEJWg0cpws3z58jF1dXVbW1paHmoTat4HQw3FEHdJVUeeUDMXwDRVfdnoYPb6ovfxbqNTEBVJRDIAPmdduBGRLplM5tBu3bq1rF279nG419SsAZCF+4WD19RQHJ0Ot5LidQsRWLt2bc1NN910FYDPw72m5k6419RwpaYyEwAs4LVJZJExAPqK4zgvmp6kFE888UTPhx9+uD8ANDQ0tB5xxBGrx4wZs6Zz5842fzfcAGAwgES8Ea9cuXLfXC5XW19f/1Hv3r3fMj1PpVQ1A2A/EXmp3Nf46U9/utcHH3xQf9lll72ayWRCnK48qro/gIUistX0LJVYs2ZNp8cee6z3ggULeuZyOYwcOXLtuHHj3t1jjz02m56tEqo6EsAKEdloaoaVK1d2vvHGG0d+5jOfWXXiiSe+W8lrqepeIrIaQFJW1Aer6kci8oHpQcKgqgMANHt/RlZS1VcuueSSLwP4NYAv1uZyuW+ZHqoYd99996GvvvrqeZs3b+6fyWRajjnmmLWjRo367759+34MALmcvdlGRIap6tUArPiz6Iiq/hHAri0tLa/lcrmppuepVE1NTedcLvcIgItyuZyW+vzFixf3WLFixb29evW6F8ANcfi7KiKPquqlqrrO9CzlePHFF/s8/vjjZ3/wwQcnqWrNvvvu2zxq1KjL999///mA3e8Hnl9lMpkf5XK5haYGuPvuu88DMHLnnXf+Xi6Xe7uS1xKRG3K53BwAT4cznVkicg2Aeblc7kHTs4RBRL6rqitU9U7Ts5Tjo48+qrv99tvHAngDwEAA/xLVkt+rq0pEjoe7pfsIuFu/d+revfsTTU1NXbLZ7OFmpwuH4zgHApiTzWaHmZ4lDBdeeOF/VLUPgLmzZs0ab3qeSs2cObNra2vrhmw2mwFQ8j8YEfk6gJsAjFHVp0IfsAyO42yuq6vrP2XKlDWmZymFt/vpEgDnI1A/XXfddY9mMpmxU6dOXWx0wJA4jrNARCY3NTUZu/hcRBYC2Oqt8lXEcZwnROT6pqam+0MYzTjHce4C8EA2m51tepYwOI5zM4Al2Wz2h6ZnKYWIdIL7XnAJ3FCzHsDOAL5mfn28ABEZLSJPwD3HZjjcC4UvAoDBgwc/aXI2ohJNBPAfJOS7VhNEZICI3ABgMdyLhR8BcJCqnsnrasLn7ZIaBR5bQDEkInUiMgnAawB+Bnfh4xwAvwPQCuCPsQs3gVDzFIBPwQ01e6rqdADHA9hw/PHHP2dwRKKiBXZJzeEuqdIFQs0SABcAeBRuqDlFVcu+Boo6xF1SFDuBUPM63GtrmuGGmv0A/BbAqQCeUNXVsdktVWBL94/8awJEpAvcu4A/0L1792ZTcxKViPeSKkOBLd2XM9BUTSPcg/u4S4qME5E6AF8CcAWAPeGu2JwD4HZV3eo95hgAfeFexmL+9gsdhZqAkwDsBH6RILs0wq2keHBfERhqzOPBfRQXxYSagEa4ldR9AGCslmqvfiqwg6MRwEYUuJcUUdywkioe66dYYSVFRrVXP6nqbW2DjXdw3+fhVVKAgXDjhZrHUXyoCVZS96vqpupNS1QR/+A+rjYWwFATS6ykyIhSQ03AGLiV1Lb32qrVUl79dDWAz6L9+imfE8FKiuzDSqoA1k/xxEqKTCixfsqnEcBWeJUUUIVwU2Go8fmV1MPhT0gUPq+SGgPgJlZS2zHUxN4XvI+spChyIYSaYCX1uF9JARGGm5BCjV9JjYdbSRk7ipyoRKykAhhqrMFKiiIXRqgJ8CupK4M/GXq4CSvUBLCSIhv5lVSqD+5jqLFH4OA+VlIUiTyh5nWUH2p8n6ikgBDDTQShxsdKiqwiIr3g7pL6WVorqQKh5gpVtepGvSnDSooiEVGoKVhJASGEmwhDDSspstUEuP+2UrfayFBjNVZSFKqoQk1A3koKqCDcRBlqAlhJkY1SV0kx1NiNlRSFKRBqLgewF8IPNb68lRRQRrgRkePgpqSj4IaaSwHMUtX1FQ6ZzwS4N8TiwX1kBRHpDfe7iVRUUl6oyQL4fwDq4H4jco2qvmp0MCrVRO/jXUanIKt5d+k+F24uGAT3QuEvIYKDTPMd3BdUdLipcqiBiDQAOBnAn3lwH1kkFbukGGoSpxHAAlVdbHoQsk+eUPM6gDMB3BnhN3lHw62krsr3ix2GmyrVT/n495KaE/HnIQrTRCS4khKR/gC+B9ZPieFVUvvCrRCIilbF+imfiXArqXvz/WLBcGMw1PgaAWwCd0mRJdrskor6H3ZVeYcSfgfARQDqAfwZDDVJ4e+SYiVFRTEcajqspIA84SYGoSa4S+pP3CVFFkncLimGmlTwKynukqJ2mQ41Af4uqemFHrAt3MQh1ARwlxTZKDH3kmKoSYfALilWUlRQjEKNz98l9cdCD6gVkXFw049/ofBlAG6M6kLhIk2Ae3Afd0mRFdrskrK2kvKuqckC+DLcC4XvAnA1LxROLO6SooK8UHMu3AuFB6M6Fwp3NJNfSf21UCUFuCs3fwHwAdyVmh+r6ofVGTG/wC6pB7hLiixyBtxdUlZeAB9YqfkWgM7gSk1aTAQrKWojhis1Qf4uqentPagW7qFNPzG8UhPkV1L8ToJsMgHAKli2S6rASs01qrrQ6GAUORHZG24ldYXpWSgeCqzUnAXg9zE6t2sCgFYU2CXlq1XVa6szT9Emwt0l9aDpQYiK4e2Ssurgvg0bNsj1119/OYCvgCs1acVKigAALS0tmUceeeRguIfu7QXgLQBfA/DLGKzUbONVUmfAraTea++xod8VvBJeJcV7SZFtrNkl5V0bdHFdXV2nlpaWC8FQk2b+LqnXTQ9CZvj100477TRxw4YNuyCmoSagqEoKADKRj1Ia/+C+2H+RIAqI/S4pEektIg6AfwGYOnTo0Nyee+45TlVPYbBJHxEZAbeS4nttColInYhMgrtS82sAOOyww+4CMFxVfxHTYAMUsUvKF6uVG2w/uI+7pMgKcT+4z1+pwY4XCl957rnnzqurq1tgdDgy6Yvex7uNTkFVledC4bcAfC2bzR5cU1OzeP78+bF7D/N5ldTpaOfgvqDYrNyISGe4KzespMgmZyCGlVTblRoAjwE42Fup+afR4SgOWEmlSJ6Vmgzc+mm4qv6ipqZGjQ5YHL+SKuq9NjbhBm6w2Rkx+yJB1IFYVVIMNdQRVlLp0U6oGRHz+imfoispIF61FCspskpgl9TPTb9JFKqfGGgoD/9eUqykEqpQ/QTgVlVtNTlbOYq5l1RbsVi58Sop7pIi2xivpLhSQ2VgJZVQRazUWBdsPEcD6IcS3mtjEW7ASors5FdSVT+4j6GGyuFVUvuC77WJEgg1ryJZocZXUiUFxKeWYiVFVjFVSbF+ogqxkkqQQP00DcAwWF4/5VNOJQXEYOWGlRRZqqqVFFdqKCSspBIgz0pNDZK1UhNUciUFxCDcgJUU2akqlRRDDYWFlZT98oSaWiQ31PhKrqSAeNRSrKTIKtWopFg/UQRYSVkqT/20DAmrn/IJVFJ/LaWSAgyv3PDgPrJUZJUUV2ooQo0AXmElZY92VmqGJ3ilJqisSgowX0udBGAXcJmU7BJ6JcVQQ1FiJWUXhppt/Erq3lKfaLqWYiVFVgm7kmL9RFXiV1J3GZ2C2pXW+imfSiopwODKjYg0wN0l9QArKbLI6XC/Kajoi4SI9BORGwAsh7tSMxfAAVypoYhMALCQlVQ8eSs15wNYBHelJgfgvwEMS9lKTdBouJVUWe+1JmupE+HukppjcAaiUk2EW0n9vZwnB+qnpQAuBPAo3PppgqryLt0UOq+S+hT4Xhs7beqnXwIQuCs1+6rqb03f1sWwiXArqXvKebLJWoqVFFll55137okyKynWT2QQK6mYYf3UvkorKcDQyk1glxQrKbLGpk2bJqDEXVK8UJhigLukYoIXChfNr6TKvgDeVC3FXVJknVwuNwFF7pIqEGoOYaihauIuqXgQkYyINIKhplhl75Lymaql/ErqQUOfn6gkGzduBIqopArUT9NV9YVqzEnUBispg7x65QwA14L1U1G8/89ORwWVFGBg5YaVFNlo4cKFQDuVVAcrNQw2ZAorKQMCKzWL4F7IzZWa4lVcSQFmailWUmSdV155BchTSTHUUFyxkqo+hppQVFxJAWZqKVZSZJXf//73uy1btgwA7vIrKdZPZAFWUlXC+ikcYVVSQJVXblhJkY1ee+21z+VyOdTW1t7FlRqyCCupiAVWal4HV2rCEEolBVS/ljoBbiXF7yTIGps3bz6/pqYGra2tE7A91DwE4ECGGoqjQCXF99oI5HI5ufvuu0cDWILthyNOQrpPFA7DBIRQSQGAXHfddX+ufJ7i/OpXvzrgrbfe6jNt2rRH6+vryz55UVV7ZjKZ4ao6L8z5DNoFwKcB/NXwHKF45513js3lcvWdOnV6r3fv3s+ZnqcSy5Yt2+UXv/jFaP/HQ4YM+c9xxx23dMiQIR+ZnCsEJwB4HMAW04OE5FgA8wEkZUX4aAALAawt58n333//XvPmzRv+zW9+88n+/ftvCHe0shymqstEpKKqwbStW7fK008/vcf8+fNHrV27tqZbt24bR48evfTII498J5PJqOn5KrAv3H87y0wNkMvl5Nprr/1sjx49Nl5wwQX/KPX5IrKoqalpiv/jWgC3hTphAZs2bapbunTpZ3v06PFcfX39ryp5LRH5lKruiirNXgWDAeyFhPx+VPUoAPVbt279Nyz9PS1btqz73LlzT/v3v/99FAD069cPhx9+eNMhhxyy3PRsITkOwJ0A1pseJCRHqOofRWSV6UFCsm8mk3kwl8stKefJL7744v80NDSs6N+//01hD1amwZlM5nFbz3hqbm6uue+++0a/9tprpzc3N/fp1q3b5uOOO+5vo0eP/r9OnTrlTM9XKRH5iqq+A/faQSP+9re/jdy0adOJQ4cOvR3AX0p9vqq+H/yxqFYnbIrI5+AuNU1U1Yr6NMdxxgGYkc1mDw9lOMMcxzkQwJxsNjvM9CxhuPDCC/+jqn0AzJ01a9Z40/OUQkT6AmgC8FW4FwoLAJx33nm49dZbMwBs/u5sG8dxNtfV1fWfMmXKGtOzhMFxnJWZTGbs1KlTF5ueJQyO4ywQkclNTU0lr057ldQiuLf3uDr86UrnOM4TInJ9U1PT/aZnKYWI1AI4G+5tEvYE8AaAGddee+1pmUzm/mw2O9vkfGFxHOdmAEuy2ewPTc0gIj8B8A0A/Sq9mBio7jU3E+Hukppbxc9JVBQR6eVdKPwm3B1Qf0dgVaNz586mRiMq1UTvI7eAl6nNicK/gvu18msA9lHV2yyvoGInsNus4l1SvqqEG2+X1HhwlxTFTCDULEdg9xOAZrjXQgEAOnXqZGZAotJxl1SZ8ux+qgN3P1VDaLukfNVauTkRPLiPYiQQav4Ft4Z6Gt6WbgAHADg5+Pi6urqqz0hUKq+S+hT4XluSPKGmExhqqimUg/uCqnWIHw/uo1gQkV4ApgC4EEAXAI8CyPrbuUVkMIAfAcghEP7r6+urPSpROfxKilvAixCoQ2YAGA73mx0evldFgYP7/hZWJQVUYeWGlRTFQZ6VmnlwV2qOCwSbDIBbAeyMNv82WEuRJRoBLGQl1b52Vmp4Tk31hV5JAdWppVhJkTEdhJrn2zz8WwA+m+dltLbWxJ1KiIrHSqpjDDWx5FdS94T5otV4x2YlRVVXoH66JE+g8R8/EsB1aFNHebZkMhn2UhR33CVVAOuneIqqkgIiXrlhJUXVVuJKjf8c/zDLzsj/b2JTROMShYlSPG8iAAAgAElEQVSVVBtcqYm9SCopIPpaipUUVUU5oSbgUrjbvwu9NoM5xRorqR0x1FgjkkoKiL6WYiVFkSq1fsrz/APhnj6q8E4jziMO9+Yhag8rKbB+skmUlRQQ4cpNoJL6MyspCluFKzX+a9TDraNqUTjYKBhuKP5SXUlxpcZKRyGiSgqItpZiJUWhCyPUBMyAezfcQsEGADSTyfCaG4otERmOlFZSDDVWC/3gvqAoaym/kuK9pKhildZPeV7vSAAXo/06Ct6vceWR4uwL3sfUHNwXqJ+uATACrJ+sEvjz+5uqvhvF54hk5YaVFIUl5JUa/zV3AvBbuMGlvWAD79e5ckNx5ldSr5keJGqBlZrX4K7U1IMrNTaKtJICoqulWElRRaIINQH/C2AIdgw2LXBvlpnvbr8M6BRLaamkGGoSJ9JKCogu3LCSorJEHGogIsfBfVP0tQL4DdyVxnoAb6JNwOE1NxRjia6kGGqSpxqVFBBBuGElReWIOtR4n6MHgNlwV2xaAPwCwF6qOgnAJO9hs/DJowv495jiKpGVFENNokVeSQHRrNycAFZSVKQCoebQMENNwI0AesINNcNU9Wuqutz7tZPg3nrhZwCuajMjV24odpJYSTHUpELklRQQzW4pVlLUoQK7ny5V1eci+nzj4f6DGqWqS9v82nAAu8L9DngLgGdFZC7cwANw5YbiyT+4z/pKiruf0qHNwX2RVVJAyCs3XiV1MlhJUQEdrNREEmw8T6rqOW2Djedy7+MvAz+3bfWmpqaGKzcUR9ZXUlypSZ2jAOyBKqw2hl1LsZKivAyGGgCAqq5v55f9SuqmwOOfhbf6yHtLUdx4q437wdL3Woaa1KpKJQWEH25YSdEOTIeajgQqqde8SiroKoC7pSiWrKykGGrSq5qVFBDiNTespCho8+bNmDdvnt+dR35NTQXyVVIA3NUbEZkrIry3FMWNVZVULpeTe+655yi4Z0zxmpp08iupGdX4ZGFeUMxKiiAiPQ844ICdFi5ciNbW1j0R31Dj+0Ql1cYVnTp16lbFeYjaFaikrjQ9S0f8C4W7d+9+yIcffvgZAMvBUJNWjXDfa++rxicLs5ZiJZViItJTRKYDePOll17q2rdvX5x66qlPx6V+yqeDSgoAoKovHH/88S9WdzKidsW+kmpbP7W2tmZGjRr1U7jnSrF+Spk2ldSqanzOUFZuWEmll4j0BHABgO/AXbl7dMKECZ/u06fPrgDWGR2uYwUrqaADDzxwS2sr34spNhoBvBrHSirPlu7lAL7W1NR0Zl1d3cNNTU38h5ROfiV1bbU+YVgrN6ykUia4UgN3efxZeBcK77777i1GhyteR5UUUazEdZdUnguFO8Otn/ZS1V/U1tbmu2cbpYdfSf2xWp8wrGtuWEmlRL6VGsT7mpq88hzcR2QDv5KKRbgptFIDXlNDHhOVFBDCyg0rqXRob6XGtmDjKaqSIoqZWFRSBVZqvg1gBK+poTaqdnBfUBi1FCupBEtgqPGxkiKrxKGS6iDU3KCqzaZmo9iqeiUFhFNLsZJKoKTUT/mwkiJLGaukAvXT1QBGwq2fvg3g5ww0VIipSgqoMNyISD3cSmouK6lkSHKoCfArqVuNTkFUmqpXUgw1VKEjUeVdUr5Ka6kTwUoqERJcP+XjV1I/NT0IUTGqXUkF6qdX4dZPDWD9RKUzUkkBlddSfiX15xBmIQNSslKzDSspslRVKimu1FBYAn+Xql5JARWEG1ZSdktbqAlgJUU2irSSYqihCBirpIDKailWUhYqUD8dltD6KR/ukiKrRFlJsX6iCBmrpIDKailWUhYpsFJzmao+a3SwKmpTSfFNm2zR6H0MLdxwpYaiZLqSAsoMN6yk7MFQs4PLvI+spMgmoVVSDDVUJUYrKaD8WooH98VcB/VTGoMNAIwHKymyiLfauD8qfK9l/URVZrSSAsqvpXhwX0xxpSY/74vEbnC/A+YbOdmiokqKKzVUbXGopIAywo1XSZ0Ct5LaEP5IVA6Gmg75lRTvJUU2aQSwqNRKiqGGDDJeSQHlrdywkooRhpqisZIiq/z9738fALeSml7scxhqKAaMV1JAeeGGlVQMMNQUj5UU2ejFF18c6/1nh99IMtRQHIiIAPg8DFdSQInhhpWUeQw1ZWElRdZZs2bNWHRQSTHUUMwcBWAAgOtMD1Lqyg0rKUMYairiV1I/Mz0IUTFWrVpV39zcvBcKVFJ5Qs3bYKgh82JRSQGlhxtWUlXGUFOZNpXUZtPzEBXj5Zdf7ub95w7fSDLUUFwFKqknTVdSQAnn3LQ5uI+VVMR4Tk1oWEmRdV577bVunTp1Wu5XUnnOqekCN9QM5zk1FBN+JRWLZqeUlZsTAHRDTAZPKq7UhI6VFFnFW23svPvuuz8WWKm5CsDe4EoNxZdfSd1rehCgtHAzAcDHYCUVifXr19eIyA8AfAPATnD/f76KoaZ8IjIMrKTIPhO8jzUAFsINNf8C8FUAs1W1xdBcRHl5Ifx0AE/FoZICAHEc5xcdPWjLli0111xzzdn9+vVb+fWvf/3RagzWHlXdA8DBInKf6Vkq9cEHH3R+7LHHDnvllVeGbdmyRfbYY48V48aNe2Hvvfd+z/Rs5Vq5cuXZuVyuoVOnTiv69OnzkKk5brnllmPefPPNYUceeeT8U0899ZUKXqpWVc8TkVtCG84wVT0fwO0ikojv/lX1LBF5AMA607OUa8uWLTVvvPHGbn/4wx+O27x5cxcA6NKly4bDDz/8xc9+9rNL6urqcqZnLJeqniwiC+CuPCXBOFV9W0SWmB4kDKp6NIB13p9RyV555ZU+t99++6ljxox5+qSTTqr4Hmhlequpqcnxf1Cby+UWdfSMJ598clRLS0unwYMH/72Yx0dNRLYCGBWHWcr17rvv7vTggw9+5s033zxq69at9cOGDduy3377/eyggw56GwByOWvfxwCgFQByudwGk39Gy5cvPxOAHnvssffmcrnWCl6qk4hAVRerqoY1n0kiogCW5nK5pNz4thXAMlVdbXqQYqxZs6brokWL+q1cuXKP999/v9/atWv32LRpUx9VFQCoqanRQw899O8nnHDC/XV1dVsB698TxgJYqarWvmcHichhqroqQb+fTwF4r9z362eeeWakiOT222+/v+RyufUhj1cUEdlhxUiKea8Wkd/A7X17x+FiYsdxxgGYkc1mDzc9S6m8a2q+C+Cb8Oqnww477Pef+9znrshms8PMTheOCy+88D+q2gfA3FmzZo03MYNXSS0B8JqqjqrktWbOnNm1tbV1QzabzQBIRLhxHGdzXV1d/ylTpqwxPUsYHMdZmclkxk6dOnWx6VmCvB0kQwEc4P1vfwAHAujf3vO++tWvLh06dOg5TU1N86KfMnqO4zwhItc3NTXdb3qWMDiOcxeAB7LZ7GzTs4TBcZybASzJZrM/LPW5XiW1HMCbqnpM2LOVq8NrbnhwXzhEZDcAF8K9GLAb3AuFp6nqPxzHOdDocMk0zfvIXVJUFSJSB2A4gIO8/+0DN8jsFniYApB2XmYDgJVDhgzZEtWcRCE7Am5YN35wX1AxFxRzl1QF2gs1RgdLPt5LiiLj/bs+oM3/9oZ7EbAvh08et9FesPktgLMB/B7uxZlENojNwX1BxYQb/+C+P0c8S6Iw1JgjInuCu6QoAiIyBsAMAEcX8fBizhHzV3KuBLDV+7k/gOGGLODVrqfDPbjvHdPzBLX7jy9wcN+DrKSKIyK7tTl87zkAh3uH7zHYVMcV3sdbjU5BiaOqT6rqGACHAvhfuNca+Eq94jcHN9x8Q1WvhvuN5CJVfTWUYYmidyRidHBfUEffWbCSKhJDTaywkqJIqepzqjpVVQdje9BZEXhIR0EnB3el5kuq+jPvAvj9AdwZxbxEEYllJQV0HG5YSXWAoSZeApXU66ykqBraBJ0jATyD9q+tyQHYDGC8qs7xfq7R+8hvJMkKca6kgHauuQlUUg+xkvokb0v3FLi3StgJwINwTxRmoDHrcu/jr4xOQakiIrUAvg/3OrvOcANMvoCjAD4EcIKqPhf4+QlwAzkrKbLFEXArqR+YHiSf9lZujodbSc1p5zGpE1ipWQogC2A+3JWakxhsYuFkuF9Yfmp6EEo+EakVkWsAfATge3C/YbwX7vtDvmrqXQDHBIONt9p4IPheS3aZiBjdS6qt9nZL+feSYiUFrtTYIFBJvcZKiqKUZ6WmFW44+QqAQQDyHWO/CMB/qeqKNj8/0ft4VzTTEoXLq6TOgHsvqdhVUkCBcONVUqeCB/dxS7dd/EqKu6QoEl6ouRLuNzoNcC8KvhfA+ar6ofeYxjxPfR7ASaqa755xE+HukloYzdREoTsSMTy4L6jQyo1fSaX24rY8oeZpAJep6t+MDkbtYSVFkSgm1AQ0YseTiB8BcLqqfuI+Xt5q4wEAropodKIoxHaXlK9QuEntLimGGjuxkqIolBhq/BsQjgz81L0Azmzn7+QXvI+p/UaS7OJVUp9HTHdJ+T4RbgL3kkrVwX0MNdZjJUWhKTXUBAQrqZsAXKiq7Z15w4P7yDZHAhiImO6S8uVbuUlVJcVQkxispKhiFYQa3wTv43RVbbdqYiVFlop9JQXkDzeNSMEuqQKhZpqq/tXkXFQ6VlJUqRBCDURkXwAjAHxTVYs5HZuVFFklUEnFdpeUb4dwE6ikErtLiqEmkVhJUVlEpAbAdFQQagI+B+AsVf19kY9vBLCYlRRZxK+k/sf0IB1pu3KT2EqKoSbRWElRSUIONb7bVXVZkZ+flRTZyK+kYnlwX1DbcNMI954ncw3MEgmGmmRjJUWliCjUAACKDTYeVlJkFZsqKSAQbgKV1J9Vdb25kcLBUJMarKSoQyKSgbtKEnqoKRMrKbKNNZUUsOPKTSIqKYaa1GElRQXFMNRARIaClRTZx5pKCtgx3FhdSTHUpA8rKSokjqEm4IveR6u/kaT0sK2SArxw02aXlFWVFENNqrGSoh3EPNT4WEmRbY6ARZUUsH3lxrpKauPGjbUiMh0MNWnGSoq2cRznIgDnIr6hJlhJXW16FqISWFVJAdvDzQS4B/c9YHCWoojIbv369Tv/vffeOwDAQXBvSjddVZ8xPBpVkfdFgpVUynm7n66tra3t29ra+nW4oeYPAL6sqh+ZnS4vf5fUXUanICqSV0mdAeDvNlRSIrI3gGkZr5I6FcBDcT64T0R2E5EZAJa98847X+rXr98GAEeq6vEMNql0hffxV0anICNEpEZEHADrATTlcjnp0qXLQwB2VdWJMQ02gPuN5CJVfcX0IERFOhzAAMS82RGRvUXkdgALAUzIYHslNcfoZAWIyK5e/bQUwGUAFhx11FHfmzx58iKGmlTzK6lZpgeh6hGRjIhcA+AjAE0AOgG497LLLvvPlVde+e0Yhxp/tfHTiOl7LVEBE+G+195jepB8RGSoiNwM4BW49dntAPbJYPsuqVjdSyoQat6Ee8+XVwGMVdXRJ5988ktGhyOjRGQI3EpqESupdAiEmvUApgGoh9v/91TV07t06dLenbfjggf3kVW8Sup0xHCXVCDULAFwHoDfAdhbVSep6pu1cHdJPRiXXVIisiuAiwF8C8DOcK+puUpV5xkdjOLE3yXFSirh/Gtq4L4f+BcK/wHAV1R1ncnZyuBXUgtND0JUpMPh7pL6X9OD+ERkJNyvAV8E0Arg/wBcp6rLg4+rRUwqKS/UfAvARQC6w939dLmqPmF0MIqjU8BKKtECW7ovBtAFMd39VKxAJcVdUmST2FRS3r+hJgD/D+5Mt8Nd+Hgz3+NrYfjgPoYaKoVXSfUEd0klUtJCTQArKbJKXCqpPKHmd2gn1Phq4R7cV/WL8BhqqEzcJZVACQ41Pv/gPlZSZAujB/cFQs35ABRFhhpfLar8nYSI7ALg6wCyYKih0nGXVIKkINT4b9IHgpUU2cXIwX15Qs0dAK5W1aWlvE4tqrRLylup+Q7c1ZpdAPwFbgp7uhqfn+zn/aXvCeB1VlJ2K3Ch8H0AzrHwQuGOTPQ+8uA+soKJg/u8C4Wnwb1QeCvc2+p8v+2FwsWqjXqXFFdqKES8l5TlCqzU3A9gUlJWavKYCLeS4sF9ZIsj4B7c94OoP1GB+qnklZq2ajt+SHkYaigCrKQsldJQw0qKbBV5JRVW/VRI6OGGoYaiwF1SdsoTanIAHgRwlqquNTlblXCXFFklsEsqkkrKey/PIqJQ4wst3IjIzgC+AYYaigZ3SVmEoWYb7pIi2/i7pEI9uK9aocZXcbhhqKEqYSVlAYaa7VhJkaX8SiqUg/uqHWp8ZYcbhhqqFlZS8ddOqDlbVT8wOZtBrKTIKmFWUqZCja/kcFMg1Fyhqo+HPBuRj5VUTDHUtIuVFNmm4krKdKjxFR1uGGrIIFZSMcNQ075AJXWN6VmISlB2JRWXUOPrMNww1JBJIjIYrKRig6GmaKykyCqqWlYlFbdQ4ysYbhhqKCau9D6ykjKIoaZkfiXFg/vICs8///xAlFBJxTXU+D4RbhhqKGZYSRnEUFM6VlJkowULFuyPIiqpuIca37Zww1BDcROopHgvqSpjqKkIKymyzooVK/ZDO5WULaHGV8tQQzHGSqrKGGpCwUqKrLJw4cI+zc3N3ZEnkNsWany1AFYA6AbgMQDTVfXvZkci2mY83C+uN5oeJOm8UDMDwLfh3qU7B+BPcO/Sndh7P4VNRPaEW0nNMD0LUbFefvnlIXCDy7ZKSkSGw71L95lw3w9mw71L9zITM5YqA+B5AEer6jgGGwrL22+/XdHzve8WesH9DpiVVEREJCMi3wewAcAlAOrhhpqeqnoag03JJngfWUmRFURE3nrrraE9evT4l6q+IyLDReQ2AK8B+CLcUDNCVb9iS7ABgFpVHWd6CEqWlpYWmT9/PgYOHFjJy1zufZxd+UTUVi6Xw+WXXz4NwFex40rNuWm7TULI/EpqgelBiIp02KZNm3bafffdX/ZCTXCl5lqbAk2QXHfdddNND1GGoQDGAvg/04OEQVV3B9AoIomoX5566qmmuXPndj733HOXjRgx4rZyXuOKK674XktLS8P06dO/X19f3xr2jKVQ1ToRuRTutSjW+81vfjP2jTfeOLqlpQUiorvvvvuSc84554/dunWzeYXsYgC/BvC+qQGWL1/e4+c///m39t133yfPOuusSm9D83UReUBVV4QynHnnAHgGwBLTg4RkItzfy0umB6nU7Nmz/2vx4sVHAICI5AYNGvTyCSec8OSgQYNsW7X9dzab3ZYJagHsZHCYsqhqg3eNgHWz5yMiXUQko6qJ+P28/PLLnQDglVde6TFixIiSf08rVqzYpaWlpcvOO+/8QX19fefwJyyNiPi7Cq3+87njjjuOevXVVw/aunVrnYigb9++b5999tn377rrrpth6XtBgMC9ALrZ1ADPPffcgQBwyCGHLEPl/19mVLUhhNeJixoAnZGc308t3ArX2t/P22+/3e3RRx89dOnSpftmMhkdMWLE6qOPPvrPQ4YM8Vdurfq9iUjDDj9WVVOzlM1xnHEAZmSz2cNNzxIGx3EOBDAnm80OMz1LGDp37ry1ubk506tXr/dXr17ds9Tni8gv4V6Zn1XVH4Q/YWlmzpzZtbW1dUM2m83AvejOGgUuFH7g8ssvP75bt279p0yZssbogCFxHGdlJpMZO3Xq1MWmZhCR5wHspKojK30tx3EWiMjkpqameSGMZpzjOE+IyPVNTU33m54lDI7j3AXggWw2O9v0LKUSkWFwa/8z4YZOjB49et748ePvyWazPzQ6XIgypgegZBGRfZqbmzMA8P777/cQkfoyXuYUuF+Ebwh1uBTp6ELhLl26GJ0vabxdUgeBFxJTTInIMO+amtex/ULhewDkDj300LdMzhYFhhsK2wn+f+RyuQyA0aU82Tu4j7ukyuSFmmsArMf2UPMggF7e7ideLByNRu/jHKNTELUhIkNE5GZs3/30OwCjAHwFbiD/e69evTYZHDESDDcUtpPa/PiEvI8q7Arv4+zKR0kPcU2DG2qmwb2+wQ81J/EAvsg1AljCg/soLgKhZgmA8+AevjdKVSep6hsADgcwCAldbWS4odCISFcAR7f56bZhpyP+vaR+EspQCRcINRvg3suIoabKAveSutP0LERFhBpfI4q4l5StGG4oTMcC6NTm5/YRkUHFPJmVVGlEZCoYauJgItzdWon8DpjsICKDiww1EBEBcDqApwvdS8p2DDcUphML/PzxRT6flVQRRGSqiGwA8AMw1MQBKykyJhBq3kAHoSYg0ZUUwHBD4Toen9wqrSgcetpiJdWONqGmAQw1xrGSIlPKDDU+v5K6O+Ixjant+CFEHRORvQEMyfdLAI4TkXpVLXjAWqCSep2V1I68+ukKAF3Bu3THDSspqirvvfIS7HiX7muKCDT+8xNfSQFcuaHwtHfhcFcAR3XwfFZSbXClxgqspKgq2qzUfBnAvSh+pSYo8ZUUwHBD4TkR7Z/e21E1xUrKw1BjB+/O9QeCZ9tQhAqEmpGqOrHEUONLfCUFMNxQCAJbwKXAQxTtrOx4u6lSv0uKocY6XwArKYpIBKEmNZUUwHBD4ci3BTxI0P6W8Cu9j7PDHMoWDDXW8iupBaYHoeSIItQEHIYUVFIAww2Fo9hTiAs9LpWVFEONvVhJUdgiDjW+RB/cF8RwQ2E4CR3fLVuRJ9wEKqklaamkGGoSgZUUhaJKocavpM6AW0mtDOt144rhhiribQEfhMLX22x7KNwt4W3rq9RUUgw1icJKiipSINTsHXaoCUhNJQUw3FDlPrELqlevXi0AsMsuu6xv80v5toT7ldQNkUwXAww1ycJKiirRQahZEuGnTk0lBTDcUOXabgH/3T777PMxAIwePfpVAM+1efy2XVNJr6QYahKLB/dRyQyGmtRVUgDDDVXA2wI+BtsrqTkAzslk3L9W9fX1rQCOA/Bs4GnBlZ5EHtzHUJN4rKSoaCZDTUCqKimA4YYqE9wCPgfAWaraGnyAqq4D8F/YHnBGBbaEn4IEVVIMNcnnVVKfBisp6kBMQo0vVZUUwHBDlfF3P90B4My2wcbnBZzjsb2iOj5JlVSBUNOboSaRWElRu2IWalJZSQG8cSZV5ni438FOUtWt7T1QVT8UkeMAPAy3mjrU+6XZkU4YoQI3tPxvVX3f6GAUJVZSlFebG1pm4N7eYJqJQNOGX0n90PAcVcWVGyqLtwX8eeSpogoJrODsDOBUWFpJFVip6eOt1DDYJBQrKconbis1eaSukgK4ckPl2wK3imp3xaYtVV0nIt8BsADAIpsqqZqamqm5XO5y7LhSM0lV15idjKqElRRts3Tp0p5eqInbSs02aa2kAIYbKpOqvlnB0y/yPs4OYZTIXXbZZd8BgFwu54ChJs1YSRFEZPDee+/96UWLFn3e+6nYhZqAVFZSAGspMsOKSsqvn7Zs2XJNS0sLROQhbK+fGGxShJUUBeunRYsWDe7Zs+cLiFf9lE8qKymA4YaqzIZdUm2vqampqfnLtGnTkMvlGGrSi5VUSonIoLbX1HzjG9945OKLL74pxqEmWEnNS1slBTDcUPVd7n2cbXKIfApdKOw4zue7dOlidjgyjZVUygRCzVK0uVC4f//+G8xOV5TUHdwXxHBD1XYq3Ns1xKaS6mD3E1dqUo6VVLq0F2rivFKTh19J3W16EBN4QTFVTaCSisUuqQLn1PBCYWqLlVQKeO9PlyLGu5+KlfZKCmC4oeqKRSXFUEMlYiWVYEkKNQGHwq2krjc9iCmspaiajFZSrJ+oVIFKiqs2CZPvQmHYWT/lk+pKCuDKDVWJyUqKKzVUAVZSCeO9F10M4GsA6uAGgMtVdbHRwULiVVITkOJKCmC4oeqpeiXFUEMh8Cupl00PQpVJeqgJSH0lBTDcUPVUrZJiqKEwBCqp75uehcqXolDjS30lBTDcUBVUq5JiqKGQsZKyWApDDSupAIYbqga/kvp1FC/OUEMRYSVloTSGmgBWUh6GG6oGv5L6cZgvylBDUWElZZ+UhxpfI9z32ntND2Iaww1FKopKiqGGqqARrKSswFDjChzc97SqrjA9j2kMNxS10CophhqqIlZSMcdQ8wmHAhgM4EeG54gFhhuKWsWVFEMNVZNXSR0EVlKxxFBTECupAIYbisz69es7w62kFpdTSTHUkCGspGKIoaYwVlKfxHBDkXnttdf6e/9ZUiXFUEOGsZKKEYaaorCSaoPhhiLz3nvv7YYSKqk8oeZRAGer6rsFHj/R+8+/qOrayiemtGMlFR8MNSVhJdUGb5xJkWlpaamD+x3wx+09Ls8NLf8GYKCqHlco2Hj+BOA8AKtF5CkRuVREDvSWaInKwUrKMO+GljcAWAzgArj/zvfxbmjJYNMGK6n8GG4oagUrqXZCzTHFnK7pXcfzebgrPKMBXAvgnwBWicitItIoIt3D+E1QajQCeIOVVPUx1JTNr6QYyAMYbihqn6ikKg01QYGA81Dgp3vDXdGZA2CNiDwpIpdwVYfaE6ik5pieJU0YairGSioPhhsK3ccff5wBgIaGho+DlVSYoSbICzinAXjA/1SBX66Bu6rzfbirOqtFZI6ITBKRHuV+TkokVlJVJCIDGWoqE6ik5rGS2hHDDYVu+fLlnQBgwIAB7wLRhZogVd0C9x/5A3l+ORh2doP7RezXcFd1nheR6SJyEFd1Uo+VVBUEQs0SMNRUipVUATJ58uR9TQ9Rql133fXw+vr6C1etWnWW6VnC0L17970bGhpmrlq1arzpWcLwy1/+ckFLS4sMHz78nTfeeKO7qnYBoHV1dS8cfvjh2VGjRrV3kXBFNm3aVHfnnXf+qLm5+TNFPkXhhR8R+bC+vv7Zbt26/e3ggw/+64ABAz4CgPr6+obddtvt2dWrV+/X2tqqUc1eTX379n3hww8/HLsRJs4AACAASURBVPfxxx8nYpdZ3759H9uwYcP/W79+/b/Kef7LL7+8xzPPPPNgt27dbvnSl750Y8jjlaxv3773NDc3X/3BBx+8ZHqWMPTt2/fWN9988/577rlnxIYNGxoB1Hbu3PnRffbZ58ZDDz30X6bnK9Xuu+9+fWtr69/WrFlzn8k5br/99u+uX79+0ujRo/9r3333/U+5r9OnT58rc7ncv957771Ibm5cDSKy6aabbnpr24+/+c1vJuLNmuJh/fr1uO2223b4ua5du6J3796ora3OyQOqinfeeQebNm2q6HW6d++OkSNHYtCgQejZs2dI01Ecvfjii5g3bx4mTpyIXr16mR4nUdavX4/nn38eixYtgqpi+PDhOPjgg9G9O6/1r9Rtt92Grl274owzzjA9inEiMv/GG288wv8xz7mh0Cxfvhzz588HANTU1AAA6uvroap4993IFmvyamlpqfg11q1bh5UrV6KmpgYNDQ3o2rVrCJNRHC1duhTdu3dnsAkRQ0203n33Xaxfvx7777+/6VFiqRbARaaHKFWnTp1GdO7cefxHH310velZwtCpU6f+DQ0N561bt+4a07OU4/nnn99n4cKFJ2zcuHEQAHTu3FknTZokdXV1rwG4udrzPPzww+OWLl16SglP2VZN1dXVrd11111f32OPPRaPGjVq0S677LJZRDp169btf9etW/dtVU3ESme3bt1+uGHDhiu2bt260fQsYejWrdvVmzZtmtXS0rK61OeuXLly19WrV18xcODAR5H/mq2q22WXXZqam5vnNDc3LzM9S6lWrly56zPPPPNfq1evPhSA9OzZ85+nnnpq727duj3c3Ny80PR8Ydh5553Pb21tffXjjz/+h6kZ5s+ffxqAz/bp02c6gA8rea2ddtrpC6q6euPGjU+EMpwBqrpDLSc2vlc7jjMOwIxsNnu46VnC4DjOgQDmZLPZYaZnKYWInATgSrgXta0GcAuAS0eMGLF53LhxDQDmzpo1q6rXEYlIEwAHgcCSR/DXtgKYD+B+uOfl/LNtgJk5c2bX1tbWDdlsNuM913qO42yuq6vrP2XKlETc0sJxnJWZTGbs1KlTS74gVUS+B+B/AHxaVV8Mf7rSOY6zQEQmNzU1zTM9S7FEZDCASwGcC3ezyh0AZqjqYsdxnhCR65uamu43N2F4HMe5C8AD2Wx2tonP721+eAvAO6p6VKWv5zjOzQCWZLPZH1Y8XEywlqKSicg4ADMAHAZgDYCrAFwP4HQAMmzYsM1wd0VVe672gk0O23cHrgbwCNxA87CqflS1ISmOJgJ4My7BxjYiMhDAFOx4m4QrVHWR0cGS7RC4u6SKurVNGjHcUNEKhRo/HIhII4D3Bw4c2GpgtssBXO3/EDsGnC0AnoR70N9cVX292vNRPHmrDQcBuM7sJPZhqDGKB/d1gOGGOtRRqPEe0x3AOAC3ZTKZU6pZd7YJNr5/A/gz3DuKP66qG6o2ENlkInhwX0kYaszyKqkJcA/ue9v0PHHFcEMFFRNqAj4HoBPcLxKlXMxb6Yx+sGmBuzrzIIAHVfW1as1AVmuEW0kl4jyZKDHUxAYrqSIw3NAnlBhqfI0A1gL4a+QDekRkEoA94Aarx7g6Q6VgJVUchprYYSVVBN5+gbYRkXEiMh/AXwDsCTfU7Kmq09sLNoFK6m7vNghVoaq3qepkVb2PwYbKwHtJtaPAvZ9GebdJYLAx53SwkuoQV26o3JWaoNOwvZIisgUrqTwCKzVfhfvvmis1MSEihwIYCuAnpmeJO4abFAsh1PiqXkkRVcKrpA4GK6ltGGqswEqqSAw3KRRiqPErqeMA/KaalRRRhVhJeRhqrMJKqkgMNykSZqgJYCVFNkp9JcVQYxdWUqVhuEmBiEKNz6+krL0nCaVL2isphhprsZIqAcNNgonIaLih5jMIP9SwkiJbpbKSYqixHiupEjDcJFDUoSaAlRTZqBHAW2mppBhq7MdKqnQMNwlSxVDjYyVFVklTJVUg1FzJe6tZiZVUiRhuEsBAqAke3PdbVlJkkcRXUiIyAMB3wVCTJKcDeIaVVPEYbizmhZprABwD4H1UIdQEnAagHgn+IkGJlNhKKk+omQtgmqq+bHQwqkigkrrR9Cw2YbixUIFQ8yNVXVfFMVhJkVWSWkkVCDWXJzHApZRfSd1jehCbMNxYJCahhpUU2SpRlRRDTWqwkioDw40F4hJqAlhJkY0SUUkx1KSHiBwCVlJlYbiJsRiGGh8rKbJKoJJyzE5SPoaaVGIlVSaGmxiKcahhJUW2sraSYqhJtTPASqosDDcxIiLHA7gSwBFwt3RnAfxUVTcYHWxHp8KtpO4yPQhRCSYAWKqqL5oepFgvvPBCHxH5GYDz4b5X3wngGm7pTgcRORhuJTXL9Cw2YriJgXvuueeAd999dw8ADyFmKzV5TIRbST1uehCiYngrH4fAkkpKRAYcfPDB/V544YXfw32P5kpNOk2EW0ndbXoQGzHcGBSsnxoaGrYi3qGGlRTZ6ouwoJIK1k8vvPBC565duz69YcOGCxhqUouVVAUypgdIIxEZLSJPAHgKwKd69+598/e+973lqjo9rsHGw11SZCN/l1QsKykRGSAiNwBYAuACAI9Onjz5jWnTpk1lsEmnwC4pvteWieGmirxQ8zi8UAN3pWbP73znOzc3NDTkzE5XFO6SIqt4qyEHw71eJVbyhRoAB6nqKQMHDtxsdjoyjLukKsRwUwVtQs1+8EKNBSs12wQqqXtYSZFFvoCYVVLthRqu1JCHB/dViNfcRMi7puZqAJ9F/C8U7oi/Syo2XySIihCbSopbuqkYXiW1J7hLqiIMNxFIWKjxsZIiq8RllxRDDZWIlVQIGG5ClNBQ41dSxwG4nZUUWcRoJcVQQ2ViJRUChpsQJDXUBLCSIhsZqaQKhJor4lCNUbyxkgoPw00FUhBqfH4lxYP7yAomKimGGgoBK6mQMNyUIUWhhpUU2apqlRRDDYXodADzWUlVjuGmBGkKNQGspMhGkVdSDDUUpkAl9VPTsyQBw00RUhpqfKykyCpRV1IMNRQRv5LivaRCwHDTjpSHGlZSZKtIKikR6Q/ge2CooWiwkgoRw00eaQ81AaykyEahVlIi0gfAdwBcBPffw5/BUEMhYiUVPoabAIaaT2AlRVYJs5JiqKEqYiUVMoYbMNTkIyK7wL2X1O9YSZFFKq6kGGrIAFZSIUt1uPFCzVUAxgL4AAw1QZ8D0BmspMguZVdSgVDzLbh/9xlqKHIicjBYSYUuleGmQKj5sap+aHSweGElRVZ56qmn+sKtpH5QyvMYasgwHtwXgVSFG4aa4rCSIhvNnz//RJRQSTHUUEycAbeSWm56kCRJRbhhqCkZKymyzrp1606AW0n9s73HiUhvABeDoYYMYyUVnUSHG4aasjUC+BCspMgSa9eurWlpafkU2qmkGGoohlhJRSSR4YahpnyspMhGL730UgMKVFIFQs2VHa3wEFUBK6mIJCrcMNSEgpUUWefVV1/tXFNTs6K1tXVbYGGooThjJRWtRIQbhppQsZIiq3gH93Xq0aPHg96PGWrIBqykImR1uGGoCRcrKbLURADo1avX8yLigKGG7MBKKkLiOM5400OU6umnnz7jpZde+uKKFSsaampq1g8cOPC+z3/+83/q3bv3JtOzlWmoqmZF5Ksmh7jjjjs++/LLL0858sgjp5966qnPl/s6//73v3+rqt1ra2uf79u37/QQRzQil8vVi8jdInKy6VnCoqr31tTUnJPL5T4yPUulrrnmmpkbN24cKSKtqlrTo0ePeWPGjLnjiCOO+Jfp2cqlqrNE5KcAXjc9SxhU9TpVvTeTyTxrepYwqOolIvIcgEfLef6TTz6519y5c3+81157/d+Xv/zlP4Y8XslU9QIRWQngXtOzlCuXy314ySWXPC0idQDOqVXVqaaHKtarr77a/fHHHx/0zjvvdGtoaNCjjjrqX2PHjl3ZpUuXgQAuUFXTI5ZFRHYC0MP0n8VHH300qr6+vvXEE088VlXHlvs6mUymy9atW1FTUzPU9O8pDCKSAYAk/F4CarZu3XohgBbTg5Tr/fffr3/00UcHbNy4sZ+IYNiwYeuPPfbYtwYOHLgVwERb3w88vQCcparWh0/PQBE5XVWPMT1ISEYA6Kmqny7nyWvWrBkCAKeddtqnVHV4qJOVZ5g3xzDTg5SrtbV1kYiMBHAZgCFiwxuAiIwFMB3A0QA+GDBgwJ/OO++8fa+66qpDzE4WDsdxDgQwJ5vNGvuLJSLdALwL4A5VPa+S17rwwgv/o6p9AMydNWuWdSuDbc2cObNra2vrhmw2m4HbkVvPcZzNdXV1/adMmbLG9CylEpE9AGQBfBlu/YRzzz33/b333vuoqVOnLjY6XEgcx1kgIpObmprmmZ4lDI7jPCEi1zc1Nd1vepYwOI5zF4AHstns7HKeLyJvAlitqkeEOliZHMe5GcCSbDb7Q9OzlMpbqZkEL9QAWARgRsboVB0QkbEi8iSAxwCMAnA5gCHf+MY3bm9oaNhqdrrEOQXuTQK5S4piSUT2EJGfAFgK4BsAHgCwEsBbI0aMaDY6HFGRROQgAEPB99qKiEidiPw/AIsB/B+AZgBnA9hXVW+PZbgRkdEi8hjcULM/3IO59lTVGQlapo2biXB3SZXVIRNFRUR6excKvwHgArh/Rw+BuyOqH4A5BscjKtVEuCvAd5sexEZeqJkE4FW4oUYBfA3Ap1T1dlXdCgCxCjdeqHkUwFPYfgO8Qaqa5Q6o6Hi7pI4DcC93SVFcBELNvwBMhfvNzsGqeoq3A2oiSriXFFFMnAHgH9wlVZo2oebXAGrghpoRqvoLVW0NPj4WW8G9Ld3TARwLYD3cUOMw0FTNaeDBfRQTJZxT0whgGQDePoGsEDi47ybTs9jCu6bmSwCmwb3geRncUHNr20ATZHTlps1KzaFwQ81ArtRUnX9w32OmB6H0KmKlJvjYAXDfM+5UG3ZFELn8g/tYSXUgz0pNLdxQMzzfSk1bRlZuuFITH4FK6g5WUmRCmScKs5IiG7GS6kC5KzVtVTXcMNTEEispMqLC2ySwkiKrsJJqX1ihxleVcCMin4UbasYAWAvgCgA3cOdTLEyA+2fCSoqqQkT6AWgC8FW4xw/cA+BqVV1Q5PMHwq2k/oeVFFlkAlhJfYIXav4b7jk1Q+Fu7f5vuG1C2Ue+RBpuGGrizaukjgcrKaqCSkNNwAS4ldRd4U5IFKkJAJ5lJeWKKtT4Igk3rJ+scRrcLzI8J4QiE8FduifCXbJ+IZwJiaLlHdzHSgrh10+FhBpuGGqsw11SFJkIQk1wlxQrKbJJ6ndJVSvU+EIJNww19hGRncFdUhSBAqFmuqqGsdLCXVJkowlI6S4p78bDZwC4FlUINb6Kwg1DjdU+B+6SohBFHGp8/i6psld/iKoprZWUqVDjKyvcMNQkAispCkWVQg0rKbJVqiop06HGV1K4YahJBlZSFIZqhZoAVlJko1RUUnEJNb6iwg1DTeKwkqKyGQg1PlZSZJU0VFJxCzW+dsONF2quBDAODDVJ8v/bu/vYuur7juOf77GvnQfMQxPHgThpR8zDwkYIK4GqaxQCaSpIUhFsi05NN+2PrRFNYQNsjzGeStCltAEE0srWB0XQadzQQkqbohIBTRMq7BTC06BxHIdRk4ktShfI7CT2/e6Pcw878a4d3+tz7+/hfF7/IIJi/yQk55PzvuccJikqmcFRwyRFrvI2ScVGzT0AzoUloyZSdNyMMWruU9VDVTwbVQCTFJXK5KiJaQOTFLnHu3dJ2T5qIieMG46aVOC7pGhCLBk1ESYpckohSbUA+EfTZ0mCK6MmUgt8PGo6AawER43vmKRoXCLSCOAm2DFqoiR1KZikyC1eJCnXRk2kVkReALAU4R94dwJ4UFX/2+ShqDIK75L6PIAnmKRoNBE5E//37qcpAJ4GcJeqvmb0YHyXFLnJ6XdJiUgtgC8jfKLwfAC9AP4cwA+TePdTpdUC+BPwSk1arEb4hxbfJUUfs+1KTRF8lxQ5xeW7pFy9UjNaAGCuqnZx2KRCK8IrdNtMH4TMe+qpp5pE5EEA7wLoAPAsgEWqusqWYRNLUpuZpMghrXAsSQ0PDwci8hcA9iD8C7AgvFJzjqr+k0vDBgBqmaDSoXCX1AoA/8oklW4i0rhkyZLanTt39gCYinDsdtkyaEaJ7pLi1UZyiTNJSkSCq6666uwXX3zxGgCNcPRKzWiB6QNQ1fAuqZQTkUYRyQLYv3379pra2tpuAJ9W1eWWDhuAd0mRY2J3SVn9s1ZEAhFpA/D21q1br1TVGoSj5lwXr9SMxnGTHtFdUkxSKRMfNQg/MPzS9ddffyybzbZaPGriSSrHJEUOie6SsvID8PFRg/CKaN3SpUt/deutt2Z9GDURjpsUKCSpzwN4mkkqPYqNGgCXqOry5uZmF8YCH9xHLroWFiapYqMG4ZWac1asWPF2bW1t3ugBE8Zxkw5MUiky3qhR1V1GD1caJilyio1JarxR49OVmtE4btKBSSoFPBo1TFLkKmuSVFpHTWRCbwUnd8WSFO+S8lTsOTXrAUxDOGL/zrVBMwqTFLnIeJIq8pya/fDg7qdScdz4j0nKU56OmgiTFDlFRC5GmKS+Y+j7c9TEMEv5j0nKMz7lp2JEpBl8cB+5x8i7pNKen8bCKzceY5Lyi+dXauLawSRF7oke3Le/Gt+MV2rGx3HjNyYpD6Ro1ESiJGXtM3iI4qqZpDhqJoZZym9MUg7zPT8VwyRFjqp4korlp38D89NJ8cqNp5ik3JXCKzVxTFLkooolqdiVmm8AOA+8UjMhHDf+YpJyTMpHTYRJipxSqSTFUTM5zFL+YpJyRBrzUzFMUuSoRJNUkfxUD+ankvHKjYeYpNzAKzX/Dx/cRy5KJEnxSk2yOG78tBpMUtYaY9Tcqqo9Rg9mHpMUOSWJJMVRUxnMUn5ikrLQGPlpcSE/pXrYFJLUZWCSIreUnaSYnyqLV248U0hSKwA8wSRlB16pmRAmKXJRyUmKV2qqg+PGP0xSluCoKQmTFDmlp6fnkyghSXHUVBezlH+iJPWc6YOklYjMZH6aOCYpctHu3bsvwQSSFPOTGbxy4xEmKbNEZCaAm8ErNaVikiLnvP/++5cA6BkrSRW5UvMueKWmajhu/MIkZUBh1HwNwN8AOBUcNaVqQ3iVi0mKnLB3797Th4aGZgG4f/R/46ixA8eNX5ikqoijZvJiSep+Jilyxe7du5sRJqkno1/jqLELP3PjidiD+7YwSVVW4TM1dwLoA3AHgG7wMzXlYpIi5/T29s5paGjoV9X9RT5TMwXhqGnhZ2rM4bjxx2oAU8E/JCqmoaGBoyZ5TFLkFBG5+PDhw6fMnTt3F0eNvWTDhg0XmT5EqWpqai5V1evz+fxXTJ8lIeeLyDdVdXW5X+Dee+/dODg4+OkbbrjhypkzZxq9cnPgwIFtqjojCIIds2fPXm/yLEl45513ztq/f//PduzYMaSq9dOnT99+4YUXPrpy5cq3TZ+tXEEQvAxgRT6f/72pM3R3dzdt2bLl52ecccZjN9988wOT+Voi8gsAf1WJtzKbEARBTlU3qOprps+SBBH5Z1V9HMAvTZ9lsjZu3Lj+4MGDf5nJZAaPHz8+taam5ndz5sz57tq1a382bdo0JwdNEAS3ici7IyMjj5k+S7kymcyRW265pTf691oReXK832AjVZ0KYIaLZy9GROoBNCHWb0sxNDQUHD169FMXXHDBR42Njf+S7OlKJyKnqyoymczFLv8/+vDDD2uef/7501955ZXThoeH0dLSMnLFFVcMzJs3rxlhV3dZRkS+LyJ5UwcYGho6DYC0tbUtE5HPTuZricgZAB4CcDyRw5k3V0Q2ABgyfZAkiMhZItKlqs7+ZUdVsWvXrobBwcEZADB9+vS6JUuWfLB48eJjQRCsBbDW8BHLpqqNqnpcRL5o+izlGhkZ2Y3woYoAAHHxM3zZbPZKAPd0dXVdZvosSchms4sA5Lq6us4p5/eLyJ8B+CGAVar600QPV4b169f/h6o2Adj6yCOPXG36PKUSkVkAOgB8FcC0mpqan69bt+6qhx9+OED4IULnZbPZoUwm03zTTTf9l6kziMhOAGcBOHuyHybOZrMDQRAs6+jo+G0ypzMrm82+LiJf7ezsfMn0WZKQzWZfEJGNnZ2dz5g+S6lEpAbAlwDchvCDwli4cOHeNWvWZG+//fbvGT1cQrLZ7KMA9nR1dX3b9FmSws/c+IF3SSVARGaJyP0A9gH4WwDPA7gkm822z5kzx+zhPFO4S+ozAJ7kXVJkIxGpEZEvA3gLwGMAMgBeBaCXX355b11d3YjRA9K4OG4cF3tw3xZVPWr6PC6K3f3Ui/AhfL8GcKmqrlZVftC1MqK7pHKmD0IUF7v76U2Eo2YKgBsBLADQAKCnqanpfwwekSaA48Z9vEuqTLyl26joLqldhs9BBOCEUfMWwtE9FeGoOU9VH0I4blrAn7VO4LhxX5Sktpk+iCs4asziu6TIJicbNbEr4m2Ff/7YwDGpRBw3Dhv14D4mqZMYY9RcylFTdXxwHxlXwqiJtAHoVtV9VT4qlYGvX3Abk9QEjPGahL9X1W6jB0svJikyJvaahLsBnI/wNQk3AvjOWH9JFJFFCJPULdU6J00Ox43bmKTGwVFjn1iS+haTFFVTOaMmhknKMRw3joolqRyT1Ik4aqzWCiYpqqJJjppIK5iknMJx465VYJI6AUeNE5ikqCoSGjVRkjoHTFJO4bhxF5NUAUeNG2IP7mOSoopJatTEMEk5iOPGQbEH921Oc5LiqHEOkxRVTAVGTYRJykEcN25KdZLiqHEWkxQlroKjhknKYRw3bkrlu6Q4atzFJEVJq+SoiWGSchTHjWPSmKQ4arzAJEWJKDJq/h3Jj5pIK4AeJin3cNy4JzVJiqPGK0xSNClVHjXxJNWR9NemyuO4cY/3SYqjxi+xB/d9m0mKSlXtURMTJakfVfB7UIVw3DjE9yTFUeOtVoTvsfP+aiMlJzZq7gLwh6jeqIkwSTmM48YtXiYpjhrvtQF4D0xSNAEWjBomKQ9w3LjFqyQ1xqi5TVVfNnowSgyTFE2UDaMmhknKcRw3jhCRU+BJkhKRGQDWg6MmDZikaFyFUXM1gG8AWAizoyayBkxSTuO4ccdqOJ6kYqPmRgCngaMmDZikqKjYqLkbwEWwY9RARC4CcB6YpJzGceOONgCH4eC7pDhq0klE5iBMUhuZpChi66iJ4YP7PMBx44BRSWrI9Hkm6qOPPqoTkTvBUZNWbWCSooJ8Pi8isgr2jprItQiTVJ/pg1D5OG7c4FSSGhwcDF5//XW8+uqrSwFcCY6atIqSVI/pg5A5IhK0t7fPeOaZZx4AcDbsHTVMUh7huHGDE0kqyk91dXUzjx07hlmzZv3+gw8+WMlRkz5MUhTPT7lc7o8zmcx/wtJRE8Mk5YnA9AFofLEk9bStSUpEZhTyUx+AOxobG4+3traira2tm8MmtZikUkpEgkJ++g2AnwD4xLJly/Z2dHSsU9WHLB42AJOUNzhu7Gftg/tGjxqE+eGya6655lBTU5PRs5FxTFIpU2zUILxSc97y5ct/19DQcMzoAU8ilqSs+1lLpeO4sZ91SWqsUaOqy3mlhmJJ6gkmKf+NN2oKV2qsvOJcBJOUR/iZG4sVktQXYMldUrylmyaID+5LgXFu6X7Uhp9XZYge3Mck5QGOG7tZkaQ4aqhETFIe83DUREnqfPAuKW9w3NjNaJLiqKFSFZLUZ8C7pLzj46iJYZLyDMeNpWJJ6slq/+AoMmp2InxL9y+reQ5yEpOUZzwfNREmKc9w3Nir6kmKo4YSwCTliZSMGiYpT3Hc2CtKUs9V+htx1FASmKT8kJZRE8Mk5SGOGwtVK0lx1FDCmKQcFhs1dwFYhPAKnM+jJrIGwC4mKb9w3NipoklqjFFzm6q+WInvR6nBJOWgFI+aeJLqNH0WShbHjZ0qkqQ4aqhSRORMMEk5Jc2jJiZKUj8yegpKHMeNZSqRpDhqqArawSTlBI6aEzBJeYrjxj6JJSmOGqoiJinLcdSciEnKbxw39pl0kuKooWpikrIbR82YmKQ8xnFjkckmKY4aMoRJykIiIgBWgqNmLExSHuO4sUtZSYqjhgxjkrIIR83JichCMEl5jePGLiUlKY4aMi2WpB5gkjKLo6YkTFKe47ixxNGjRwNMMEmJyCcAfB0cNWQek5RhHDVluRZMUl7juLHEm2++OR0nSVKxUXMDgNPBUUPmRUmq2/RB0oajpjxMUunAcWOJN9544xQAH6JIkuKoIRsxSZnBUTNpTFIpwHFjgYGBgWl9fX3TADwe/+E0xqj5B1V9wcxJiU7AJFVFHDWJYZJKAY4bCzz77LOfGx4eFhT+kOCoIUcwSVUBR01ymKTSIzB9AAIOHDiwvK6uLg/gNyJyJ4A+AHcAeAvAMlX9Uw4bskksSeWYpCojn8+LiKwCsAvATwDMRDhqzlXVhzhsysIklRKSy+VqTB+iVP39/dPy+fyM+fPnv2f6LJPV1dV1yr59+w6IyJCq1gJoEJHnpkyZcvemTZt+bfp85dixY8fZ+Xy+Jp/PH1m6dOn7ps8zWYcOHQoOHjw4v6Wlpdf0WZLS39/fMjg42L9gwYKRcn7/dddd97V8Pv/g1KlTP7tp06aXkz5fqfr6+v6gvr5+oLm5+Zjps0zWtm3bgq1bt/71wMDAOlVdAOC9IAjuW7Ro0Q86OzuPmj5fOfbs2dN86qmnHpo9e/YRk+dob29/C8CRXC63eDJfp7+//8x8Pn9k/vz5hxM6mlG9vb2z6uvrj8+bN++Q6bOUa/Pmzcjlch//PBP+pcucQn66B8C6wi/9AsBdqvqSuVMRnZyIbAfwSQCf4pWbZBReuJxaUQAAAChJREFUk3AtgNsB/BHC/JQF8D1VdXLU2ERELgTwGoAuVb3P9Hmosv4XO7ouGCWxFWQAAAAASUVORK5CYII=;" vertex="1" parent="1">
          <mxGeometry x="30" y="470" width="567" height="453" as="geometry" />
        </mxCell>
        <mxCell id="QVBjA24aKZEz9xPjlTkT-20" value="\(\hat j\)" style="text;html=1;strokeColor=none;fillColor=none;align=center;verticalAlign=middle;whiteSpace=wrap;rounded=0;fontSize=25;" vertex="1" parent="1">
          <mxGeometry x="134" y="702" width="60" height="30" as="geometry" />
        </mxCell>
        <mxCell id="QVBjA24aKZEz9xPjlTkT-21" value="\(\hat i\)" style="text;html=1;strokeColor=none;fillColor=none;align=center;verticalAlign=middle;whiteSpace=wrap;rounded=0;fontSize=25;" vertex="1" parent="1">
          <mxGeometry x="194" y="772" width="60" height="30" as="geometry" />
        </mxCell>
        <mxCell id="QVBjA24aKZEz9xPjlTkT-22" value="\(\hat u\)" style="text;html=1;strokeColor=none;fillColor=none;align=center;verticalAlign=middle;whiteSpace=wrap;rounded=0;fontSize=25;" vertex="1" parent="1">
          <mxGeometry x="189" y="581" width="60" height="30" as="geometry" />
        </mxCell>
        <mxCell id="QVBjA24aKZEz9xPjlTkT-23" value="\(\hat v\)" style="text;html=1;strokeColor=none;fillColor=none;align=center;verticalAlign=middle;whiteSpace=wrap;rounded=0;fontSize=25;" vertex="1" parent="1">
          <mxGeometry x="368" y="662" width="60" height="30" as="geometry" />
        </mxCell>
        <mxCell id="QVBjA24aKZEz9xPjlTkT-25" value="" style="shape=image;verticalLabelPosition=bottom;labelBackgroundColor=default;verticalAlign=top;aspect=fixed;imageAspect=0;image=data:image/png,iVBORw0KGgoAAAANSUhEUgAAAjcAAAHFCAYAAAAOmtghAAAACXBIWXMAAEzlAABM5QF1zvCVAAAAGXRFWHRTb2Z0d2FyZQB3d3cuaW5rc2NhcGUub3Jnm+48GgAAIABJREFUeJzsnXmYVNXVd9fupmkFFYkoihjBEQVN1DhEkSSKcTYOQOLwOcbEDJpEjV0G5yGUeY1vjMZofKPGqHEeonEeEqPGOEQFRECUCOIsOCACDbW/P8699KWo6q7hVp17q/Z6Hp6mq2vY0HD7V3udfY6oKmkjm82OBs7LZDI71OP1ROQ7wF+A/VT17rifP5vNbgXcnMlkNo77uX1w/PHHv6OqA4F7L7300r1911MtF154Yd8lS5bMz2QyLUDZ/2FERIB9gLOArYF3gf8FLlbVhXHWmve6/wTWB9bXvP/o2Wx2YVtb2+CTTjrpg1q9fj3JZrNzWlpadjnllFOm+a4lDrLZ7EQROa6jo+Mp37XEQTabfUxELuro6Oj2+ikiXwJeBDKqekF9qiufbDZ7K3BPJpO5ppLHi8hQIAMcjbum3Aico6ozYiuyDLLZ7BXA9Ewm82sfr18LevkuICWMBT4FHvJdiJEeioSaDDUONcFrrwPsCPwmP9gYRoIZG3y81WsVNaJAqPkLHkNNI2PhpgdEpC+wO3B7rX8gGY2Bz1ATYSzQAtxSp9czjDg4CHheVV/zXUicWKipPxZuemZfoC/2Q8LogW5CzW9V9fM6lzMWmA38u86vaxgVESipYbj/Mw2BhRp/WLjpGVNSRrckLNSYkjLSSsMoKQs1/rFw0w0i0gdTUkYRCoSa9/AYaiKYkjLSSOqVlIWa5GDhpnv2w5SUkUeCQ03IWOBNTEkZKUFEtiTFSspCTfJo8V1AwjElZSzj7LPPFhHZF3gO+CswGHdBG6KqFyQh2IjI2jgldbMpKSNFhErqNq9VlImIDBWRK4DpwFG4ULO5qh5uwcYv1rkpQkRJ3WFKqrn57LPP5PXXX+faa699BtiG5HVqoozDlJSRPsbglFQqAsHbb7/d97bbbjsCuBLr1CQSCzfFMSXV5IT6SUTODpog65HcUBNiSspIFWlSUqF+EpHdgRxwAxZqEolpqeKESupB34UY9UUc+wLPEuinPfbYg0GDBg1Nin4qhCkpI6UkXknl66eNNtpo9uGHH/4L00/JxcJNASJK6i5TUs1DgVCzHpDZZ599Nv/a177GnDlzEhlqIpiSMtJIYpVUsTU1Rx999LPDhg17z291RndYuCmMbdzXRBQLNQQLhUeNGpX0UBNiSspIFREllahrrS0UTj+25qYwpqSagMhI95kkf6Fwt0SU1MWmpIwUkSglVWSk+1xVfdVrYUbZWLjJI1BSe2BTUg1LI4WaCLZxn5FGwo37vHZDLNQ0HhZuVsSUVIPSoKEmJFRST/suxDBKIVBSm+FxSspCTeNi4WZFTEk1GA0eakIltROmpIx04U1JWahpfCzcRDAl1Vg0eqiJYErKSCN1V1IWapoHCzfLY0qqAWiiUBNiSspIFfVWUhZqmg8LN8tjSirFNGGoMSVlpJW6KCkLNc2LhZsAU1LppRlDTQRTUkYaOQj4T62UlIUaw8JNF6akUoiIjAayNF+oCTElZaSKiJI6tQbPPSR4Xgs1TY6Fmy5MSaWIINRMAL5Cc4aa6MZ9vzUlZaSIUEndGtcTWqgx8rFwgympNGGhZjnGAq1Yt9FIF7EpKQs1RjEs3DhMSSUcCzUFMSVlpIq4lJSFGqMnLNw4TEklFAs1hTElZaSUqpRUXqhpwU1bjbdQY+TT9OHGlFQysVDTI6akjDRSkZKyUGOUS4vvAhKAKakEISKjReRZ4CHgi7hQM0RVL7BgsxympIxU8fTTT6+PU1IlX2tFZIiIXAG8CnwXuAMYpqrjLNgY3dH0nRtMSSUC69SUjikpI4385z//GRn8tkclZZ0ao1qaOtxElNSdpqT8YKGmIkxJGanjvffe25EelJSFGiMumjrcYErKGxZqqsKUlJEqZs2a1XfhwoXrAZcV+rqFGiNumj3chErqAd+FNAsWaqrDlJSRRl588cW1gt8up6SKhJrTVHV6PeszGo+mDTempOqLhZrYMCVlpI6pU6euufLKK7+2YMGCGWChxqg9TRtucActmpKqMXmh5n0s1FSLKSkjVYjIFkCfDTfc8EkLNUa9aOZwMwZTUjVj5syZPPXUUyOBvYC3gZ8Cf7BQUzkisg6wE3CJKSkjRYwBePfdd7fCjXQDXAecp6qveavKaGhkwoQJ7/kuogJ6i0gfVf2okgcvXrxYzjvvvDWGDRu2+JBDDvkk7uIqoBewGjDXdyHVMnny5N4PPvhgv/fff5++ffvqqFGjPvvqV7+6sK2tLe0/jNfEdZ688eSTT658zz33rHLsscd+tMEGG3RW+XQDcP/ecjGUlgTWUNWPRGSp70Jior+IzFfVar/PXvnggw9ar7rqqn7z5s1rbWlp4Utf+tLCXXbZZcGAAQPS/n1aDVgMNMqShlWBJUCa33w+n8lk9gw/6QXs4LGYilDVnUTkRNxul2Vz5ZVX7tXZ2XnJxx9//BPcZnFeUdXNReQSYFfftVTCkiVL5Morr9z17bffPqGzs3N4nz59ciNHjmwZPnz4P4cMGXKU7/qqRURWVtXJeP6/8sADD9zQ0tKy/rrrrrszVYYSVX2ld+/eu3d2ds6LqTzfPKWqh4rITN+FxMS9InKaqv7HdyGV8MADD3zxmWee+fGCBQv2B1r79+//+f7773/uJptscpPv2mLid8CjOK3WCJynqjNF5I++C6mUpUuXLop+Lmnsbmez2dHAeZlMpqIfNiJyM24x8VpJWEyczWa3Am7OZDIb+66lHEREcOP0ZwJb4/TTr4477rhTW1tb1wLuvfTSS/f2WWMcXHjhhX2XLFkyP5PJtOAO6as7gZJ6E6ekflrt82Wz2YVtbW2DTzrppA+qr84/2Wx2TktLyy6nnHLKNN+1xEE2m50oIsd1dHQ85buWchCRDYHTgMMAAZYCvQ855JCJW2655WkdHR13ey0wJrLZ7K3APZlM5hrftcRBNpu9ApieyWR+7buWuGi64xeCKam9gL8mIdiklWCh8L+Bu4D1cAuFN1LV3/Tq1St9iTn5HIT7/3qz70IMI5/IMQlTgcOB2cGXegPvb7HFFqlX7ka6aLpwg01JVUVw9tMzOJ03hOXPflrgtbjGJpyS+pfvQgwjpMDZT9OARcBQ3JYFAFd4Ks9oYpox3NhZUhVgocYfwcZ9OwG32pSUkQQKhJoXcQvUhwMr5d39T3UuzzCaK9wESmpPnJJK86rwumGhJhGMwTbuMxJAgVDzFDAdt4/VgPBuwcdO4KXuzpIyjFrRbPvcmJIqkWBNzS+BbenafO8SCzResI37DK+IyPrAL+jafO8h3Hqab3TzsDagUaajjJTRbOHGlFQPWKhJFhEldYmqNsqeNEZKKBBq7gU+o6ubWIy3gEHYG0nDE00TbiJK6k5TUitioSaxmJIy6k6BUHMX8BpwHLAKPW+J0Am8YErK8EXThBtMSRXEQk3iMSVl1I0CoeZ24Fnc8SkH0BVqpOATOB4GRmNTUoZHmmlBsSmpCLZQOPnkTUmZkjJqhoisHywUnoFbKHwHcAywCXABsE54126eRnFb+IcbKdobScMbTRFubEqqCws1qcKUlFFTglBzMS6QhKFmX6APcDWwZTlPB1wK7IIpKcMzTRFuMCVloSadjAXmYErKiJm8UPNj4K+4yad5we/LPTZFgY9xZy1tRhNfa41k0CxrbppWSdmamnRiU1JGLQjW1JwIfB83qn0bkAUOBO4HVq70qYFzgd2Cz2+trlLDqI6GDzcRJXVXMykpCzWpx5SUERtFQs1ZwCjcePfAKl9iJk5JvYBTUq9W+XyGURUNH25oMiVloaZhMCVlVE2RUHO6qk4TkS2AD4Hju3mK3sCv6Tn8ZICNcUrqF9XWbRjV0gzhJlRSD/gupJZYqGkcTEkZ1dJdqAnvo6qTgEklPNfjwGPAhkXu8m/cm8ezgs9NSRneaegFxREldXejKqlgofC/sYXCjYQpKaMiiiwU3lxVx0WDTTmo6mzcYuO3i9zl5OBA17GYkjISQkOHG9yK/4ZUUnmhZigWahoJU1JGWcQZakRk1fzbgoBzYYG736KqT4jICGxKykgQjR5uGk5JWahpbGzjPqMc4u7UiMh3gWkisnmBL2ve7zvpWl8zNvhoSspIBA0bbgIltRcNoqQs1DQNB2FKyuiBWugnETkWd2TCOsCjRQLOsrsDl0Y26huDKSkjQTRsuKFBlFReqNkACzWNTqik/uW7ECN51CLUBM97HC7YhD8TBgK3ikixk78/As4PHjsC2JyUX2uNxqKRp6VSraSC6afzge2AD7Dpp4YnUFIjce+ITUkZyyhl+qmK5+4N/IDlz436BDhGVZdG7xr5/dmq+mHwe1NSRuJoyM5NmpVUgU7N2cCG1qlpCkxJGctRq05NFFVdjDvFOxwL/wTYXVWLdQ9fBy6LfG5Kykgcjdq5SZ2Smjp1ap8g1ISdmrOBi1T1E7+VGXXElJQBwIcffth2zTXX/BTYj5g7NYVQ1fdFZFfcwZknq2p3k3odQSCKKinbuM9IFI0absYC80mBkhKR0e3t7f+7aNGiQbjdQC3UNCGmpAzo0k+tra2bLl26dBNqFGpE5AuqOjd6m6q+j/s3WPRhuO0JbovcFiqp2+OszzCqpeG0VERJ/TXJSiqqnzo7OwePGjVqLk4/nWXBpikxJdXE5OunjTba6JO999770Dj1U+S1jgVmiMi2ZT5U6dqwL2QM8GKtOkqGUSkNF25IuJIqtKbmuOOO23fPPfeca6GmqTEl1YSIyBcLrak58sgjZ+28886zavB64bh3f+DBMgPOXar6ZOS5bErKSCyNGG4SqaS6WSh81nrrrfeZ3+oMn4jIQJwOsI37moRIqJlOjRYKF3jNH+GCTTj1tDpwk4i0lfJ4VX0t76ZQSd2Wf1/D8E1DrblJopISkb2BM3EHWr4HnAxcrqoWaIyQUEnZKG2DIyJDgPHAEbg3l38Bzqu11hGRXsAhLD/O/TFwsKp2Vvi0Y4CXTEkZSaTROjehkrrZdyGRTs09uB2FzwY2VtVfW7Ax8hiHO5TwKd+FGLUh0qmZChwN3AmMUNX/V49woKpLgG8Cjwc3fYwb9/53Jc8XUVLer7WGUYhGCzfelVQQap6mgH6yNTVGPpEpqZtNSTUeRfTT8EA/Ta1nLcGbqv1w18dvVhpsAkxJGYmmYbSUbyUV7Ch8HrA9tk+NUTo2JdWAiMgXgZNYfkfhM+oZaERkHVV9O3qbqn4M7BHD09uUlJFoGqlz42VKKq9TsyHWqTHKYyxOSdmUVAOQlE6NiHwfeFVEdqnBcw/HpqSMhNNI4SZUUvfX48Us1BjVEpmSMiWVcpISaoJavg/8Hvdm7+4aBBzbuM9IPA2hpeqppEw/GTEyBlNSqSYJ+imvnhOA39A1FdUHuFZENlLVhTG9zFickvLyZzSMUmiIcEMdlJSFGqMGmJJKKUkLNUFNLcCeLD/u/RFwQFzBJqKkxsfxfIZRKxpFS9VMSZl+MmqBKal0kiT9lE/w7+hbuO0noGvc+9kYX8aUlJEKUh9uIkrq7jiVlIUao8aYkkoRRY5JSESoiRKc1j0Wt//MaFV9JuaXMCVlpIJG0FJ7EaOSMv1k1AlTUikgop++B/QmAfopiogMVdWZ0dsCBfXtGryWKSkjNaS+c0NMSso6NUa9iCipW0xJJZMCnZq7SVinRkSOA14Rkf3r9JKmpIzUkOpwEyipvalCSVmoMTxgG/cllDSEGgAR+SlwGdAO3FyngGNKykgNqQ43VKGkLNQYHgmVlJ0llRDSEmpgWbC5iK6pqDbgChHpW8PXtI37jFSR9jU3ZSspW1Nj+CRQUjsDvzMl5Z+kr6nJR0QEd+2KjnvPA/au8YG8pqSMVJHacLN48eIWnJIqaeM+ERmJCzVfw0KN4Q9TUgkgbaEmRFVVRA4DlgKH4vax2UNVn6vxS5uSMlJFasPNxIkTV6cEJWWhxkgYpqQ8ktZQE0VVl4rIkcAC4ApVfb6Wr2dTUkYaSW24mTx58hfoRkmJyB7AmcAOwPtAB3CZqs6vW5GGESGipC4zJVVfRGR94FTgKNx170bg3DSEGhHZXFWnRG9T1SW4gFYPxgQfb63T6xlGVYhIayoXFH/00Uftr7/++uoUmJISkZEi8nfgPmAjXKdmI1X9lQUbwzOhkrrZdyHNQmSh8FTgWOAuYISqHpqSYPNTYFJwGKYvxgEvqep0jzUYRjmMSmXn5v7779++s7NzuXULgX46F/g6pp+MZGJKqk6IyHrAySyvn85U1Ve8FlYGl1122beBE4JPfy8iqOoV9axBRIbhlNRp9Xxdw6iSsans3Lzxxhuj2tralgL3B52ax4B/AltgI91GAokoKdu4r4aIyHp5Zz89DGwdjHSnJtg88sgjA2bNmnVC5CYBzhORfnUu5TvBx9vq/LqGURHBAbL7p65zIyJ9WlpatuvXr1/nvHnzHsWtqfkAyODGa009GUnkQJySsnULNWDevHmtl1122dnAAbg1NTfh1tSkJtBEmTt3bu/8m3CHYH5c51LGABPToPAMI2AUsI5ks9kXfFdSDo899tiABx54YDDAyiuvvOSrX/3qe6NGjfpgpZVWSvO74ZWBIUAqL8T5zJkzZ0Qul+vV3t7+yVprrfW673qqRVVbgC1F5MVKn+N3v/vdRnPnzm0fP378yy0t/humqvolYLKILPVdSzV88MEHvR955JG1Jk6cOCCXyzFs2LB5o0ePfnfddddd6Lu2asjlcsNuu+22hc8///zq7e3tS4844ojXNthggwX1rGHOnDkrXXLJJcO+9rWvvb3nnnu+W81zqepGIvIe0Cjd9CGq+omIzPVdSByo6nrAouB7lEpUddKpp576XeBPwHd65XK5E3p6UBK47bbbtnv55ZePWrhw4eCWlpbOr3/96/OGDx/+/9ZZZ53PAXK59GYbEdlYVc+hy6+nGlW9E/hCZ2fnlFwud4rveqqltbV1pVwu9yDwk1wup+U+ftq0af1nz559x5prrnkHcHES/q2KyMOq+gsPnYBYeOGFFwY++uijh82dO3cvVW0dMWLEouHDh5/+pS996WlI9/Ug4OoxY8Zc9Oabb+48YsSIh4cMGTK93n+m22677Shg2KqrrvrzXC43q5rnEpGLc7nczcCT8VTnFxE5F3gql8vd57uWOBCRk1V1tqre5LuWSvjkk0/arr/++l2AV4EvAv8V1bKv1XVFRHbHjXR/FTf6vcrqq6/+WEdHR59MJrOD3+riIZvNbgXcnMlkNvZdSxwcf/zx76jqQODeSy+9dG/f9VTLhRde2HfJkiXzM5lMC1D2fxgR+QHuHKBRqvrP2AusgGw2u7CtrW3wSSed9IHvWsoh2KfmVOBoIvppwoQJD7e0tOxyyimnTPNaYIWIyDbR/Wqy2exEETmuo6PD2+JzEZkMLA26fFWRzWYfE5GLOjo67o6hNO9ks9lbgXsymcw1vmuJg2w2ewUwPZPJ/Np3LeUgIr1x14JTcaHmU2BV4Pv+++NFiCwUvh/YBLdQ+CcAQ4YMedxnbYZRJuOAd2iQd60+iCwUnoabgHoQ2EZVD0nrupoQETkReE5EMr5rCQmmpIZj2xYYCURE2kTkcGAK8Htc4+MI4AZgCXBn4sJNd9NPwO7A/N133/1ZjyUaRslEpqRutimp8iky/bSNqu6rqhWvgUoKQbAJ3y1PSFDAsSkpI3FEQs0ruLU1i3ChZkvgOmA/4DFVfS8x4aaHke6PRaQP7hTwe1ZfffVFPms1jDKws6QqoNFDDYCI/JyuYBNysogM8FFPHmNxG/fZlJThne5Cjapeq6pLCaakCK613sNNT6Emcte9gFWwHxJGuhiLU1K2cV8JNEOoibBK3ufhIZhe10FFNu6za63hlRJDTchYnJK6CzyGmzJCTchY4DOKnCVlGEnDlFTpNFmoAUBVzwTOCT6dB+xWh9O9S8GUlOGVMkNNuHHfAQRKCjyEmyDUPErpoYaIkrpbVeu614NhVEG4cZ+9Ay5CM4aaKEHAGQ/skpBgA6akDE+UG2oiLKekoI6nggdnP50DfAP4EBdq/rfEfTb2xJSUkT5MSRWhwNlP9wKnN3KgEZFRqrrCpKeq/tJHPYWws6QMH4hIG3AwcAawIW4K6gjg+m4CTZSxwFICJQV16NzkdWq2pIROTQFCJfVAjco0jFgJlNQo7Cyp5WjWTo2InAT8Q0T+x3ctPfDt4KMpKaPmVNGpiT5HqKQeDZUU1LBzU2WnJvo8fYC9cUrqs9gLNYzaYEoqQjN2akKCYHNh8OnJweneP/dZUzeYkjJqTgydmiihkjozemPsnZuYOjVRTEkZaSRUUk29cV+zdmpCRKSDrmATcqSIrOOjnu6IbNxn11qjJhTo1CymzE5NAVZQUhBj5yauTk0BTEkZqUJE1sRNSf2+WZVUkU7NGaqaqoN6Y2Ah7sgOCT6fhxv3fttfSUUxJWXUhAKdmleovFMTfd6CSgpiCDc1DDWmpIy0Mgb3f6vp3gFbqFkeVb1YRAS4CLePzW7RM6QShikpI1ZqFWoiFFRSUEW4qWWoiWBKykgjTaekLNQUR1V/IyKLgSdV9SXf9RQioqRsSsqomkioOR3YiPhDTUhBJQUVhBsR2Q2XknbChZpfAJeq6qdVFlmIMbgDsWzjPiMViMhauHcTTaGkglCTAY4B2nBvRM5V1Ze9FuYJEdkTuF9Vlzs9XlUv81RSqYwLPt7qtQoj1QSndB+JywXr4xYKH0wNNjIttHFflJIXFIvIbiLyBO403mG44oeq6oRaBBsRWRnYB/ibbdxnpIimmJIKFgr/DngVOA64E7co8DtNHGx+jutYXRlceNPEWGCiqk7zXYiRPkSkt4h8Dzc4cAWwADgE2EJVb6zRG72dcUqqYCDvsXNTJ/1UiPAsqZtr/DqGESfjaGAlJSKDgZ9j+mk5gmDzq+DTY4LbvpeG7l2gpEbgFIJhlEwd9VMhxuGU1B2Fvlj03UUNRrrLZSwu/dmUlJEKIlNSt9ThP3ZdEZGBIpLFdWqOx410fyUY6W72YHMqXcEmZD9gsIdyKiGckjIlZZREZKR7Cm6kuxMXaraoYqS7nNfvVklBgc6Nx05NtIZwSuqvNiVlpIiGm5IKdlr+GfAToB34G9apyed13GnE4fX0fWBXVZ3lr6SyCJWUTUkZ3eK5UxMlnJI6q9gdloWbJISaCDYlZaSRhjlLykJN6ajqTcG4959x+9jsqqqTPJdVEpEpKVNSRlESFGpCwimpO4vdoZeIjMaln3D6aTxwSY2mn0plDG7jPpuSMlJB3pRUapVUsKYmA3wXN/10K3BOsy4SLhVVvTFolU9U1cm+6ykDm5IyihKEmiNxA0RDcKHmEOAmX+vJIkrq78WUFLjOzUPAXFyn5jeq+lF9SixMZErqHpuSMlLEQbgpqVQugI90ak4AVsI6NUURkQNxynxJ9HZVvcFTSdUwDlNSRh4J7NRECaekzuruTi24TZuGBAuFvQabgFBJ2TsJI02MAd4mZVNSIjJYRC4F3sBNQd2NG+lu+oXChRCRU3DHE9wY/ABILSKyGU5J2bXWAJYtFD4WN9IdLhQ+FBhRj4XCJTIGt8at4JRUSC9VPb8+9ZTMONyU1H2+CzGMUgimpFK1cd/8+fPloosuOh04FuvUlEQQbC4IPj0IuEFEDs7v4KQIU1IGAJ2dnS0PPvjgV3DTTxvhFsl/H/hjQgINsExJHYRTUu93d9/YDs6Mg0BJ2VlSRtpIzZRUsDboxLa2tt6dnZ3HY6GmJETkF0D+G8FRwHrAzPpXFAvhlNQrvgsx/BDqp1VWWWXc/PnzVyOhoSZCSUoKytihuE6EG/cl/oeEYURI/JSUiKwV7FPzX+CUDTbYILfhhhuONv1UMi8AiyKfvw+MVtVUBhsR2RSnpOxa24QU2KeG7bff/lZgE1X9Q0KDDZQwJRWSqM4NXRv32ZSUkQoiG/clckoq7NSw/ELhM4888sin2traJnotLkWo6n0icgDO83+MCzapGPcuwneCj7d5rcKoKwUWCr8OfD+TyXyltbV12tNPP524a1hIoKQOpJuN+6IkpnMjIivhOjempIw0cRAJVFL5nRrgEbp2FP6P1+JSiqreh1OQu6Q82IApqaaiQKemBaefNlHVP7S2tmq3T5AMQiVV0rU2MeEGF2xWJWE/JAyjBxKlpCzUxIOIHBasAVwOVb0n7Xv+mJJqHroJNZsmXD8VomQlBckKN6akjFQRmZK61fdFwkJNfIhIB2634bsKBZwGIDxLypRUg1JCqEnVhF8pZ0nlk4hwEygpm5Iy0oZ3JWWhJl6CYJMNPt2Nxgw4pqQalEYLNRF2BgZRxrU2EeEGU1JGOgmVVN037rNQEz/B6d7ZvJu3BNb1UE5NCJTUCOxa21BEQs3LNFaoCSlLSUFypqVMSRmpIqKkLq+nkio2/WSBJhYeBz7FvdECeA83FTXDX0mxY0qqgYhMP50GbEzXPjVXNUCgASpTUpCAzo0pKSOl1FVJWaem9qjqk7gu8nxcsNk1ZYdgloIpqQagQKemlcbq1EQpW0lBMjo3pqSMNFIXJWWdmvqiqk+IyN7AB6o6xXc9cRJRUqf7rsWojAKdmpk0WKemAGUrKUhA5wZTUkbKqMeUlHVqao+IfFdE+uXfrqqPN1qwCTAllVIKdGp6EdmnplGDTURJ/b0cJQWew41t3GeklJopKQs19UFEzgKuBB4Vkf6ey6kXY4FJpqTSQ7OGmggVKSnw37nZC1gNU1JGuohdSVmoqR9BsDkz+HRr4KFGDzg2JZUuLNQsI1RSd5T7QN9rbkxJGaki7ikpW1NTX0QkQ1ewCVkXWBOYV/+K6kaopG71WoXRLU26pqYg1Sgp8Ni5CTbG2hu4x5SUkSIOxL0pqOqHhIgMEpGLgTdwnZp7gS9bp6bm3Ad8GPk8HPee7qmeejEGmGxKKpkEnZqjgam4Tk2JmQqEAAAgAElEQVQO+H/Axk3WqYkyEqekKrrW+tRSe+KmpG72WINhlMs4nJJ6opIHR/TTDOB44GGcfhqjqnZKd41R1ZeA0biA8y7uEMxUnxXVE4GS2gK71iaOPP30R0BwnZoRqnqd72NdPDMOp6Rur+TBPrWUKSkjVay66qoDqFBJmX5KDqr6ooh8E1igqlN911MHTEklDNNP3VOtkgJPnZvIlJQpKSM1LFiwYAxlTknZQmG/iMjxIjIw/3ZV/U+TBBuwKanEYAuFSyZUUhUvgPelpWxKykgduVxuDCVOSRUJNdtaqKkfInIO8Fvg7yKyju96fGBTUslARFpEZCwWakql4impEF/hJlRS93l6fcMoi88++wxK2Livh1DzfD1qNZYFm3An3mG4/WyaMeCYkvJIJNRMxa15slDTA4GSOpAqlBR4CDempIw0MnnyZOhGSVmoSQ4i8nNWPGKgH10HYjYTpqQ8YKGmKqpWUuCnc2NKykgdkyZNggJKykJNIrkTmBP5/F2aY9x7OUxJ1R8LNbFQtZICP9NSpqSMVHHjjTeuMXPmTIgoqSLTT2dZoPGPqr4qIt8AHsNd43Zp0LOiesKUVJ0IVMpBwPnY9FPFxKWkoM7hxpSUkUamTJmyfy6Xo1evXrdaqEkHQcDZBRBVnea7Hk+YkqoxkVBzHrAJFmqqJVRS51T7RPXWUnvglJS9kzBSw8KFC49ubW1lyZIlY+jST/cDW5l+8o+InDx37tzW/NtVdXqzBpuIkrJrbQ3I5XJy2223jQSm07U54uE0947CcTCGGJQUgEyYMOFv1ddTGldfffWXX3/99YGnnXbaw+3t7RXvvKiqA1paWjZR1afirM8jq+EO8Pu75zpi4a233to1l8u19+7d+/211lrrWd/1VMPMmTNX+8Mf/jAy/Hzo0KHv7LbbbjOGDh36ic+6YmAP4FFgse9CquHOO+/c5N///vdG/fr106OOOuqZgQMHftjzo1LBzsBkKjzv6u67797oqaee2uRHP/rR44MHD54fb2kVsb2qzhSRqlSDb5YuXSpPPvnkuk8//fTwefPmtfbr1++zkSNHzthxxx3famlpUd/1VcEI4DNc58kLuVxOzj///G/079//sx//+Mf/LvfxIjK1o6PjpPDzXsC1sVZYhAULFrTNmDHjG/3793+2vb396mqeS0S2UNUvUKfa68AQYCMa5M+jqjsB7UuXLn2TlP6ZZs6cufq99977rTfffHMngEGDBrHDDjt0bLvttm/4ri0mdgNuAj71XUilXHHFFeP++9//bgTw8ccfy+WXX77JuHHjztxss81S/QM0YERLS8t9uVyuokXQL7zwwq9WXnnl2YMHD74s7sIqZEhLS8ujad3jadGiRa133XXXyClTphy4aNGigf369Vu42267/WPkyJH/17t375zv+qpFRI5V1bdwmt0L//jHP4YtWLBgzw022OB64KFyH6+qy72xEdX6hE0R2R/XahqnqlWt3s9ms6OB8zKZzA6xFOeZbDa7FXBzJpPZ2HctcXD88ce/o6oDgXsvvfTSvX3XUw7BXigdwPdwa2oE4KijjuKqq65qAdL87mwZ2Wx2YVtb2+CTTjrpA9+1VIKInAj8OnpbS0vLe7lcbudGmIrKZrMTReS4jo6OsrvTgZKaijveo+q1C3GQzWYfE5GLOjo67vZdSzmISC/gMNwxCRsCrwLnnX/++d9qaWm5O5PJXOOzvrjIZrNXANMzmcyve7xzjRCR3wI/BAZVu5gY6rvmZhxuSureOr6mYZSEiKwZjHS/hlss/ASRrsZKK63kqzSjMNcDyxbK9u3bN7fTTjsd3QjBJgbGBR9tBLxC8nYUvhr3s/L7wOaqem3KFVTiiCzMrnpKKqQu4SaYktobm5IyEkYk1LxBZJ8aYBFuLRQAvXv39lOgURBVfRfYBRdw3jn22GM/2GeffWZ4Lisp2JRUhURCzSu4hcJt2D419SCWjfui1Ktzsye2cZ+RICKh5r84DfUkweZ7wJeBfaL3b2trq3uNRveo6ju4tUOjBg4caD90WKaktsCutWVRINT0xkJNPYll474o9Qo3tnGfkQgKhJqncKd076aqz4vIEOB/geUWCba3t9e5UiOKiIwXkc3zb1fVOar6qo+aEkqopGwEvAS6CTU20l0nIhv3/SMuJQV1CDempIwkUCTUbBuGmuA+LcBVuDOIlvu/YVrKHyJyHm6TtMdEZITvehLOWGCyKanusVCTKGJXUlCfzo0pKcMbPYSa5/LufgLwjQJPo716+TipxAiCzfjg07WARyzgFMaUVM9YqEkkoZK6Pc4nrccV25SUUXdEZE3gJOB4oA/wMHBqgUAT3n8YMAGno/JD/+KWlhbzUnVGRE6gK9iEdOIWexsrYlNSRShwTMJ/sWMSvFMrJQU17tyYkjLqTZmdmvAx4WaWK1H4/8SCGpVrdM+1QPR79g6wm62xKYopqTysU5N4aqKkoPZaypSUURcqCTURfoEb/y723BbMPaCqH+GmoZ4D3gR2th/chTEltTwWalJDTZQU1F5LmZIyakq5+qnA47fC7T6qBLsRFyAJZ/M0Jar6kYjsAayuqq/5rifBmJLC9FOaqKWSghp2biJK6m+mpIy4qbJTEz5HO0599KJ4sFEs3NQFETlbRLbPv11VP7Rg0yNNraSsU5NKdqJGSgpqq6VMSRmxE0eoiXAe7jTcYsEGQFtaWmzNTY0RkfOBM4AHRKQhzoyrFyKyCU2qpCzUpJrYN+6LUstwEyopO0vKqJqYQw0isiNwIj0fhCmAdR5riIhciFv3BNAPuF9Eiq6BMlbg28HHptm4LxJqpmChJnVE9OE/gqNUYqcm4caUlBEXcYea4DlXAa7DBZfuujYEX7fOTY0QkR/g1kxF+QSY66GctBIqqSm+C6k1BUJNOxZq0khNlRTUrnNjSsqoilqEmgj/Awxl+WAT7p9SqJNjAb12/Al4LPL5bOAbtsamNJpFSVmoaThqqqSgduHGlJRRETUONYjIbriLYsgS4M+4TmM78Bp5AcfW3NQOVV2AO6T0MSzYVEJDKykLNY1HPZQU1CDcmJIyKqHWoSZ4jf7ANbiOTSfwB2AjVT0cODy426WsuHWB/TuuIUHA2Q8YZcGmbBpSSVmoaWhqrqSgNp2bPTAlZZRIkVCzXZyhJsIlwABcqNlYVb+vqm8EX9sLd/TC74Gz82q0zk1MiMgvg+7ZcqjqfFX9r4eSUksjKikLNU1BzZUU1CbcmJIyeqSHUPNsDV5vb9x/qOF5oSb8IfEFYIqqLlbVZ1j+3691bmJARCYApwJ3B98PozrCjftSr6Qs1DQHeRv31UxJQczhJlBS+2BKyihCvUNNhMdV9QhVnVHga6cHH/8YuW1Z96a1tdU6N1UiIr8GMsGn7cAtIlLoBHajdFKvpCzUNB07AetSh25j3J0bU1JGQTyGGgBU9dNuvhwqqcsi91/WvbGzpapDRI7G7SkU5X3gjQJ3N0og6DZuSUqvtRZqmpa6KCmIP9yYkjKWw3eo6Yl8JZX35bPBpqVi4Drgrsjns4FdVPV1T/U0AqlUUhZqmpd6KimI8eBMU1JGlIULF/LUU09tigs14YGWv0hCoMmjkJICXPdGRO4VETtbqgpUdbGIjMN1GbbCxr3jIFVKKpfLye23374Tbo+p8LpgB1o2F6GSOq8eLxbnqeCmpAxEZMCXv/zlVSZPnsySJUs2JLmhJmQFJZXHGb179+5Xx3oakkjAWVNV3/RdT5qJKKkzfdfSE+GeJquvvvq2H3300ddwKtJCTXMyFnetvaunO8ZBnFrKlFQTIyIDROQs4LUXX3yx7zrrrMN+++33ZFL0UyF6UFIAqOrzu++++wv1rSy9iOPCIMgsh6ousmATC4lXUvn6acmSJS3Dhw//HW5fKdNPTUaeknq7Hq8ZS+fGlFTzIiIDgB8DP8N17h4eM2bM1gMHDvwC8LHX4nqmqJKKstVWWy1essSuxSUyAXdW1FIR6aWqN/guqAEZC7ycRCUV2X32XJx+egP4fkdHxyFtbW0PdHR02H+k5iRUUufX6wXj6tyYkmoyop0aXHv8GYKFwmuvvXan1+JKpyclZZRI0LH5DW7ROEAr8CcR2c9jWQ1HUqekCiwUXgmnnzZS1T/06tWr0JltRvMQKqk76/WCca25MSXVJBTq1JDsNTUFiSipycWUlFEWBwM/ybttDjDJQy2NTKikEhFuinVqsDU1RoAPJQUxdG5MSTUH3XVq0hZsAkpSUkbJ3AhcG/l8Fm7ce6anehqVRCipIp2anwKb2poaI4+6bdwXJY7OjSmpBqZROjUFMCUVI6qaCzbrA/g6btzb9rGJkYiSOstjDYU6NT8FLlfVRb7qMhJN3ZUUxBNuTEk1IA0cakxJ1QhVXRoEnDVV9R3f9TQg3pRUJNScAwzDQo1RAr6UFFSppUSkHaek7jUl1Rg0oH4qRKikrvJaRUoJFw+LyA/zv6aqSy3Y1Iy6K6mIfnoZp59Wpks/XWzBxuiBHfGgpKD6zs2emJJqCBq5U1OAUEn9znchaUNEBPgNcAKgIoKqmtqrMfVWUtapMWLCi5KC6sNNqKT+FkMthgeaLNSYkqqCINhcDBwf3gRcIiIfq+r1/iprCuqipCzUGHER+bdUdyUFVYQbU1LpptlCTQRTUpVzAF3BJmQW8ISHWpqNmiopCzVGDQiVVN027otSzZobU1IppMiamu0bbE1Nd9iUVIWo6u3ABZGbwnHvNzyV1BTUcuM+W1Nj1BBvSgqq01KmpFJEkU7NeFV9xmthdSRPSdlFuwJUNePsFAcDX7d9bOrC2OBjbOHGOjVGLfGtpKDCzo0pqfTQQ6emaYJNwPjgoymp6jgV2NqCTd2ITUlZp8aoE96mpEIq1VK2cV/CsVBTkL0xJVUSwbj3JSJyWv7X1PGhj7qajaDb+CWqvNZaqDHqjFclBZVrKdu4L6GYfipM8ENiDdw7YLuQd0MwFfVb3L8jgnHv8/xW1bRUpaRMPxn1JglKCiro3ARKal+ckpoff0lGJVinpkdCJWVnSXVDEGwuJQg2AeeKyA88ldTsjAWmlqukrFNjeMS7koLKOjempBKEdWpKxpRUaewO5O88/Do2OFB3nnjiifVwSuqsUh9jnRojAXhXUlDZmhtTUgnAOjWlE1FSr9gFvntU9X7glMhNbwCjVXWWp5KalhdeeGGX4Lc9vpG0To2RBILO7wF4VlJQZufGlJR/rFNTEaakykBV/ye4SP0Qd7q3TUV54IMPPtiFHpSUdWqMhLETsB4wwXch5XZuTEl5wjo1VREqqd/7LiRpBCFmBVT1V8CWFmz88Pbbb7cvWrRoI+DGQl8v0Knpg3VqDP8kQklB+WtuTEnVGevUVEfelNRC3/UkicWLF4dnQ3Wq6s/yv66qn3goywBeeumlfsFvl3sjWaBTMwvr1BgJIKKkHvetpKCMcJO3cZ8pqRpjoSY2TEkVQFU555xzJgDHAIiIquqJnssyAqZMmdKvd+/ebyxatGgKWKgxUkGopLK+C4HyOjd7AP0wJVVTLNTEjimpPEREtttuu14LFy48JnLzz0TkXVW9oOgDjboQdBtXWnvttR+JhJqzgc2wUGMkl1BJ3eG7ECgv3IwBPseUVE349NNPW0XkAtwizlVwf89nW6ipHBHZGFNShRj17LPPtubd9hpwg49ijBUYE3xsBSbjQs1/ge8B16hqp6e6DKMgQQg/EPhnEpQUgGSz2T/0dKfFixe3nnvuuYcNGjRozg9+8IOH61FYd6jqusBXROQu37VUy9y5c1d65JFHtp80adLGixcvlnXXXXf26NGjn99ss83e911bpcyZM+ewXC63cu/evWcPHDjwfl91XHnllV9/7bXXNt5xxx2f3m+//SZV8VS9VPUoEbkytuI888wzzxxzxx13iKpK3759Pz3mmGP+NmjQoE9911UpqnqoiNwDfOy7lkpZvHhx66uvvrrGLbfcstvChQv7APTp02f+Djvs8MI3vvGN6W1tbTnfNVaKqu4jIhNxnadGYLSqzhKR6b4LiQNV3Rn4OPgelc2kSZMGXn/99fuNGjXqyb322qvqM9Aq5PWOjo5lSqxXLpeb2tMjHn/88eGdnZ29hwwZ8kQp9681IrIUGJ6EWirl3XffXeW+++772muvvbbT0qVL2zfeeOPFW2655e+32WabWQC5XGqvYwBLAHK53Hyf36M33njjEEB33XXXO3K53JIqnqp3cATBNFXVuOrzybbbbpt75513/vbCCy/sfPDBB/9+7bXXntsA/+Zmqup7vgsphQ8++KDv1KlTB82ZM2fdDz/8cNC8efPWXbBgwUBVFYDW1lbdbrvtnthjjz3ubmtrWwqpvybsAsxR1dRes6OIyPaq+nYD/Xm2AN6v9Hr9r3/9a5iI5LbccsuHcrmclzdJIrJcx0hKuVaLyJ9x3netJCwmzmazo4HzMpnMDr5rKZdgTc3JwI8I9NP2229/4/77739GJpPZ2G918XD88ce/o6oDgXsvvfTSvX3UECip6cAUVR1ezXNdeOGFfZcsWTI/k8m0AKkLN8EUg6jqsp+O2Wx2YVtb2+CTTz75M1X93GN5sZDNZue0tLTscsopp0zzXUuU4O9+A+DLwa8vAVsBg7t73Pe+970ZG2ywwREdHR1P1b7K2pPNZh8TkYs6Ojru9l1LHGSz2VuBezKZzDW+a4mDbDZ7BTA9k8n8utzHBkrqDeA1Vf163LVVSo9rbmzjvngQkTWA43GLAfvhFgqfpqr/zmazW3ktrjEJT7Nu6impyFlRfUTkmGjAAWiEYJMURKQN2ATYJvi1OS7IrBG5mwIF9xYKmA/MGTp06OJa1WkYMfNVXFj3vnFflFIWFNuUVBV0F2q8Ftb4NP1ZUpFg88PIbSsEHKN8gv/XX877tRluEXBIjhU3Su0u2FwHHIbbuO/A2Io1jNqSmI37opQSbsKN++zgvDKwUOMPEdmQJp+SCoLNFcCxkZuPBObQ1dUyykRERgHnATuXcPdSdoAPOzlnAkuD227Bwo2RAoLrzIG4jfve8l1PlG7/80U27rvPlFRpiMgaecckPAvsEByTYMGmPpwRfLzKaxV+2Q44Ku+2GcDlHmppGFT1cVUdhfv7/R/cWoOQcjtiOVy4+aGqnoN7IzlVVV+OpVjDqD074jbuS5zZ6emdhSmpErFQkyiaXkkF/+YOJphcA14Fvq6qb/qrqnFQ1WdV9RRVHUJX0JkduUtPQSeH69QcrKq/DxbAfwm4qRb1GkaNSKSSgp7DjSmpHrBQkywiSuqVZlVSIap6K3AI8ArudO85nktqSPKCzo7Av+h+bU0OWAjsrao3B7eNDT7aG0kjFSRZSUE34SaipO43JbUiwSndE3A7h54JPIWFmiRwevDxaq9V1JnglOi2/NtV9RbgyxZsaouI9BKRXwGP4qZHim0ZoMBHuC7aQ5Hbx+ACuSkpIy18FaekbvVdSCG669zsjlNSN3dzn6Yj0qmZAWSAp3GhZi8LNYlgH9w749/5LqReRKai7grelCyHqtpYcY0IQs25wCfAz3FDGnfgrg+F1NS7uGDzbOQ5NsSNjNu11kgT40jQWVL5dDctFZ4lZUqKZZvvnYQ71HIV4D7c2U8WaBJCRElNaRYlFQSb3wE/CG66XUQOtEMVa4uI9AJ+iZuIXAm3tulm3HTa+kChbeynAt9U1dl5t48LPibyHbBh5BNcdw7CnSWVOCUFRTo3wbu//bCN+6xTky5CJdUUU1LBzqBX0hVsAPYCfuWnosanQKemDffOdU1V/baqfkLX+pkozwGjCgQbcOFmqqpOrlXdhhEzO+I27ktst7FY5yZUUk27uK3APjVPAuNV9R9eCzO6o9mU1Ajg0LzbpgMXeKiloQk6NWfiurcr4yad7gCOVtWP8u4+luV3In4QOFBVPyvwvBviNgA8u0alG0YtSOyUVEixNTdNOyVVYPppMs6Rj7Rgk1wiSmpqsygpVZ0IfAs3eQNu3HuXpLaJ00hep+Y0oDcu1AxQ1QPzg01wAOEwuoLNHcC3CgWbgG8HH5v2jaSRLgIldQAJnZIKWSHcRM6SaqqN+yzUpJ6mUlIhqvogLuBMxMa9Y6PcUBMhqqQuA8b0ELZt4z4jbewIfJGEB/JCWqqplJTpp4ah4ZVUsMamPf+wS1V9UEQetjOjqqdM/VSIMcHHs1S1W9VkSspIKYlXUlA43IylCaakioSa01T17z7rMsqnGaakIlNRI0Rkz/yuqgWb6ogh1CAiI4BNgR+paim7Y5uSMlJFREkldkoqZLlwE1FSDTslZaGmIWloJRVcUC4Djgtuuq9QwDHKR0RagbOoItRE2B84VFVvLPH+Y4FppqSMFBEqqcRPZOavuWlYJVVkTc03gjU1f/dZm1E1DaukAhX1R7qCDcBI4Dd+KmoMRKQ1WFPzKeWtqemO60sNNhElVWoQMowkECqpRG7cFyVfS43FTV7c66GWmmCdmsamCZTURrjNsqJMo+vkc6MMYu7ULIeqzizj7qakjFSRJiUFkc5NREn9TVU/9VdSPFinpmloaCWlqtOBPXBTO+D2sbFx7zIJzt6Ku1NTDaakjLSRiimpkKiWagglZaGm6WhYJRWiqv/CBZzncP+WLdiUSCTUzCcZoQYR2QBTUkb6SI2SguW1VKqVlOmn5qMRlVSwxmaVYBv/Zajqv0RkO1Utdtq0ESH4ezybGuinGPhO8DHVbySN5iFtSgqCzk3elFSqlJR1apqahlJSwQ/kq4B/BGF9OSzY9EwSOzUFMCVlpI2vkiIlBV2dm9Qpqc8++6xXEGqsU9O8NIySigSbI4KbHhaR0ar6oceyUkU2m/0JcCTJ69QsI6KkzvFdi2GUQaqUFHSFmzG4jfvu8VhLSYjIGoMGDTr6/fff/zKwDe5QurOCdQlGkxD8kGgIJVUg2ID7AfhbVjwY04gQTD+d36tXr3WWLFnyA1youQX4br7aSwjhlNStXqswjBIJlNRBwBNpUFIishlwWkugpPYD7k/ypmCBfjoPmPnWW28dPGjQoPnAjqq6uwWbpiQchb7aaxXxsB6wV95tr+DWixgFCPapyeKmnzpyuZz06dPnfuALqjouocEG3BvJqao6yXchhlEiO+CuUYk2OyKymYhcj1uaMqaFLiV1s9fKiiAiXwj00wxgPDBxp512+vlxxx031UJNUxMqqUt9F1ItqvoGMAp4J7hpGjBaVd8p/qjmJLKm5hOgg2BNzfjx498588wzf5rgUBN2G7cmoddawyjCONy19nbfhRRCRDYQkSuASTh9dj2weQtdU1KJOksqEmrChcIv4/b3GLnPPvu86LU4wysiMhSnpKamXUmFqOpU4JvAP3Gn0Se+/VtPCuxT005koXCfPn3ScLaWbdxnpIpASR1IAqekIqFmOnAUcAOwmaoerqqv9cJNSd2XlCkpEfkCcCJwArAqbk3N2ar6lNfCjCQRTkmlUkkF60RWz18sHKiKUX6qSibhmhrc9SBcKHwLcKyqfuyztgoIldRk34UYRonsgJuS+h/fhYSIyDDcz4DvAEuA/wMmBB3wZbSQECWV16kZD0zEdWp2t2Bj5LEvKVVSwQ/rq4B/icgg3/UklWL6CdepGZe2YGNKykgpiVFSkU7NZCL6SVWPyw824KalvG7cF3RqTgB+AqyOG+k+XVUf81WTkVwCJTWAFE5JRYLN4cFNj4mI7TgcIbL53olAHxI60l0BpqSMVJEUJRW8MegAjsEFrRtwNue17h7Xgtu4r+6L8LpbU2PBxuiGVE5JBcHmarqCDcAmNMAePXHQ05qalAcb6Nq4z5SUkRa8btwX6dRMo8Camp4e34s6Fy4iqwE/ADJYp8Yon7ROSa3FiutppgDHeaglMTRwp2YZwTvPrbCN+4x04WXjvkin5mhAgb8A56jqjHKepxd1mpIK9NPPcApqNeAhXGvpyXq8vpF+gn/0A4BX0qakVPVtERkF/B0YCkzFjXu/67UwTxRZKHwXcETa1tOUwLjgo23cZ6QCHxv3BQuFT8MtFF6KU/i/LLSephRaaj0lJSKriUgHTj+dhptF30VVv2nBxiiTVJ8lpaqzgNHA/bhx77c9l1R3iiwUvhunn/ZvwGADLtxMs437jBTxVdzGfTVfAJ+3T804nH4arqrfrzTYwPKngseK6SejBqRGSQWdibVVdU70dlV9HdjTT1X+KKKf7gYObxT9VAhTUkZKqbmSiks/FSP2cGOhxqgFaZqSiiwe/kYwDRXLf9Y0UiDU5ID7gENVdZ7P2uqETUkZqSIyJVUTJRVcyzPUKNSExBZuRGRV4IdYqDFqQyqmpCLB5v8FNz3WjAHHQs0ybErKSBvhlFSsG/fVK9SEtFT7BCKyarCmZhaQxUa6jdqQeCUVBJtr6Qo2AIOBS/xUVH8KjHSvhAs1A1R1r2YKNhEldZPvWgyjDEIlFcvGfSIyNO+YhL/gNt87vJZv+iru3FinxqgXKVJSq+N+mEWZDBzhoZa60k2n5jBVneuzNo+YkjJSRZxKqt6dmnzK7twU6dTsap0ao4akQkkFZ0V9Hfd/Aty4926q+p63ompMN52aNYNOTbMGGzAlZaSPqjfu89WpyafkcNNDqHm0VgUaBilQUiFBkNkN19L9mqq+47mkmmChpnsiSsrOkjLSRMVKKimhJqRHLVVEP51hgcaoByIyhIQqqWCNzZD8rcCD/WsO8lNVbTH9VDKmpIxUoaoVKSnf+qkYRTs31qkxEsKZwcdEKakg2FwDPCsi23gup+ZYp6ZsQiVlG/cZqeC55577ImUoqaR1avJZIdxYqDESRuKUVCTYHAb0Bx5q1IBjoaZ8TEkZaWTixIlfogQllfRQE7JMS5l+MpJGREkl5iwpEekF/Bl3/klIf9yeELt4KaoGmH6qClNSRuqYPXv2lnSjpJKqn4rRy0KNkWCSqIyhs54AACAASURBVKT6ABvm3TaJrh9oqcZCTSyYkjJSxeTJkwcuWrRodQoE8rSFmpBewGygH/AIcJaqPuG3JMNYxt64H66J2QRPVT8Rkd2AB4DtgYk4bfuB38qqIwg15wE/xZ3SnQP+ijulu2HPfoobEdkQp6TO812LYZTKSy+9NBQXXJYpKRHZBKeiD8FdD67BndI900eN5dICPAfsrKqjLdgYcTFr1qyqHh+8W1gT9w44EUoqJDi5eg/gT6Q82ARran4JzAdOBdpxoWaAqn7Lgk3ZjAk+mpIyUoGIyOuvv75B//79/6uqb4nIJiJyLTAFp9+vATZV1WPTEmwAWizUGHHT2dkpTz/9dLVPc3rw8Zpqn6gaRKTXRRddtFn+7ar6kaoemdZgk8vlOP3000+jeKhpmmMSYiZUUhN9F2IYJbL9ggULVunfv/9bRULNd9MUakJkwoQJZ/kuogI2wC3e/D/fhcTB559/PnillVY6QEQSo1+q4Z///GfHvffeu9KRRx45c9NNN722kuc444wzft7Z2bnyWWed9cv29vYlcddYCkuXLpUrrrjigLfeemvY0Ucf3bbBBhuc7aOOuPnzn/+8y6uvvrpzZ2cnIqJrr7329COOOOLOfv36JapDViYn4jppH/oq4I033uh/+eWXnzBixIjHDz300Gp3a/+BiNyjqrNjKc4/RwD/wk3YNALjcH+WF30XUi3XXHPNN6dNm/ZVABHJrb/++i/tsccej6+//vpp69q+mclklmWCXsAqHoupCFVdOVgjkLraC9HS0rLyddddt+rw4cOHbb311m/6rqdaXnrppd4AkyZN6r/pppuW/T2aPXv2ap2dnX1WXXXVue3t7SvFX2HPLF26VK688so9Z8+evRnAn/70J/bdd9/NvvKVr6T2h81f/vKXnV5++eVtli5d2iYirLPOOrMOO+ywu7/whS8sJKXXggiCWwC9yFcBzz777FYA22677Uyq/7tsUdWVY3iepNCK20agUf48vXDdztT+eWbNmtXv4Ycf3m7GjBkjWlpadNNNN31v5513/tvQoUPDrm2q/mwisvJyN6hq6n5NmDBh9IQJE572XUeMf56tvvWtb72LW9D1BLCJ75qq+dXe3r4U0DXXXPODSh4P/DH4u+jwUT/uwnVTUEP01xOA+P77LfPP0gL8ElgQ/BmWAnedfvrpCy+88MIBvuuL69eECRPmXHDBBZt6/rt+Dpga059nYjab3dH332uM35/Hstnsvr7riPHPc+uECROO9F1HJb+AjYFrgSXhtW3kyJFPTpgw4STftcX5q+yDM43asP32238CvAHsBLwsIpeKyJqeyyobEdl80aJFLQAffvhhfxFpr+Bp9sWtzr841uJKpw1YI3rDOuuswyqrrHKABleHpNPTQuE+ffp4ra/RCKaktsEWEhsJRUQ2DtbUvELXmprbgdx22233us/aaoGFm4TgTprn6ODTXsCPgNdF5BcikqafRHuEv8nlci3AyHIeHGzc53VKSlU/xwWsh4OaJh1zzDF8+umniV88nLejcBhqwh2FbaFw7RgbfLRdiY1EEdlROFwofAMwHDgWF8ifWHPNNRd4LLEmWLhJEOo2Trw7clNf4Hxghoh8L9j2P+nslff5HgXvVZwzgo/XVF9K5QQB51vAZVtvvfU+ffv29VlOj4jjNOyYBF+MBaarbdxnJIQixyQMV3dMwqvADsD6NGi30cJN8vg5zoWCWyQJMBC4ApgkIvt4qaoERKQvsHPezflhpyfCs6R+G0tRJSAivURk2/zbVXWBqv7oO9/5jrcJnJ6IhJr5wLlYqKk7kbOkbvJdi2GUEGpCxlLCWVJpxcJNwlDVacDleTeH36dNgbtF5CER+XJ9KyuJXYHeebdtLiLrl/JgH0oq6Ib9CXhCRParx2vGhYicgoWaJDAO90akId8BG+lARIaUGGoQtw7iQOBJLXKWVNqxcJNMzgQ+wq1kjxJ+v3YFnheRm4NAkBT2LHL77iU+vq5KKgg21+K2F+8N3JKGgCMip4jIfOACLNQkAVNShjcioeZVegg1ERpaSYGFm0QS/ID6JV1aKh/Bfe/GAlNFJCsi/epVXzfszoqBTCkeevKpm5IKTve+ERdsQnoDvwje1SSOvFCzMhZqvGNKyvBFhaEmJFRSt9W4TG9YuEkuFwOv4/4BdkdvoAOYKSIdFY5eV42IbAYMZcVAJsBuPdXlQUkpXWubQl4C9knauLeFmkRjSsqoK1WGmqZQUmDhJrGo6mLcKG9P36MwTPQDsrhFx2M9dB+6WzjcF7d/T3fUVUmp6lLgMFz3Btw26qM1QWdFWahJBaakjLqQF2q+C9xBGaEmQsMrKbBwk3RuAZ5iRdVTiPB7uSFur41/isgOtSqsAHvSfZ09qam6T0kFAedwXHhITLCxUJMOgpPrt8L2tjFqSJFQM0xVx5UZakIaXkmBhZtEE+iRk8p8WPg93Ql4Klh0vGG8lS1PZAS8WLdI6aazE0xT1VRJiUibiHx9hcJUO1U1o6rex70t1KSOb2NKyqgRNQg1TaOkwO2EayQYVX1aRG7C7SyZz9u4845COnGjwfn8VET+UMPWeaER8ChCMBKuqm8U+PqZwcdr4i4MlpuKGisiR6nqn2vxOpUSjHSfgdN3OVyoOcwCTeIJldRE34UYjUOw/vBU3I71LbgOy/hKA00e2+OU1K9jeK5EY+EmHZwC7I/bSj/aHXkMuAg38XOyx4Wwpe5CvAduM8J8aqakgmBzHV3h8GoRUVW9Lu7XKhcLNekloqTO912L0RjUONSENPTGfVFMS6UAVZ2Nm54qNIn0beBE4Ih61xVhL3peF6QUCEERJTU9biUlIm249RDRrlcrcILPoyxMPzUEpqSMWKiFfiryOgIchFNSc+J63qRi4SY9nA+8z/Kj4YIbAz8C+HOwFX9dv6fBCPj6FF9vs+yuuJHwfH1VSyW1BHg377YXgT2DxcR1xUJNQ2FKyqiKIqFms7hDTYRQSTVFILdwkxJU9VPgLJb/nok6rsWFnt8A/1fngLPCFNSaa67ZCbDaaqt9mvelQiPhoZK6OO7CAk33I+D3wU3huHddFw9bqGksbErKqIYeQs30Gr500ygpsHCTNv4ATKWre1Po+/dtYLO6VbTiCPgNm2+++ecAI0eOfBl4Nu/+y6amaqmkQoKA82PcSdm71jPYWKhpWGzjPqNsPIaaplNSYOEmVajqEuBkCnzfgh/iPwW2UtWXRWTtWq8rCUbAR9GlpG4GjmhpceW1t7cvAXYDnok8LNrpiXXjvmDce4VT01U1p6rn1ytQWKhpeExJGSXjM9REaColBRZuUoeq/g14MPhU8r6mqjpdRNYA/gVcU+OAEx0Bvxk4NAhg0Zo+Br5JV8AZHjklfF9iUlKRxcN/FZETqn2+CmuwUNPgBEpqa0xJGT2QkFAT0lRKCizcpJVTgKUUWcQbqJdbgUF0v/9MtYTTT38BDskPNpF6PsYdqhkqqt3jVFKRYLM/7u/kNyJyfDXPWebrFwo1a1moaUhMSRndkrBQ05RKCizcpBJVfQmncopOKKnqz3FTQZ+LyF416uDsjgsVh/c0faSqH+EU1b9xaur04EvXVFNAcLp3GGyW3QwcHoSemtFDqPG+47FRE0xJGQVJWqiJ0HRKCizcpJnxQP400nKo6mIR2Qm4B/hTnC8ejIA/RwEV1U09YQdnVWA/YlBSwWu/nHfzC8DuqtpZzXMXo0ioGWihprExJWUUIsGhJqTplBTYDsWpRVXfFZHflHC/J0Xkl8C0mEtYjFNRZe0Xo6ofi8jPgInA1DimpFT1tOAQ9PG4YDO6FjqotbX1lFwudzrL7yh8eFIO3DRqjikpYxkzZswYEISa6I7CpyUk0ADNq6TAwk2qUdUXS7zfaQAi0h+3m/HZpXZbunnO16p4+E+Cj9dUU0OUIOC8C1ynqvPiel6A8ePH/wwgl8tlsVDTzJiSMhCRIZttttnWU6dOPSC4KXGhJkLTnCWVj2mp5uLbuP1efum5joqVlIj0FpGDC31NVS+JM9iE+mnx4sXndnZ2IiL306WfLNg0EaakjKh+mjp16pABAwY8T7L0UyGaUkmBhZumQlUvB47HY4qvZkoqOLrhJuAGEcnWor7gdZZbU9Pa2vrQaaedRi6Xs1DTvJiSalJEZP38NTU//OEPHzzxxBMvS3CoiSqpp5pNSYGFm6ZDVS8N1uvsJSK3i0h7nUuoaEoqCDbRqagOETmzm4eUTbGFwtls9oA+ffrE+VJG+jAl1WREQs0M8hYKDx48eL7f6kqiKaekQizcNC9bAQcA36rz6+6HO66hZCUVnJV1KyvWureIrFRtQT1MP1mnpskxJdVcdBdqktypKUCopG7zXYgPLNw0Kap6PjBKVW8WkfYCp3XHTkRJTStHSalqDvh73s3/AfaoZtrKQo1RIqakmoAGCjVNr6TAwk1To6r/jHRFbquDoqp44z5VvQg4Kfj0P8BulY57W6gxysSUVAPTSKEmwnY0sZICCzdNT9AVeQLYBndcQy0pW0lFCQLOEbjTvcsONhZqjHKJKKmm/SHRqBRaKEz6Q01IUyspsHBjAKp6ATBcVWeKyBZxrGPJpxwlFYx7Hxu0VvNrvTY4yqGc17ZQY1SKKakGIwg1F+M2Nv0ucCeweYOEmlBJjaGJlRRYuDECVHWeiKwN/BO4owaKqiQlFZmK+gNwRaGAUyoWaowYCJXUS74LMaojL9T8GPgrXaEm7h3cfdL0Sgos3BgRVPUd4GzgbSDuc5l6VFJBsLmFrqmoY4HLyw04FmqMODAl1Rg0UagJaXolBXb8gpGHqv4vuNamiPwY+KOqfl7Nc0aUVNGzpIIAcyuwb96Xvgz0AT4r4XVOAc7Azn4y4sGUVIoJrjsnAt8H2nA/7E9v0EADmJKKYp0boxhfB34L3BDDc4VKqujJ5KqquAV9ucjNzwN7qmq3wcY6NUaNMCWVQpqwUxPFlFSAdW6MgqjqY0HnZlIMTxcqqW5PMVfVq4N3HlfiTvferbuzoqxTY9SKiJLyfQ6bUSLN2KkpwFjctfYO34X4xsKNURRVvQxARDbErcX5fk9dlHxKUVJ5r3mViMwDHlXVj4s8p4Uao9aMxZRUKrBQ44hs3Pekqs72XY9vTEsZpTASOAQYX8FjCyqpYFfkE0WkNf8BqnpHoWBj+smoI6akEk6T66dCbAcMwQI5YJ0bowRU9U9BN+UhABHppapLSnz4CkoqMu69H7C9iBza3fNZp8aoJ4GS2gZTUonEOjVFMSUVwTo3Rkmo6l9V9XMR+RnwdxFZtafHfPrppyvhlNT0UEkFweZWXLABN5FyvYisELStU2N4wpRUArFOTXFMSa2IhRujXD7FtT937OmOU6ZMGRz8NqqkbmHFce8vAst2RbZQY3jGlFSCsFBTEqak8rBwY5SFqv4fsKmqPiAia3TXwXn//ffX+P/t3Xuc1XWdx/HX58yd26Byv4yJKCaoUYiaxip5KVMMYcjWbGtr0yK2iwpT6z11jnkpV2vXatvVJHMkzFQ0w0soiAiCJpsJCK4igiB3hmFmzmf/+P0O/hjnds75nfO7nM/z8eCBc2bmzGdQz7z5vn/f748P75L6BdDkeft54CxV3dVOqJkPDOko1IjINPfXQT58a8Z4Kyn7IREwCzUZsUqqDQs3JmPuPahKgT8Bj4tIn/Y+rrm5uQznb8CNns99FOfi5GacYPMZ4JI2oeYvQI2qnqGqGzsZ5Y/AV4FNIvKsiPxQRMbmcssGU/SskgqYhZrMWCXVPgs3JivuBcC34tRJ5Z186IcO7lPVucDZOHXTO3w41JzandM13et4JuOs8JwC3AC8BGwQkV+LSK2I9M3oGzPFrhZYZZVU4VmoyZpVUu2wcGOypqr3ASeo6mYROUtEqtv5sB5tb8Lp7n76A3AdWYSaNjOkA87jnocH4KzoNACbRWSBiPzAVnVMZzyVVEPQsxQTCzU5s0qqHRZuTE5UtUVEhgEPAU+ISHljY2MCoKSkpBW4AnhIRCrbuaYm61DTZoa9ODfbfMR9yBtgSnBWdW7EWdXZJCINIvJlu1bHtGGVVAGJSI2Fmtx4KqlFVkkdyM65MTlT1bdF5GvAMFXdN2TIkHKA1tbW9AF9ZwG7cIJGCifUXOjnjd1UdZ+ITME58+KcNu/2hp1DcH6I1QIpEVmOE4oeBl5y73FlipNVUgUgIjXApdg5NX5IV1Kd3tqmGMkll1wyJughMnXwwQefWFFRMWPDhg0XBj2LH/r27fvRqqqqWzZs2PC5oGfJ1ZYtWyrmzJmztL2MUFZW9tKJJ544c/To0Z1dJJyTPXv2lN1///0/aWpq+oduforihh8R2VZRUbGkurr6L+PGjXtm+PDhOwAqKiqqDjnkkCWbNm06tqWlJRbhZ/Dgwcu2bdt2emNjY4f37oqSwYMHP7lr166v7dy5c102n//yyy8Pff755x+rrq7+5Re/+MU7fB4vY4MHD57b1NR03fvvv78i6Fn8MHjw4F+vWbPm4blz547atWtXLVBaWVk5/+ijj75j/Pjx64KeL1ODBg26raWl5S+bN29+KMg5Zs+efdnOnTu/fMopp5w5ZsyYd7N9noEDB16dSqXWvffeex3e3DjsRGTPz3/+8zf2vz19+vRYvFibcFi1ahVPPPHEAY8lEglqamooKysryAyqyjvvvMOePXtyep6+ffty1FFHceihh9KvXz+fpjNhtHz5chYtWsS0adPo379/0OPEys6dO1m6dCmvvfYaqsqRRx7JuHHj6NvXrvXP1T333EPPnj2ZMmVK0KMETkQW33HHHSel37ZayvjmzTff5KWXXgJARFBVRISKigreffddEonCXeLV3Nyc83Ns376d9evXU1JSQlVVFT179vRhMhNGq1evpm/fvhZsfGShJr82btzIzp07Oe6444IeJZRKge8EPUSmysvLR1VWVn5ux44dtwU9ix/Ky8uHVVVVfXX79u0/CnqWbCxduvToV1999TO7d+8+FKCyslIvvPBCeeWVVzYedthhP+vXr9+OX/7yl9fu27evx+TJk68fNGjQtsbGxrKqqqrcE0g7/vSnP52+evXqtqcgd2Z/NVVWVrb14IMP/tvQoUP/Pnr06Nf69OmzV0TKq6urb96+fft343JNTnV19a27du26qrW1NaO7vIdVdXX1dXv27Lmzubl5U6afu379+oM3bdp0VU1NzXw+uCg9UH369JnV1NTU0NTUtDboWTK1fv36g59//vkzN23aNB6Qfv36vTRp0qQB1dXVf2pqano16Pn80Lt3739uaWlZ2djY+EJQMyxevPg84LSBAwdeA2zL5bl69er1BVXdtHv37qd9GS4Aqvpu2wci96u+vv70+vr6xUHP4eP3M7a+vn5V0HNk+gvnrJoXcMLBRuB6IDVq1Kg906dP1+nTpz/qflwJzkW+N7lvDwJ2A/fmYaZZ7jwp9/f2fnnf1wI8537eJwBp+5w333xzz/r6elXVD70vqr/q6+v33nLLLf2CnsPH72f9TTfdNCrL/2Yud/9bGBv09+H5fl5JJpOfDHqODP8cP4JzAvk+9/+r3+CcZk59ff3TyWTy3KBn9PHfz5z6+vqvBPhnLcBanIP7/Ph+7qqvr7806D9XP3/ZVnCTMRE5XUQWA48CI4BrgSOA1YAcccQRe70fr6qtqvqIqs5yH6oAfodznypE5DQReVhEcrqgWkRmAUk8KzEeKc8/b8J54Z0GHKyqp6jqTaq6TN1XDlNUpgFrVHV50INEkWdL92vA13DOsBqjqhep7YDKl+NxwqSdydQBu+bGdJuInI6zOnMCsBkn1Nymqjvc99cCW2pqalo6ex5VfRPnRTBtGHAisAh4VETOB/oCD6pqt3bziMiVOIcCghNsvAFnH7AA56C/ear6t+48p4k/EfkIzopdfbCTRE8HW7qvUtXXAh2sONjBfV2wcGO61FWocT+mL3A6cE8ikTg3kwUQVf2NiPwWZ0UH4F9w7jn1LjBPRE4D/qod3BG8TbBJextnZekx4ClV3dXtgUwxmYYd3JcRCzXBcg/um4pzcN//BT1PWFm4MR3qTqjx+DzOPaYeADK5mBdwqisgvXf7HGACsNC9dcODOLdxGKyqW0SkXzroeIJNM87qzGPAY6r6v5nOYIpSLU4lFYvzZPLJQk1opCspO7ivExZuzIdkGGrSaoGtwDO5fn036DztzpIAJgHHu8HmKOBVEXkAJ8gMxQlWT9rqjMmEVVLdY6EmdKyS6ga7oNjs57lQ+M/A4Tih5nBVvaazYOOppH6vqvv8nElVU6q6QFVvdR9qBO4AXlPVe3DuCP59YKKfX9cUBbuXVCc6uPfTaHXu/WTBJjjnY5VUl2zlxmS7UuN1Hh9UUnnlXoz8Pc9DVcChwGAAEfk60AuYrarv5XseE2lWSbXDs1LzDZz/r22lJiREZDzODtV/D3qWsLNwU8R8CDVpvlVSmXIvRr6XD/5brgXOBBYD77k301zqhiJjgP2V1DisktrPQk0kWCXVTRZuipCPoSZdSZ0B/MbvSqq73LNpmt1/PktExgIrRKQa+C2gItIP5+DAj6hq5E59Nb6zSsploSZSrJLqJrvmpohke01NFwpWSXWXqi5Xx3acAHexe7HxicAbInI/7N9SaYpT0VdS7VxT8zB2TU1oeSqp0LzWhpmFmyKQp1CTlq6kQnlPElVdoap3u2++jbNt/C/u2xeLyHIRmRzMdCYInkrq/mAnCYaFmsiySioDVkvFmIicglM//QM51k8dPH/glVQmVPUt4GrPQztx/h8oBRCROpxVqF9o25uwmTgpykrK6qfIs0oqA7ZyE0MicoqIPAM8C4zG35Uar9BVUplQ1dmqegwwx33oVJw/qz4AInKxiIwJaDyTP7XAG8VSSdlKTfRZJZU5CzcxUsBQkxbqSqq70jfLVNXPAIep6usiMgj4D+C5JUuWVLS2tlJeXn5coIOanHkqqd8FO0n+dRBqxlioiSSrpDJk4SYGAgg13oP75kahkuouVV3n/v4uMBL40vjx45tWr15Nc3PzchFpABCR8gDHNNmLfSUlIsM7CTV209hoOh943iqp7rNwE2FuqHkaJ9SMoQChxuM8nBtdxvaHhKq+oaqPAAwZMoREInE5MNd992UissYuRo6c2FZSnlDzOk6omQ983EJNtFkllR27oDiC3AuFf4RzjcgWnFDzE3frc6HEopLqrt69e9Pa2norztIwwBvABmAHgIjcBqSAW1V1QzBTms7E9eA+ERkOXMYHFwrPA66MY4ArUulKam5XH2g+YCs3EdJmpeYYDlypKViwiWsllQlV/Z2qnqKqT7oPHQX8K274EZErReSTdpZOqMSqkupgpeYTqnquBZtYsUoqCxZuIiAsocYj9pVUplT1bGCQqr4rIiNwtpynDwvsLSKfcu9wboITi0rKQk3xEJHjsUoqK/ZiG2IhDDVpRVVJdZeqvu/+/gYwFLjA3Yl1HrAAuBf2h52SwAYtQnE4uM9CTVGySipLFm5CKMShxiqpblLVjaq60H3zMZzrIf7HfftKYL2IfD6I2YpUZCspCzVFbQpWSWXFLigOERE5C6fOOAnnROE64GfufZHCYhJOJTWnqw80DlXdAvzS89BinN1tbwKIyGxgF85psRsLP2FRmAqsVtXlQQ/SXcuWLRsoIv8B/DPOa/X9wI9s51NxEJFxOJXUnUHPEkUWbkJg7ty5H9u4ceNQ4HGC2/3UXdNwKqmngh4kqlR1Lu4ys3sdTg/gc8Cl7ts/Beap6uPBTRkf7m6i44Fk0LN0h4gMHzdu3JBly5b9Duc12nY/FadpOJXU74MeJIos3ATIu6W7qqqqlXCHGm8lda9VUv5Q1RQwWUQqVXWviIwG/gU4DXhcRAbg/GD+s/2ZZ+0CIlBJebd0L1u2rLJnz54Ld+3a9W0LNUXLKqkc2DU3AWh7Tc2AAQPuuvzyy98MwzU1XbBdUnmiqnvd31cCA4Evuu/6AvAIzq0gEJEBIlIZyJDRld4lFcpKqr1rai655JJVV1xxxUwLNsXJdknlzsJNAbmh5inaXCj8ve99766qqqpUsNN1i+2SKgBV3aGqr7pv/jdO0PmF+/aNwEYROSeQ4SLGXQ0J5S6pzi4Urqmp2RvsdCZgtksqRxZuCqBNqDmWEO1+6i7bJRUMVd3lHhj4gvvQgzi7r1YCiMjTInKfiPQPbMhw+wIhq6Rs95PpBju4L0cWbvIoDqHGI71LKjQ/JIqRqj6qqheo6loRKQPeAU4EtolIlYjMFpGpAY8ZJqGppCzUmO5wK6nDsdfanNgFxXngXih8Hc5FoWHf/dRdVkmFjKo2AxeKSEJVUyJyLM6uq+HAHBE5DCf4PKKqO4OcNQhh2SVl934yGbJKyge2cuOjmK3U7OdWUmcAD1olFT7ujitUdRnOxcgXue+6EPgtcAM4p/SKSHUgQwYj0ErKVmpMlqyS8oGFGx/ENdR4WCUVEarapKpvum/+GDgb+E/37dtwLkb+DMDGjRvjvnIbSCXVQagZZ6HGdMUqKf9YuMlBEYSatHQlZQf3RYiq7lPVx1T1f92H7gTuAZYC3HrrrQtE5FF3ZS5WPJVUwXZJdRFqAr/mx0SCVVI+sXCThSIKNVZJxYiqPqWq31DVzc3NzZSWli4C+gHbReRgEZknIl/O5wwiIvl8fo+CVVIWaoyPzgcWWyWVOws3GSimUONhlVQMlZWVceONN16mqie4dy4fBYzFeXFFRI4TkYvdE5L9dIGITPD5OduT90rKQo3xk1VS/rJw0w1FGmrSrJIqAqr6PDAU+Lr70BdwrtWZDiAiY0RkkA9f6mGgQURuF5EKH57vQ/JdSVmoMXmSrqTsXlI+sHDTiSIPNVZJFRlVTanqZvfNK4BTgP9y374TWC8ipwKISK8sv8Yu4HbgX4GlIvKxnIZuUo/d5wAAGQJJREFUX14qKREZZqHG5JFVUj6ycNOOYg81HlZJFSk36Cz0vNDWAbcCL4hIKbBGRJ4VkR5ZPP0dwPvAGOBFEbnSfU6/+FpJichAEUkCq4AZWKgxPrNKyn8Wbjws1HyIVVIGAFVdrKozVbURqALuBjar6h4ROVREFonIv3TzuXYBN7lvluIcePm8iHw01zn9rKQ8oWYdMJMDz6mxUGP8ZJWUzyzcYKGmPSLSB+deUlZJmQOo6k436Ex2HxoO9Ac+CSAinxKRy0WkppOn+RmwGecFHeATwHIRmSUiJTmMl3MlZaHGBMAqKZ8VdbhxQ82TOKHmOCzUeH0eqMSWSU0XVPU5VT0C5zoUgPNwDhCcDCAiJ4vI4W0+Z7f7Memt4YJza4Ik8JyIHJnlOFlXUp5QsxYLNaZARGQcVkn5rijDTZtQ8zEs1LTHKimTETewoKqX4ayAznbf9XNgtYicAODZdfVz4D0g5b6dDjonAC+7qzjdfo169tlnB+NUUg2ZzN1OqHkSCzWmcOzgvjwoqnDTRajZFux04WGVlMmVqv7Vs/PqH4Ef4uyO6olzMfJLwD6clZq2r0OCcyF7EnjCvY6mS4sXL/4sGVRSFmpMSEzBqaTe7PIjTbfF/d4ywP67dF8LTMTZpXEt8FMLNB2ySsr4RlVXAisB3F1R9cAQVW0WkUVAK07A8Z5enP7nTwMrRWSGqt7d2dfZvn37Z3AqqZc6+zj3YMLv42xHrwQeBa6yQGMKzVNJ/SzoWeIm1uHGQk3WaoFtWCVlfObWvtfD/u2vPwG6uoC4J/A/InI+cLGqvtv2A7Zu3VrS3Nx8DB/swvoQCzUmhKySypNY1lJWP2XPU0nNtUrK5IOIHCMiDcALwInd+JT069Qk4O8iclHbD1ixYkUVHVRSIjKgze6nJ7Fzakw4WCWVJ7EKNxZqfGGVlMkL9xYODcDLwFQOrKG6qzdwj4g0iEi/9IMrV66sLCkpectbSXURajqtrozJN9sllV+xqKWsfvKVVVLGVyJyLHANTnDO9a7g6c+vBSa4BweuAMoPOuigx9yv1179dLUFGhMyVknlUaTDjYUaf3kqqd9aJWVyJSKHArfgLL3nGmpSnudI/z4Q+CPuxcr9+/df6q7UWKgxUWCVVB5JMpn8XNBDZGrhwoVTVqxYccFbb71VVVJSsrOmpuahyZMn/3HAgAF7gp4tSyNUtU5EvhHkEPfdd99pL7/88qWf/OQnr5k0adLSbJ/n7bffvldV+5aWli4dPHjwNT6OGIhUKlUhIr8XkXOCnsUvqvpgSUnJP6VSqR35/lp79uwpff/99yt3795d2dTUVLpt27Zezc3NpY2NjZXNzc2VLS0tpY2Njb1aW1tLm5ubK5ubmytVtXTfvn29UqlUaWtra2Vra2ulqpa1tLT0VNUy97FeqlqpqiUAItKqqomDDjpo0YQJE+476aST1uX7e8sXVb1TRH4G/C3oWfygqvWq+mAikVgS9Cx+UNUfiMiLOAc9ZmzBggUj582b99ORI0f+6utf//offB4vY6r6bRFZDzwY9CzZSqVS237wgx8sFJEy4J9KVXVm0EN118qVK/s+9dRTh77zzjvVVVVVevLJJ6+bOHHi+h49etQA31bVLp8jjNw7LB8U9L+LHTt2jK6oqGj57Gc/+2lVnZjt8yQSiR6tra2UlJSMCPp78kP6ILk4fC8eJa2trTOA5nx/oaqqKoYOHZrLU6SA9F9c9h+yuWXLlor58+cPX7FixRARYcSIETvPPPPMNTU1Na3AtKi+Hrj6Axeqat7DZ4HUiMj5qnpq0IP4ZBTQT1U/ns0nb968+TCA88477xhVzfY0bj8d4c5xRNCDZKulpeU1ETkK+DfgMInCC4CITMTp7D8FvD98+PA/fvWrXx1z7bXXHh/sZP5IJpNjgYa6urrA/sMSkWpgI3Cfqn41l+eaMWPGu6o6EJh35513Rm5lsK1bbrmlZ0tLy666uroEH9wLKdKSyeTesrKyYZdeeunmrj86XERkKM5dyr+OUz/xla98ZctHP/rRk2fOnPn3QIfzSTKZfEVELpk1a9aioGfxQzKZfFpEbps1a9bDQc/ih2QyOQd4pK6u7n+y+XwRWQNsUtWTfB0sS8lk8i7g9bq6uluDniVT7krNl3FDDfAacH2od0uJyEQRWYCzy2E0cCVw2Le+9a3ZVVVVrcFOFzvn4pwKa1fum1ASkaEi8u/AauBbwCPAeuCNUaNGNQU6nDHdJCKfAEZgr7U5EZEyEfka8HfgV0AT8CVgjKrODmW48WzpfhLnhpY34Wzpvj5Gy7RhMw1nl1RWHbIx+eLZ0r0K5+ac83HuIfV9YAgZ3kvKmIBNw1kB/n3Qg0SRG2q+jLOR4Fc4f5YXA8eo6mxVbYWQnXPjhpr5OOfUHI8Tag5V1TrbAZU/7i6pM7B7SZkQ6cY5NdPI4F5SxoTEFOAF2yWVmTah5m6ck80vBkap6i9UtcX78aHYCu5u6b4G5z4yO3FCTdICTcGchx3cZ0Iig3NqanFuemmnDJtI8Bzc9/OgZ4kK95qaLwJX4FzwvBYn1Py6baDxCnTlps1KzXicUFNjKzUFlz6478mgBzHFK5MThd07hY8H7tco7IowxpE+uM8qqS60s1JTihNqjmxvpaatQFZubKUmPDyV1H1WSZkgZHmisFVSJoqskupCtis1bRU03FioCSWrpEwgcrxNglVSJlKskuqcX6EmrSDhRkROwwk1E4CtwFXA7bbzKRSm4vw7sUrKFISIDAFmAd/AOX5gLnCdqr7Szc+vwamkfmyVlImQqVgl9SFuqLkI55yaEThbuy/CaROyPvIlr+HGQk24uZXUWVglZQog11Djkb6j+Bx/JzQmr6YCS6yScuQr1KTlJdxY/RQZ5+H8kLFzQkze5OEu3dNwlqyX+TOhMfnlHtxnlRT+108d8TXcWKiJHNslZfImD6HGu0vKKikTJUW/S6pQoSbNl3BjoSZ6RKQ3tkvK5EEHoeYaVfVjpcV2SZkomkqR7pJybzw8BbiBAoSatJzCjYWaSPs8tkvK+CjPoSYtvUsq69UfYwqpWCupoEJNWlbhxkJNLFglZXxRoFBjlZSJqqKqpIIONWkZhRsLNfFglZTxQ6FCjYdVUiaKiqKSCkuoSetWuLFQEztWSZmsBRBq0qySMpFSDJVU2EJNWqfhxg01VwOnY6EmTqySMhkLMNRYJWWiKraVlCfUXA8cSUhCTVq74aaDUHOTqm4t4GwmD6ySMpkKMtR41GKVlIme2N1LKuyhJu2AcGOhpijYvaRMt4Qk1KRZJWUixa2kRgL/EfQsfohKqEkrhf2hZhZwDhZq4s4qKdMpEekPXEo4Qk26kjoBq6RMtMSikopaqEkrFZGngVNxfuBdA/xUVbcHOZTJD/deUmcC91slZdoSkcF8cO+nSuAPwLWq+nKgg9m9pEw0RfpeUiJSCnwJ50Thw4FVwD8Bs/2491O+lQKfwFZqisUknB9adi8ps1/YVmraYfeSMpES5V1SUV2paSsBDFfVOgs2RWEqzgrd/KAHMcF78MEHB4rIT4E3gZnA48BYVT03LMHGU0k9YJWUiZCpRKySamlpSYjIV4DXcf4CLDgrNUeo6i+iFGwASq2CKg7uLqmzgN9ZJVXcRKT/hAkTShcuXPgiUIUTduvCEmjaSO+SstVGEyWRqaREJHH22WePeOaZZyYD/YnoSk1biaAHMAVju6SKnIj0F5EksG7BggUlpaWlS4BxqnpGSIMN2C4pEzGeXVKhfq0VkYSI1AJ/mzdv3umqWoITao6M4kpNWxZuikd6l5RVUkXGG2pwLhheNH369H3JZHJqiEONt5JqsErKREh6l1QoL4D3hhqcFdHyU0899dkf/vCHyTiEmjQLN0XAraTOBP5glVTxaC/UAMer6hnDhg2LQliwg/tMFE0hhJVUe6EGZ6XmiLPOOutvpaWlqUAH9JmFm+JglVQR6SzUqOrSQIfLjFVSJlLCWEl1FmritFLTloWb4mCVVBGIUaixSspEVWgqqWINNWnduiu4iS5PJWW7pGLKc07NDKAHToj9QdQCTRtWSZkoCrySauecmnXEYPdTpizcxJ9VUjEV01CTZpWUiRQR+ThOJfWfAX19CzUeVkvFn1VSMROn+qk9IjIMO7jPRE8g95Iq9vqpI7ZyE2NWScVLzFdqvKZhlZSJnvTBfesK8cVspaZzFm7izSqpGCiiUJOWrqRCewaPMV6FrKQs1HSP1VLxZpVUhMW9fmqPVVImovJeSXnqp//F6qcu2cpNTFklFV1FuFLjZZWUiaK8VVKelZofAaOwlZpusXATX1ZJRUyRh5o0q6RMpOSrkrJQkxurpeLLKqmIKMb6qT1WSZmI8rWSaqd+qsDqp4zZyk0MWSUVDbZS8yF2cJ+JIl8qKVup8ZeFm3iahFVSodVBqPmhqr4Y6GDBs0rKRIoflZSFmvywWiqerJIKoQ7qp/Fu/VTUwcatpE7EKikTLVlXUlY/5Zet3MSMW0mdBdxvlVQ42EpNt1glZaIo40rKVmoKw8JN/FglFRIWajJilZSJlBdffPFQMqikLNQUltVS8ZOupP4c9CDFSkT6Wf3UfVZJmShasWLF8XSjkrL6KRi2chMjVkkFS0T6AZdhKzWZskrKRM4777xzPPBiR5VUOys1b2IrNQVj4SZerJIKgBtqvg18D+iDhZpM1eKsclklZSJh9erVfffu3TsAuLnt+yzUhIOFm3ixSqqALNTkzlNJ3WyVlImKFStWDMOppOakH7NQEy52zU1MeA7ue8gqqfxyr6m5BlgDXA0swa6pyZZVUiZyVq1aNbR3795rVXVdO9fUVOKEmpF2TU1wLNzExySgCvshkTe9e/e2UOM/q6RMpIjIx3fs2NFr+PDhSy3UhJfccMMNHwt6iEyVlJScoKrTU6nUl4OexSdHiciPVXVStk9w44033tbY2DjuO9/5zun9+vULdOVmw4YN81X1kEQi8dygQYNmBDmLH1577bUh69ate/S5557bq6oVPXv2XHDsscfedc455/wt6NmylUgkXgDOSqVS24KaYcmSJQMfeuihxw466KDfXHbZZT/J5blE5AngG/m4K3MQEolEg6reoKovBz2LH0Tkl6p6L/CXoGfJ1W233TZjy5Yt/1xWVtbY3NxcVVJS8vbQoUN/ddFFFz3ao0ePSAaaRCJxhYi82dra+pugZ8lWWVnZ7ssvv3xV+u1SEZnT2SeEkapWAYdEcfb2iEgFMBBPf5uJvXv3Jpqamj4yevToXf379/+tv9NlTkT6qiplZWUfj/K/o507d5Y89dRTfV966aXqlpYWRo4c2frpT396fU1NzTCcXj3KykTk1yKSCmqAvXv3VgNSW1s7UUROzuW5ROQg4Hag2ZfhgjdcRG4A9gY9iB9EZIiI1KlqZP+yo6osXbq0d2Nj4yEAPXv2LJ8wYcKm8ePH70skEhcBFwU8YtZUtb+qNovIeUHPkq3W1tYVOIcqAiBRvIYvmUyeDlxfV1d3YtCz+CGZTI4FGurq6o7I5vNF5B+B2cC5qvqIr8NlYcaMGe+q6kBg3p133vm5oOfJlIgMAGYClwA9SkpKHvvmN7959h133JHAuYgw8pLJ5N6ysrJhl1566eagZhCRhcAQYESuFxMnk8n1iURi4syZM//uz3TBSiaTr4jIJbNmzVoU9Cx+SCaTT4vIbbNmzXo46FkyJSIlwBeBK3AuFOa4445bff755yevuuqq/wp0OJ8kk8m7gNfr6upuDXoWv9g1N/Fgu6R8ICIDRORm4A3g+8BTwPHJZHLa0KFDgx0uZtxdUicBc2yXlAkjESkRkS8BK4HfAGXAckBPO+20VeXl5a2BDmg6ZeEm4jwH9z2kqk1BzxNFnt1Pq3AO4XseOEFVJ6mqXeiaH+ldUg1BD2KMl2f306s4oaYS+C5wNNAbeHHgwIF7AhzRdIOFm+izXVJZsi3dgUrvkloa8BzGAAeEmpU4obsKJ9SMUtXbccLNSOy1NhIs3ERfupKaH/QgUWGhJlh2LykTJl2FGs+KeK37+9wAxjQZsnATYW0O7rNKqgsdhJoTLNQUnB3cZwKXQahJqwWWqOobBR7VZMFuvxBtVkl1Qwe3Sfg3VV0S6GDFyyopExjPbRKuA47CuU3Cd4H/7OgviSIyFqeSurxQc5rcWLiJNqukOmGhJnw8ldQtVkmZQsom1HhYJRUxFm4iylNJNVgldSALNaE2FaukTAHlGGrSpmKVVKRYuImuc7FK6gAWaiLBKilTED6FmnQldQRWSUWKhZvoskrKZaEmGjwH91klZfLGr1DjYZVUBFm4iSDPwX0PFHMlZaEmcqySMnmTh1CTZpVUBFm4iaairqQs1ESWVVLGd3kMNVZJRZiFm2gqyntJWaiJLqukjN/yGWo8rJKKKAs3EVOMlZSFmliwSsr4op1Q83/4H2rSpgIvWiUVPRZuoqdoKikLNbFilZTJSYFDjbeSmun3c5v8s3ATPbGvpCzUxIvn4L5brZIymSp0qPFIV1K/z+PXMHli4SZC4l5JWaiJrak497GL/Wqj8Y8n1FwLfJTChZo0q6QizMJNtMSykrJQE3u1wFtYJWW6IQShxiqpGLBwEy2xqqQ6CDVXqOoLgQ5mfGOVlOmuMIQaD6ukIs7CTUSISC9iUkmJyCHADCzUFAOrpEyn3FDzOeBHwHEEG2rSzscqqUizcBMdk4h4JeUJNd8FqrFQUwyskjLt8oSa64CPEY5Qg4h8DBiFVVKRZuEmOmqBHUTwXlIWaoqTiAzFqaRus0rKpIU11HjYwX0xYOEmAtpUUnuDnqe7du3aVS4i12ChpljVYpWUcaVSKRGRcwlvqEmbglNJrQl6EJM9CzfREKlKqrGxMfHKK6+wfPnyU4HTsVBTrNKV1ItBD2KCIyKJadOmHfLwww//BBhBeEONVVIxYuEmGiJRSaXrp/Ly8n779u1jwIAB2zZt2nSOhZriY5WU8dZPDQ0Nx5SVlb1HSEONh1VSMZEIegDTOU8l9YewVlIicohbP60Bru7fv3/z1KlTqa2tXWLBpmhZJVWkRCTh1k/LgD8CB0+cOHH1zJkzv6mqt4c42IBVUrFh4Sb8QntwX9tQg1M/nDh58uStAwcODHQ2EzirpIpMe6EGZ6Vm1BlnnPF279699wU6YBc8lVToXmtN5izchF/oKqmOQo2qnmErNcZTSd1vlVT8dRZq3JWaUK44t8MqqRixa25CzK2kPkNIdknZlm7TTXZwXxHoZEv3XWF4vcpC+uA+q6RiwMJNuIWikrJQYzJklVSMxTDUpCupo7BdUrFh4SbcAq2kLNSYTLmV1EnYLqnYiWOo8bBKKmYs3ISUp5KaU+gXjnZCzUKcu3T/pZBzmEiySipmYh5q0qySihkLN+FV8ErKQo3xgVVSMVEkocYqqZiycBNe6Urqz/n+QhZqjB+skoqHYgk1HlZJxZCFmxAqVCVlocb4zCqpCPOEmmuBsTgrcHEONWnnA0utkooXCzfhlNdKqoNQc4WqPpOPr2eKhlVSEVTEocZbSc0KehbjLws34ZSXSspCjckXERmMVVKRUsyhxiNdSf0+0CmM7yzchEw+KikLNaYApmGVVCRYqDmAVVIxZeEmfHyrpCzUmAKySirkLNQcyCqpeLNwEz45V1IWakwhWSUVbhZqOmSVVIxZuAmRXCspCzUmIFZJhZCICHAOFmo6YpVUjFm4CZesKikLNSZgVkmFiIWaronIcVglFWsWbsIlo0rKQo0JmqeS+olVUsGyUJMRq6RizsJNSDQ1NSXoZiUlIgcD/4qFGhM8q6QCZqEmK1OwSirWLNyExKuvvtqTLiopT6j5DtAXCzUmeOlKaknQgxQbCzXZsUqqOFi4CYm//vWvvYCdtFNJWagxYWSVVDAs1OTMKqkiYOEmBNavX99jzZo1PYB7vS9OHYSaK1X16WAmNeYAVkkVkIUa31glVQQs3ITA448//qmWlhbB/SFhocZEhFVSBWChxj9WSRWPRNADGNiwYcMZ5eXlKWCZiFwDrAGuBlYCE1X1FAs2Jkw8lVSDVVL5kUqlRETOBZYCfwT64YSaI1X1dgs2WbFKqkhIQ0NDSdBDZGrt2rU9UqnUIYcffvhbQc+Sq7q6ul5vvPHGBhHZq6qlQG8R+XNlZeV1d9999/NBz5eN5557bkQqlSpJpVK7Tz311HeCnidXW7duTWzZsuXwkSNHrgp6Fr+sXbt2ZGNj49qjjz66NZvPv+CCC76dSqV+WlVVdfLdd9/9gt/zZWrNmjWHVVRUrB82bNi+oGfJ1fz58xPz5s27eP369d9U1aOBtxKJxE1jx47971mzZjUFPV82Xn/99WF9+vTZOmjQoN1BzjFt2rSVwO6GhobxuTzP2rVrB6dSqd2HH374Dp9GC9SqVasGVFRUNNfU1GwNepZsPfDAAzQ0NOx/PRP7S1dw3PrpeuCb7kNPANeq6qLgpjKmayKyADgU+Iit3PjDvU3CFOAqYAxO/ZQE/ktVIxlqwkREjgVeBupU9aag5zH59f8gEiU/weYLTAAAAABJRU5ErkJggg==;" vertex="1" parent="1">
          <mxGeometry x="708" y="470" width="567" height="453" as="geometry" />
        </mxCell>
        <mxCell id="QVBjA24aKZEz9xPjlTkT-26" value="\(\hat j\)" style="text;html=1;strokeColor=none;fillColor=none;align=center;verticalAlign=middle;whiteSpace=wrap;rounded=0;fontSize=25;" vertex="1" parent="1">
          <mxGeometry x="814" y="702" width="60" height="30" as="geometry" />
        </mxCell>
        <mxCell id="QVBjA24aKZEz9xPjlTkT-28" value="\(\hat u\)" style="text;html=1;strokeColor=none;fillColor=none;align=center;verticalAlign=middle;whiteSpace=wrap;rounded=0;fontSize=25;" vertex="1" parent="1">
          <mxGeometry x="869" y="581" width="60" height="30" as="geometry" />
        </mxCell>
        <mxCell id="QVBjA24aKZEz9xPjlTkT-29" value="\(\hat v\)" style="text;html=1;strokeColor=none;fillColor=none;align=center;verticalAlign=middle;whiteSpace=wrap;rounded=0;fontSize=25;" vertex="1" parent="1">
          <mxGeometry x="1048" y="662" width="60" height="30" as="geometry" />
        </mxCell>
        <mxCell id="QVBjA24aKZEz9xPjlTkT-30" value="\(\hat t\)" style="text;html=1;strokeColor=none;fillColor=none;align=center;verticalAlign=middle;whiteSpace=wrap;rounded=0;fontSize=25;" vertex="1" parent="1">
          <mxGeometry x="764" y="712" width="60" height="30" as="geometry" />
        </mxCell>
        <mxCell id="QVBjA24aKZEz9xPjlTkT-31" value="\(\hat t&#39;\)" style="text;html=1;strokeColor=none;fillColor=none;align=center;verticalAlign=middle;whiteSpace=wrap;rounded=0;fontSize=25;" vertex="1" parent="1">
          <mxGeometry x="994" y="820" width="60" height="30" as="geometry" />
        </mxCell>
        <mxCell id="QVBjA24aKZEz9xPjlTkT-33" value="\(\hat z\)" style="text;html=1;strokeColor=none;fillColor=none;align=center;verticalAlign=middle;whiteSpace=wrap;rounded=0;fontSize=25;" vertex="1" parent="1">
          <mxGeometry x="1100" y="506" width="60" height="30" as="geometry" />
        </mxCell>
        <mxCell id="QVBjA24aKZEz9xPjlTkT-34" value="\(\hat i\)" style="text;html=1;strokeColor=none;fillColor=none;align=center;verticalAlign=middle;whiteSpace=wrap;rounded=0;fontSize=25;" vertex="1" parent="1">
          <mxGeometry x="890" y="750" width="60" height="30" as="geometry" />
        </mxCell>
        <mxCell id="QVBjA24aKZEz9xPjlTkT-36" value="" style="shape=image;verticalLabelPosition=bottom;labelBackgroundColor=default;verticalAlign=top;aspect=fixed;imageAspect=0;image=data:image/png,iVBORw0KGgoAAAANSUhEUgAAAjcAAAHFCAYAAAAOmtghAAAACXBIWXMAAEzlAABM5QF1zvCVAAAAGXRFWHRTb2Z0d2FyZQB3d3cuaW5rc2NhcGUub3Jnm+48GgAAIABJREFUeJzs3Xl4VOXdPvD7O9kIEMK+GyKLoFit4gKKuLwoCEitkiBosfp2wdal1daMFXf9ObZqF6mt+tZaKi5UoSqiuNYlAStWQFSgLAYIyL6FSBbm+f1xzoFDmCSznJnnLPfnunohSWbypZDJnec+z3NEKQWviUQiIwHcGw6Hh2bi84nIZQCeBTBeKfWK088fiUROAjArHA4PcPq5dbjuuuu+Vkp1AzBv+vTpY3XPk6oHH3ywTUNDQ3U4HA4BSPgLRkQEwDgAdwI4GcBmAL8F8Hul1H4nZ230eT8A0AdAH9XoCz0SiezPycnpfdNNN21L1+fPpEgkUhUKhc67+eabV+iexQmRSGSpiEwtKyur0D2LEyKRyLsi8nBZWVmzr58iciKAxQDCSqkHMjNd4iKRyAsA5obD4aeSebyIHA0gDOBqGK8pzwG4Wym1yrEhExCJRB4DsDIcDj+k4/OnQ7buATyiBMBeAG/qHoS8o4lQE0aaQ435uXsAOAPA7xoHGyIXKzF/fUHrFGkSI9Q8C42hxs8YblogIm0AjAIwO93fkMgfdIYamxIAIQD/yNDnI3LCpQA+UUqt1j2IkxhqMo/hpmUXAWgDfpOgFjQTav6glPomw+OUAFgP4KMMf16ipJiV1CAYXzO+wFCjD8NNy1hJUbNcFmpYSZFX+aaSYqjRj+GmGSLSGqykqAkxQs0WaAw1NqykyIs8X0kx1LgHw03zxoOVFDXi4lBjKQGwAaykyCNE5AR4uJJiqHGfkO4BXI6VFB101113iYhcBGARgJcB9IbxglaslHrADcFGRLrDqKRmsZIiD7EqqRe1TpEgETlaRB4DsBLAVTBCzXFKqSkMNnpx5aYJtkpqDiupYNu3b5+sWbMGM2bM+DeAIXDfSo1dKVhJkfdMgFFJeSIQbNq0qc2LL754JYAnwJUaV2K4aRorqYCz6icRuctcBDkK7g01FlZS5CleqqSs+klERgGIAngGDDWuxFqqaVYl9YbuQSizxHARgI9h1k+jR49Gz549j3ZL/RQLKynyKNdXUo3rp/79+6+fMmXKr1g/uRfDTQy2SuolVlLBESPUHAUgPG7cuOPOPvtsVFVVuTLU2LCSIi9ybSXV1DU1V1999ceDBg3aonc6ag7DTWw8uC9Amgo1MC8UHjFihNtDjYWVFHmKrZJy1WstLxT2Pl5zExsrqQCwbem+A+6/ULhZtkrq96ykyENcVUk1saX7HqXUf7UORgljuGnErKRGg7ukfMtPocaGB/eRF1kH92ldDWGo8R+GmyOxkvIpn4Yai1VJLdQ9CFE8zErqWGjcJcVQ418MN0diJeUzPg81ViV1JlhJkbdoq6QYavyP4caGlZS/+D3U2LCSIi/KeCXFUBMcDDeHYyXlAwEKNRZWUuQpma6kGGqCh+HmcKykPCyAoYaVFHlVRiophprgYrgxsZLyriCGGhtWUuRFlwL4T7oqKYYaYrg5hJWUB4nISAARBC/UWFhJkafYKqlb0vDcxebzMtQEHMPNIaykPMQMNfcDOAXBDDX2g/v+wEqKPMSqpF5w6gkZaqgxhhuwkvIShprDlADIAlcbyVscq6QYaqgpDDcGVlIux1ATEysp8hSnKimGGmoJw42BlZRLMdTExkqKPCqlSqpRqAnB2G11K0MNNRb4cMNKyp0YalrESoq8KKlKiqGGEhXSPYALsJJyEREZKSIfA3gTQBGMUFOslHqAweYwrKTIUxYuXNgHRiUV92utiBSLyGMA/gvgBwDmABiklCplsKHmBH7lBqykXIErNfFjJUVe9J///Ge4+Z8tVlJcqaFUBTrc2Cqpf7KS0oOhJimspMhztmzZcgZaqKQYasgpgQ43YCWlDUNNSlhJkaesW7euzf79+48C8Gis9zPUkNOCHm6sSmq+7kGCgqEmNaykyIsWL17c1fzPwyqpJkLNNKXUykzOR/4T2HDDSiqzGGocw0qKPGf58uVd8vPzV9fU1KwCGGoo/QIbbmDcaJGVVJo1CjVbwVCTKlZS5Cki8i0Arfv161fOUEOZEuRwMwGspNJm7dq1qKioGA5gDIBNAH4G4HGGmuSJSA8AZwJ4hJUUecgEANi8efNJMLZ0A8DTAO5VSq3WNhX5mtx///1bdA+RhFwRaa2U2pXMg+vq6uTee+/tNGjQoLrJkyfvcXq4JGQDaAdgh+5BUrVs2bLcN954o3Dr1q1o06aNGjFixL5hw4btz8nJ8fo34y4wVp60KS8vz587d27bH/7wh7v69u1bn+LTdYbx7y3qwGhu0EkptUtEDugexCEdRKRaKZXq37NW27Zty3ryyScLd+7cmRUKhXDiiSfuP++882o6d+7s9b+ndgDqAPjlkoYCAA0AvPzD5yfhcPhC6zfZAIZqHCYpSqkzReRGGKddJuyJJ54YU19f/8ju3btvgHFYnFZKqeNE5BEA/6N7lmQ0NDTIE0888T+bNm26vr6+fnDr1q2jw4cPDw0ePPiD4uLiq3TPlyoRyVdKLYPmr5X58+c/EwqF+vTq1esspBhKlFJf5ubmjqqvr9/p0Hi6VSilLheRtboHccg8EZmmlPqP7kGSMX/+/KJFixZdv2/fvu8opUJ9+/bddfbZZ//6mGOOeV73bA75I4B3YNRqfnCvUmqtiPxF9yDJOnDgQK399+LF1e1IJDISwL3hcDipbzYiMgvGxcRd3XAxcSQSOQnArHA4PED3LIkQEYGxnf4OACfDqJ9+PXXq1FuysrK6Apg3ffr0sTpndMKDDz7YpqGhoTocDodg3KQv48xKagOMSupnqT5fJBLZn5OT0/umm27alvp0+kUikapQKHTezTffvEL3LE6IRCJLRWRqWVlZhe5ZEiEi/bKysm6PRqNXiEiooKAAu3fvxg033PBRjx497isrK3tF94xOiEQiLwCYGw6Hn9I9ixMikchjAFaGw+GHdM/ilMDdfsHcJTUGwMtuCDZeZV4o/BGAlwAcBeNC4f5Kqd9lZ2d7LzG736Uwvl5n6R6EqDERKc7Ozn5CRFZGo9Epw4YNCz3yyCMoKChAQUHBmu7du3u57iAPCuIFxdwllQIz1Pw/AKfi0O6nR5RSNVoH8z9rl9QC3YMQWUSkOCsr61YRuToajYaGDRuGyy+/HD179kRlZSU2bNiAVq1a/Q3AubpnpWAJYrjhvaSSwFCjj3lwH3dJkWvYQs1V0Wg0yx5qLBUVRqO2f//+Z8BwQxkWqHBjVlIXwji4j8ukcWCocYUJ4MF95AIiUhwKhZoNNZaKigoUFBSs3bNnz6pIJKJhWgqyQIUbsJKKG0ONq/DgPtJKRPqEQqFpInKVUqrZUAOgcSVFlHFBCzespFrAUOMujSopv5xJQx6RaKix2CqpmZmYk6ixwIQbVlLNY6hxLVZSlHHJhhpLRUUF2rVr99Xu3btXpXlUopgCE27ASiomhhrXYyVFGZNqqAEOVVKtW7dmJUXaBCncsJKyYahxP1ZSlClOhBqLVUnV1NQ87fScRPEKRLhhJXUIQ42nsJKitDJDzS9CodBUpVR2KqHGwkqK3CAQ4QaspBhqvKkEQBVYSZHDRKQPgJvMUJMzbNgwTJ48Gb169UrpedetW8dKilwhKOEmsJUUQ403sZKidGgcaoYOHepIqLGUl5cDAGpqarhLirTyfbixVVIvBamSYqjxPFZS5Jh0hxqLWUlV7t69+7+OPjFRgnwfbhCwSoqhxjdYSVHKMhVqAFZS5C5BCDdWJTVf9yDpxFDjH6ykKFWZDDUWWyXFXVKkna/DTRAqKTPU3AfgNDDU+AUrKUqKjlBjYSVFbuLrcANgLHxaSTHU+BorKUqIzlADHKqk2rZtOyMjn5CoBX4PN76rpBhq/M1WSU1nJUUt0R1qLFYlVV1d/feMfmKiJvg23JiV1Bj4pJJiqAmMS8FKilrgllBjWbBgAQoLC9ft2rWLlRS5gm/DDXxSSTUKNdvAUON3ViW1QPcg5D5WqBGRqQC0hxrAqKTWr1+Ptm3bcpcUuYafw42nKymGmuAxK6nhYCVFjTQONU6dKOwEVlLkRr4MN16upGKEmrsAPKyU2qN1MMoEVlJ0GDeHGgsrKXIjX4YbeLCSWr58eWsR+QgMNUHGSooAANu3b8/529/+9jMRuRguDTXAoUqqXbt2XLUhV/FruCkBUA0PVFIiMjIvL++3tbW1PQHkgqEmkFhJEXBwpebGrKysgdFodJBbQ43FqqT27NnDcEOu4rtw45VKyl4/1dfX7xoxYsSO999/vx9DTWCxkgowK9SIyDUAco4//nhMmTIFffv21T1as8xKav2uXbtW6J6FyM534QYur6RiXVMzderUt4466qi/vvfeeww2wcVKKoBEpAjGNTXXwFY/1dXVoXv37rrHa5ZVSRUWFnLVhlzHj+HGlZVUcxcKRyKRk7QOR1qJSDewkgqUpkKNVT+tXbtW63zxsCqp3bt381Rich1fhRtbJfWyWyopERkL4A4YN7TcAuAXAP6slNqndTByE6uSekH3IJReIlIM4FYR+b6IZJ111llSUlLi2mtqmmNWUhtYSZEb+Src4FAlNUv3INzSTQkoBbAJQIXuQSg9Wlqp8RqrkurQoQPvAE6u5Ldwo72SMkPNvQBOB0MNtYC7pPzNb6HGYlVSO3fufErvJESx+Sbc6K6kGGooSdwl5UN+DTWWBQsWoH379ht27tzJSopcyTfhBpp2STHUUIpKYFRS3CXlA34PNcBhldRM3bMQNcVP4caqpF7PxCdjqKFUcZeUfwQh1FgqKoxLw1hJkZv5ItxkspJiqCEHTQArKU8LUqixVFRUoH379lU7d+5crnsWoqb4ItwgA5UUQw2lASspjwpiqAEOVVKdOnViJUWu5pdwk7ZKiqGG0oGVlDcFNdRYrEpq+/btf9U8ClGzPB9u0lVJMdRQmrGS8hBbqJkKIDdoocZSUVGBDh06VO3YsYOVFLma58MNjGDjWCXFUEMZwkrKAxqFmpxhw4ZJEEMNcKiS6ty58zO6ZyFqiR/CjSOVFEMNZYqtkvojKyl3Yqg5klVJbdu27UnNoxC1yNPhxqykxiKFSoqhhjTgwX0uxVDTNLOS2shKirzA0+EGKVRSDDWkkVVJ8V5SLsFQ0zyrkurateuzumchiofXw03ClRRDDelkVlJngZWUKzDUxMeqpLZs2fJ/mkchiotnw01dXV0ICVRSIjIcRqg5Gww1pA8rKRdgqEkMKynyGs+Gm6VLl7ZHHJUUQw25DCspjRhqEmdVUt27d2clRZ7h2XCzbNmyjmimkhKR0QDuADAUwFYAZQAeVUpVZ2xIIhtbJfUoK6nMEpE+AG4RkasBZJ911llSWlrKUBOHBQuM0wq+/vrrxzWPQhQXEcnyZLjZtWtX3po1a9oDmNW4kuJKDbmYVUnN0j1IUMRaqZk0aRJ69+6tezTPKC8vR4cOHTbt2LFjpe5ZiOI0wpPh5vXXXz+9vr7+sOsWzFBzD4BzwFBD7sRKKkNE5CgAv2CoSU1VVRXWr1+PHj16PK97FqIElHgy3FRWVo7Iyck5UF9f/3qjULMdDDXkQtwllRmNQ82QIUPk8ssvR3FxsebJvOmDDz4AAGzatOkxzaMQxUVEQgAu9ly4EZHWoVDotMLCwvqdO3e+A+Oamm0AwjC+cfCaGnKjS2BUUi/oHsSPdu7cmfXoo4/eJSKXAMgePny4lJaWcqUmRQsWLECHDh2+5i4p8pARAHpIJBL5VPckiXj33Xc7z58/vzcA5OfnNwwbNmzLiBEjtrVq1crLPw3nAygG8KXmORxRVVV1fDQazc7Ly9vTtWvXNbrnSZVSKgTgBBFZnOxz/PGPf+y/Y8eOvFtvvfXzUCjk4HTJUUqdCGCZiBzQPUsqtm3blvv22293Xbp0aedoNIqTTjoJF1xwAbp166Z7tJTU1tYiOzsbWVlZ2mb4+uuv8cADD+Ccc87ZOnr06KpUnksp1V9EtgDwy4p6sVJqj4js0D2IE5RSRwGoNf+OPEkp9dktt9zyAwB/A3BZdjQavV73UPF48cUXT/v888+v2r9/f+9QKFR/zjnn7Bw8ePD3evTo8Q0ARKPezTYiMkApdTcAT/xdtEQp9U8AHevr67+IRqM3654nVVlZWa2i0egbAG6IRqMq0cevWLGiw/r16+d06dJlDoDfu+Hfqoi8pZT6lVJqt+5ZkvHpp592e+edd67YsWPHWADZJ554IiZOnIiioiLdozli06ZN6NSpE3Jzc7XN8OGHHwIA2rZt+/NoNLoulecSkd9Ho9FZAMqdmE03EbkHQEU0Gn1N9yxOEJFfKKXWK6U8eW3Vnj17cmbOnHkegP8CKALwlSiV8Gt1RonIKBhbuofB2Prdtn379u+WlZW1DofDQ/VO54xIJHISgFnhcHiA7lmccN11132tlOoGYN706dPH6p4nVQ8++GCbhoaG6nA4HAKQ8BeMiFwD4FEAI5RSHzg+YBIikcj+nJyc3jfddNM23bMkwtz9dIuI/C9s9dP+/ftRVFSkNQw4ae3atejevTvy8/O1zXDDDTegurp68/bt27un+lyRSORdEXm4rKzsFSdm0y0SibwAYG44HH5K9yxOiEQijwFYGQ6HH9I9SyJEJBfA1QBugRFq9gIoAPBj115z08SFwusA/KW4uPh9AKP1TUeUkFIAX8MnP7XqEOtC4cmTJ+Poo48GAKxatUrrfH5TVVWFdevWoWfPnp78SZ78TURyAEwCcDuAfgC+AHAlgDMA/C+Af7ou3DQRan6rlNotIs8DqB41atTHYLghD+AuqdS0FGooPaxdUhs3bvyT5lGIDmom1MyEsaoeAfCuUmqLa8JNc6HGfH9rGHcBn9u+fftaXXMSJYj3kkqCLdT8GEAuQ01mVVRUoGPHjpu3b9/OXVKkXXOhRil1wPyYcwD0gHEZi/7bL7QUamzGAGgLfpMgbymBUUnx4L44MNToZx3c17t3b56kTVrFE2psSgA0AHgJ0BhuEgg1lhIA+2DcS+qMTMxIlApWUvFjqHEPq5LasGHDo5pHoYBKMNRYB/d9F2YlBWgIN2aouRvAuYgv1NgrqVeUUjWRSCQjsxKlyDq4j6uNTWCocZ+Kigp06tRp87Zt21hJUUYlGmpsRsBWSQEZDDfJhBqbC8FKiryHlVQTGGrcyaqkjjrqKL7WUsakEGosJQAOwKykgAyEmxRDjcWqpOY7PyGR88xKagSAR1lJHcJQ427WwX3r16//o+ZRKAAcCDX2Suodq5IC0hhuHAo1ViU1FkYltc/xQYnSg5WUDUONN5iV1BZWUpROToQamyMqKSAN4capUGPDSoq8yKqkAn1wH0ONd1gH9/Xp04evtZQWMULNl0g+1FiOqKQAB8NNGkKNhZUUeYqIdIGxS+pPQa2kYoWaSZMmoW/fvrpHoyZYlVRlZeV0zaOQz6Qp1DRZSQEOhJs0hhpWUuRVE2B8bQXuJ+AYoQaTJk0Shhr3YyVFTktXqLGJWUkBKYSbdIYaG1ZS5EWBq6QYarzNqqSKi4tf1D0LeZ8t1NwGoD+cDzWWmJUUkES4EZHzYaSkM2GEml8BmK6U2pvikLFMgHEn8NfT8NxEjhORrjB+mghEJWWGmrCI/ABAzhlnnIHS0lIpKirSPRoloLzcyOEbN278g+ZRyMPMu3R/H0Yu6APjQuFJAGY5/XoY6+A+u7jDTYZDDUQkH8A4AK8qpWrS8TmI0iAQu6QYavylvLwcnTp12spKipIRI9R8CWAygOfT+EPeWTAqqbtivbPFcJOh+ikW615SvL8JeUkpfFxJiUhvAL9k/eQftkpqtu5ZyFsyWD/FUgqjkpoT651NhhuNocZSAqAG3CVFHtFol1S6v7AzyjyU8Oci8jOlVN6QIUMUQ40/WLukNm7c+HvNo5BHaA41LVZSQIxw44JQY98l9TJ3SZGH+G6XVBOhBn379hXds5EzzF1SW7dt2/al7lnI3XSHGhtrl9SdTX3AwXDjhlBjw11S5EW+uZcUQ00wWJXU0UcfHXNpnwhwVaixWLuk/tnUB2SLyEgY6ce6UPhWAI+k60LhOE2AcXAfd0mRJzTaJeXZSsq8piYsIj8EkDNs2DBMnDgRRUVFDDU+ZO2Sqqqq+p3mUciFzFDzfRgXChcjMxcKtzSTVUn9q6lKCjBWbt4EsAPGSs3vlFK7MjNibLZdUnO5S4o85FIYu6Q8eQG8baXmBqVUq5NPPllNnjyZ19T4XHl5OTp37rxt69atrKToIBeu1NhZu6TubO6DsgFMA/AHzSs1dlYl9YLuQYgSMAHAJnhslxRXaoJrw4YNWLduHfr27XvEAWgUTE2s1FwO4DkXnds1AUADmtglZclWSt2XmXniVgpjl9Rrugchioe5S8pTB/dVV1fLww8/fJuI/IgrNcFkVVIbNmz4reZRSLP6+vrQG2+8cQqMQ/f6A1gD4McA/uKClZqDzErqUhiV1NbmPtbxu4KnwqykeC8p8hrP7JIyrw26MScnJ7e+vv76IUOGqMmTJ/NC4QCqqKiwKqnPdc9Celj1U9u2bUurq6vbwaWhxiauSgpwWbjBoYP7XP9NgsjG9bukrFBjXVPTv39/XHXVVRgwYABDTQBZu6T69+/PSiqAYlxTs+f0009/4aOPPrrMpaHG0uIuKYvbwo11cB93SZEnuP3gvsahxqyfUF9fD1ZQwWUd3Pf1119zl1SAxAg1awD8OBwOn5KVlbVi4cKFrnsNs5iV1CVo5uA+u1D6R4qPiLSCsXLDSoq85FK4sJISka4iEhGRSgBlJ598ct5DDz2EadOm8boasg7u2753795lumeh9BORHBGZAuOamr/B+N7/YwDHKKUez8rKUloHjI9VScX1WuumlZsxAArgsm8SRC1wVSXV1EoNr6khi1VJDRgwgJWUzzW1UgPgSaVUg87ZkhB3JQW4K9ywkiJPse2S+rPuSipGqIky1FAs1i6pbdu2cZeUT/ks1MR1L6nGXBFuzEqKu6TIa7RXUs2EGtdUzuQu5eXl6NKly/YtW7awkvIZv4Uam7MA9IRx2HBcXBFuwEqKvMmqpDJ+cB9DDSXDqqQGDhz4su5ZyDm2UDMNwAD4J9RYEqqkAPeEG1ZS5Cm6KimGGkqFVUlt2bLlYc2jkAMCEGqSqqQAF4QbVlLkURmtpBhqyAnmvaR2bN26lZWUhwUh1NgkXEkBLgg3YCVF3pSRSoqhhpxiVVKDBg16RfcslJwYoWYt/BtqLAlXUoA7wg0rKfKUTFRSDDXkNKuS2rx5MyspjwloqLFXUv9KpJICNIcbHtxHHpW2SoqhhtLFrKR2bt26danuWSg+QQ01NlYldXeiD9S9cjMGQDuwkiJvcbySYqihdLLtkpqrexZqGUPNQVYlNSfRB+oON6ykyFOcrqRihJoDDDXkNNsuqQc1j0LNYKg5JJVKCtAYbkQkH8YuqbmspMhDLoHxdfNCKk8iIj0BlMF44co7/fTTD0ycOBHFxcVZDsxIdJiKigpWUi5mhprvAbgVQF8AK8zfP6v79HONhsOopO5J5sE6V24uhLFLapbGGYgSVQqjkvowmQc3XqkZMmSItVLDUENpUVVVhcrKShx77LGv6p6FDseVmmaVwqikZifzYJ3hhpUUeUpBQUFnJFlJWaEGwA0A7PUTQw2llVVJbd++nZWUSzDUNC/VSgrQFG5su6RYSZFn1NTUTECCu6Qahxqu1FCmmfeS2rV58+YlumcJOoaauFmVVMK7pCy6Vm64S4o8JxqNTkCcu6RihZpJkyahX79+DDWUMdYuqcGDB8/TPUuQmSsRlwK4Dww18Uh6l5RFV7ixKqnXNH1+ooTs27cPiKOSYqghN7HtkvqN5lECiaEmceb/Z5cghUoK0BBuWEmRFy1btgxoppJiqCE3siqpLVu2LNY9S5Aw1KQk5UoK0LNyw0qKPOezzz4DYlRSMS4Ubpg8eTJDDWlnq6S4Qp4hDDWOSLmSAvSEG1ZS5CnPPfdcp7Vr1wLAC1Yl1Uyo0X0wJhGAQ5XUzp07WUmlGUONM5yqpIAMhxtWUuRFX3zxxcXRaBTZ2dkvMNSQV1iVVFVV1ae6Z/ErW6i5F8AxYKhJlSOVFJD5lZvRMCqplE53Jcqk/fv3X52VlYWGhoYJAH4AoNWpp57aMHnyZBQXFzPUkOtYldTxxx8/X/csfhSNRmXOnDnDYWzp7gdgJYApAJ4J8InCTpgAByopAJD7778/Y6dW/vWvf/32mjVruk2bNu2tvLy8pP8BKKU6h0KhY5RSFU7Op1E7ACcD+JfmORyxcePG/4lGo3m5ublbu3bt+rHueVKxdu3ado8//vhw6/cnnHCCGjNmjPTq1UvnWCmrrq5GmzZtICK6R3HEvn37kJ+fj1DIH7fkqqmpQV5eHrKykrt0a/78+Zg7dy5++tOffti7d+89Do+XjNOVUmtFJKWqQbcDBw5IeXl5r4ULFw7euXNnVmFh4b7hw4evOuOMMzaGQiGle74UHA9gH4yVJy2i0ajcd99953bo0GHftdde+1GijxeR5WVlZTdZv88GMMPRCZtQU1OTs2rVqnM7dOjwcV5e3l9TeS4R+ZZSqiMyNHsGFAPoD5/8eZRSZwLIO3DgwAZ49M+0du3a9vPmzfvOhg0bzgSAnj174pprrkFRUZEv0kB1dTUKCgp8Ewa++eYbtG3bFtnZ/lhIq62tRdu2bZGTk5PU45csWYKuXbvW9O7de7rDoyWrOBQKvaOU+o/uQZJRW1ub9dJLLw3/4osvLqmtre1WWFi4//zzz39v+PDh/5ebmxvVPV+qROSHSqmNALTdouO9994bVFNTc2Hfvn1nAngz0ccrpbbbfy9KZSZsisjFMJaaSpVSKe2UikQiIwHcGw6HhzoynGaRSOQkALPC4fAA3bM44brrrvtaKdUNwLzp06eP1T1PIkSkB4wbWv4IQCsAAgBXXXUVxo8fr3M0R61YsQIx4pMsAAAgAElEQVT9+/dPemXAbVatWoWioiLk5ubqHsURa9euRffu3ZGfn5/wY6uqqnDttdfiW9/61j+WLl1amobxEhaJRN4VkYfLyspe0T1LIkQkG8AVOFQ//RfAvffdd993QqHQK+Fw+Cmd8zklEok8BmBlOBx+SNcMIvIHAD8B0DPVi4kBIJM/tpXC2CXFkzLJdUSki4hEAKwGcD2MG2Putd7fqlUrXaMRJcTaJVVTU/OA5lE8S0RCIlIC4HMAf4XxvfLHAI5TSs3weAXlOrYLs1PeJWXJSLgxd0mNBXdJkcvYQk0lgJsBvA3gVAC1MK6FAgDfrAiQ/1VUVKBr1667V61a9YnuWbzGFmq+BDALQA6MUHOMUupx7oBKG2uXlGPn32Vq5eZC8OA+chFbqPkKRg1VDuBUpdRFAL4NYJz945O99oEok6qqqlBZWYkePXq8oXsWL4kRanLBUJNJjhzcZ5epq+94cB+5goh0AXATgOsAtAbwFoCwUuoT8/3FAH4LIApb+M/Ly8v0qEQJsyqpb775hgf3xSHGOTVfgefUZJTt4L73nKqkgAys3LCSIjeIsVJTAWOl5nxbsAkBeBJAARp9bbCWIi8wK6k9K1as8PQRDOnWzErNAK7UZJzjlRSQmVqKlRRp00KoWdTow68HcG6M5/DNFmPyL6uS6t69e8LbaIOCocaVrEpqtpNPmolXbFZSlHFN1E+3xAg01scPAnA/GtVRAJCdne2b82DIv6xKav/+/b/WPIrrsH5yp3RVUkCaV25YSVGmJbhSYz3GOsyyFWJ8TfB6G/ICs5Lau2LFin/rnsUtuFLjemmppID011KspCgjkgk1Nr+Csf07Jp5xQ25n2yXFSgoMNR6SlkoKSH8txUqK0irR+inG40+CcfqognkacWMMN+R2ViWllAp0JcX6yTvSWUkBaVy5sVVSr7KSIqeluFJjPUcejDoqG00EGxFJ6gh8okyyKqklS5YkfMNBP+BKjSediTRVUkB6aylWUuQ4J0KNzb0w7obb7M0wec0NudnGjRtRWVmJnj17vq17lkxjqPE0xw/us0tnLWVVUryXFKUs1fopxvOdAeBGNFNHWVhLkZt9+OGHAIADBw4EppKy1U/3ABgI1k+eYvv7e08ptTkdnyMtKzespMgpDq/UWM/ZFsDTMEJNs8FGKcWVG3K1iooKdOvWrXrp0qULdM+SbraVmi9grNTkgSs1XpTWSgpIXy3FSopSko5QY/MbAEfj8GBTD+NmmUfc7ZfhhtwqKJUUQ43vpLWSAtIXblhJUVLSHGogIufDeFG0NAD4O4yVxrzWrVtvbfwY1lLkVlYlFQqFHtQ8Slow1PhPJiopIA3hhpUUJSPdocb8HB0APAVjxaYewOMA+iulpgCYAgAXXnjh9iFDhhz2OK7ckFtZldSiRYs+1D2LkxhqfC3tlRSQnpWb0WAlRXFqItSc5mSosXkEQGcYoWaAUurHSqlK831jAEQvu+yyfhMnTjzsQVy5ITeyKqlevXq9o3sWpzDUBELaKykgPeGGlRS1qIVQ4/gdjUVkLIwvqMGNQg1E5BgAHQsKCjZlZ2fnDhgwAPbVG67ckBtZB/fl5OT8RvMoKWOoCYZGB/elrZICHA43ZiU1DqykqAmZDjU27yulrlRKrYrxvtsA4IILLthjvcG+esOVG3Ijq5JauHChZysphprAORNAL2Sg2XF65YaVFMWkMdQAAJRSe5t598FKynqDffWGKzfkNhs3bsRXX32F3r17/0v3LMlgqAmsjFRSgPPhhpUUHUZ3qGlJ40rK/j5r9YYrN+Q2ViWVm5vrqV1SDDXBlclKCnDwhGJWUmS3f/9+VFRUWCeHWicK/8oNgaYRq5I6YmXHWr1huCG3MSupfRUVFe/pniUe0WhUZs+efSaMM6Z4onAwWZXUvZn4ZE7efoGVFEFEOn/7299uu2zZMjQ0NPSDe0ONxaqk+sZ656RJk1BXV5fhkYiaZlVSp5xyyr90z9IS60yT9u3bn7pr166zAVSCoSaoSgBEAbyUiU/mZC3FSirARKSziNwJYPXixYvb9OjRA+PHjy93S/0US3OVlKVfv37o169frHcRaWFVUq1atXJtJdW4fmpoaAgNHjz4jzDOlWL9FDCNKqlNmficjqzcsJIKLhHpDOBaAD+HsXL31oQJE07u1q1bRwC7tQ7XsiYrKbvs7HTeX5YoMWYlVfPBBx/8S/csjcW4oWUlgB+XlZVNzsnJmV9WVsZQE0xWJXVfpj6hUys3rKQCxr5SA+AOAP+GeaFw9+7d67UOF79mKykit7EqqaKiIlddaxPjQuFWMOqn/kqpx7Ozs4+4ZxsFilVJ/TNTn9CpH0lZSQVErJUauPuamphslVRVdnZ2L93zEMXDqqQKCgpcUUk1tVIDXlNDJh2VFODAyg0rqWBobqXGa8HGFFclReQmFRUV6N69e83bb7+t9ZYLTazU/AzAQF5TQ41k7OA+OydqKVZSPubDUGNhJUWeYquk3tc1Qwuh5vdKqVpds5FrZbySApyppVhJ+ZBf6qdYWEmRF1mVVGFhYcYrKVv9dDeAQTDqp58B+DMDDTVFVyUFpBhuRCQPRiU1j5WUP/g51NjcBgCjRo2q1j0IUbysSuqNN954O1Ofk6GGUnQGMrxLypJqLXUhWEn5go/rp1jGAIhOnDiRlRR5gq2S+iATn89WP30Oo37KB+snSpyWSgpIvZayKqlXHZiFNAjISs1BrKTIi6xKql27dmmtpLhSQ06x/VvKeCUFpBBuWEl5W9BCjQ0rKfIcs5L65s0333wrHc/PUENpoK2SAlKrpVhJeVAT9dPpPq2fYhkDIFpaWsp7KpAnWJVUnz59PnT6uVk/URppq6SA1GopVlIe0sRKza1KqX9rHSyDbJXUxpycnJ665yGKR0VFBQCgQ4cODzn1nFypoXTSXUkBSYYbVlLewVBzmFsB4IILLmAlRZ5RXl6O7t27f/Paa6/NT/W5GGooQ7RWUkDytRQP7nO5FuqnIAYbABgL7pIiD7EqqeLi4vJUnof1E2WY1koKSL6W4sF9LsWVmtjMSqoTKynyEquS6tixY1KVFFdqKNPcUEkBSYQbs5K6CEYlxeV9l2CoaRErKfKc8vJydOvWbf+rr776eiKPY6ghjbRXUkBytRQrKRdh/RQ3VlLkKZs2bcJXX32Fvn37xl1JsX4iF9BeSQHJ1VKspFyAKzXxYyVFXvTRRx8BALp06fLblj6WKzXkBiIiAL4LzZUUkGC4YSWlH0NNUlhJked89NFH6NatW+1LL73U5HEbDDXkMmcCOArA/boHSbSWYiWlCeunlIyFcXAfKynyhK1bt6KyshL9+vWriPX+GPVTa7B+Iv1cUUkBiddSrKQyjCs1qbFXUrm5uaykyBOWLFkCAOjUqdPD9rfHWKlZB67UkAvYKqn3dVdSQALhptHBfVzeTzOGGsfcCgCjRo3iYZPkGYsXL0bXrl3rX3755bkAQw15glVJRXQPAiRWS40GUAhWUmnF+slxYwFES0pKjtY9CFE8Nm7ciI0bN2LgwIHLbPXTMhxePx3D+olcxqqk5ugeBEislpoA4BuwkkqLvXv3ZonIAwB+AqAtjP+f72KgSZ6IDAArKfIY6+C+zZs3r4MRao4F8BWAHwF4SilVr204ohjMlcVLAHzghkoKACQSiTze0gfV1dVl3XPPPVf07Nmz6pprrnkrE4M1RynVC8ApIvKS7llStWPHjlZvv/326Z999tmAuro66dWr1/qRI0d+cuyxx27VPVuyqqqqrohGo/m5ubnru3XrltDhY0564oknzlm9evWA8ePH777wwgsLU3muXbt2oX379k6Npt2uXbtQWFgIoyb3vj179qBt27YIhZK9o4x+DQ0N2LBhA/785z9j9+7dAIDWrVtXDx069NNzzz13ZU5OTlTziElTSo0TkaUw6jQ/GKmUWiciK3UP4gSl1FkAdpt/Rwn77LPPus2cOXP8iBEjyseMGfOFw+PFa01ZWdnBSiw7Go0ub+kR77///uD6+vrc4uLiD+P5+HQTkQMABrthlmRt3ry57WuvvXb26tWrzzxw4EDegAED6k444YQ/DRkyZB0ARKOefR0DgAYAiEaj1Tr/jiorKyeLiBozZkxBTk5O0s+jlAIA5ObmOjWadiKCnJwcT4eBxnJycpCVlaV7jLhUV1dj/fr1WLdu3cFfN27cePDfWlZWljrttNM+HD169Cs5OTkHAM+/JpwHoEop5dnXbDsROV0ptclHf55vAdia7Ov1ggULBolI9IQTTngzGo3udXi8uIjIYStGYn0xtfCgv8O4mK2rGy4mjkQiIwHcGw6Hh+qeJVHmhcK/APBTmPXT6aef/tzFF198ezgcHqB3Omdcd911XyulugGYN3369LE6ZjArqZUFBQWbZsyY0SOV54pGo1i5ciUGDRrk0HT6rVixAv379/dMGGjJqlWrUFRU5LoAqpTC5s2bsXbtWqxduxZfffUV1qxZg+3btzf7uB/96Eer+vbte2VZWVnMreBeE4lE3hWRh8vKyl7RPYsTIpHICwDmhsPhp3TP4oRIJPIYgJXhcDjhe5iZlVQlgNVKqXOcni1ZLV5zw4P7nCEinQBcB+NiwEIYu5+mKaU+ikQiJ2kdzp+mAcCoUaP4b5Yy4sCBA6iqqsLq1auxevVqbNiwAWvWrMHevQn9IFsNoOroo4+uS9OYRE4bBqA3XHBwn108FxRzl1QKmgs1WgfzP+6SorTZu3fvwdUYa0Vm/fr1h1VHIoJ4VsZtngZwBYDnYFycSeQFrjm4zy6ecGMd3NfkEeB0JIYafUSkH4xdUptyc3NTqqSI7D7//HM888wz+OKLlq+ZjDPYKAAC49iHA+bb/gGGG/IA8+C+S2Ac3LdR9zx2zV5NaDu47zVWUvERkU6Nzqn5GMBQ85waBpvMuB3gwX3kvMGDB+O+++7Db37zG1x88cXo0qXLwfclsfMsCiPc/EQpdTeMHySXK6U+d2xgovQ6A8bBfa5rdlpauWElFSeu1LiKVUkV6x6E/Kl///7o378/rrzySqxatQrl5eUoLy/H1q3GCQ5xVFJRGCs1VyilZpkXwJ8I4K60D0/kHFdWUkDL4YaVVAsYatyFlRRlmj3orFy5Ek8++SRWrmz2+JMogP0ALlZKvWm+rcT8lT9Ikie4uZICmgk3tkrqdVZSRzK3dN8E4/5PbQG8BuNEYYYavW4DgAsuuICVFGVMNBrF3//+d7z66quor68HjAATq/ZXAHYBGK2U+tj29gkAvmQlRR4yDEYl9YDuQWJpbuVmFIyViFkZmsUTuFLjeuMAREtLS7lLitIuGo3iueeew0svvYS6ujrAqJpeBjAYQH8cGXA2A7hAKfWZ9QZztfEksJIibymFi+4l1Vhz4ca6lxQrKXClxgtYSVGmxFipOQDgRQA/BNAHQKxj7JfDCDbrG7291Pz1hXTNS+Qks5K6FMa9pFxXSQFNhBuzkhoPHtzHlRpvsSqpGt2DkD81s1JztVJqFwCYd/FubBGAMUqpWPeMK4WxS2pZuuYmctgZcOHBfXZNrdxYlVRgL26LEWrKAdyqlHpP62DUHKuSKtY9CPlLPKHGpgSHzq8BgDcAXKKUOuI6MHO18dtgJUXe4tpdUpamwk1gd0kx1HiTrZL6Ojc3t7vuecgfEgw11g0I7TchmwNgslJqfxOfYqL5a2B/kCRvMSup78Klu6QsR4Qb272kAnVwH0ON590GAKNHj+YuKUpZoqHGxl5JPQrgOqVUc7fz5sF95DVnACiCS3dJWWKt3ASqkmKo8Y1xAKITJkwo1j0IeVcKocYywfz1TqVUs1UTKynyKNdXUkDscFOCAOySaiLUTFNK/UvnXJQ4VlKUKgdCDUTkeAADAfxUKfVoHA9hJUWeYqukXLtLynJYuLFVUr7dJcVQ40uspCgpToQam4sBXK6Uei7Ojy8BsIKVFHmIVUn9WvcgLWm8cuPbSoqhxtfGAVCspCheDocay0yl1Np4PpCVFHmUVUm58uA+u8bhpgTGPU/maZglLRhq/I2VFCUiTaEGABBvsDGxkiJP8VIlBdjCja2SelUptVffSM5gqAmM2wBg1KhRPLiPmpTOUJMkVlLkNZ6ppIDDV258UUkx1ATOOACqpKSkj+5ByH1cGGogIn3BSoq8xzOVFHB4uPF0JcVQEzxWJdWuXTtWUnQYN4Yam8vMXz39gyQFh9cqKcAMN412SXmqkmKoCTTrXlLf6B6E3MHlocbCSoq8Zhg8VEkBh1ZuPFdJ7du3L1tE7gRDTZBZlVSR7kFIr2g0iueffx5z5851c6ixV1J3656FKAGeqqSAQ+FmAoyD++ZqnCUuItKpZ8+eV2/duvXbAIbAuCndnUqpBZpHowwyv0lwl1TARaNRPP3005g7dy7q6+sBI9TMBvADpdQevdPFZO2SekHrFERxMiupSwF86IVKSkSOBTAt26ykxgN43c0H95n1088BXL9x48aCPn367K6srLyQoSawbgdYSQWVFWpeffVV1NXVIRQKoXXr1q/X1NRMdGmosUyAcS+pz3QPQhSnoQCOgssrKSvUwLimrSGEQ5XULJ2DNUVEOpr10yoAtwJYeuaZZ/5y6tSpyxlsAm0cAFVaWspdUgESjUbxzDPPYNKkSZgzZw7q6uoOAJhz6623fn3HHXf8zM3BxlxtPBkufa0lakIpjEpqtu5BYhGRviLyGIDPYNRnMwEcF8KhXVKuupeULdSsBnAHgM8BnKeUGj5u3LjFWocjrUTkaBiV1Obc3NyQ7nko/eyh5h//+MfBUAOgs1LqktatWzd352234MF95ClmJXUJXLhLyhZqVgK4CsAzAI5VSk1RSq3OhrFL6jW37JISkY4AbgRwPYACGNfU3KWUqtA6GLmJtUtqv+5BKL0a1084dE3ND5VSu/VOlzCrklqmexCiOA2FsUvqN7oHsYjIIBjfAy4D0ADg/wDcr5SqtH9cNlxSSZmh5noANwBoD2P3021KqXe1DkZudBGMSoq7pHzKI1u642arpLhLirzENZWU+TVUBuB/Ycw0E8bCx+pYH58NzQf3MdRQIsxKqjN3SfmT30KNDSsp8hS3VFIxQs0zaCbUWLJhHNyX8YvwGGooSdYuKVZSPuLjUGOxDu5jJUVeofXgPluouRqAQpyhxpKNDP8kISLtAFwDIAyGGkqctUuKlZQPBCDUWC/SJ4GVFHmLloP7YoSaZwHcrZRalcjzZCNDu6TMlZqfw1itaQfgTRgprDwTn5+8z/xH39ncJdVN9zyUvGg0ipkzZ9pPFI4CeAXAlR68ULglpeavPLiPPEHHwX3mhcLWOTUHADwJ4P81vlA4Xtnp3iXFlRpy0G0AMHr0aB7c51ExVmqiMH7AmuKXlZoYSmFUUjy4j7xiGIyD+x5I9ydqon5KeKWmseyWPyQ5DDWUBuMAqAkTJrCS8piAhhpWUuRVaa+knKqfmuJ4uGGooXSwdkm1a9eOlZSHNBFq5gO4XCm1U+90GcFdUuQptl1SaamkzNfyMNIUaiyOhRsRKQDwEzDUUHrcDgCjRo1iJeUBDDUHcZcUeY21S8rRg/syFWosKYcbhhrKEFZSHsBQcwgrKfIoq5Jy5OC+TIcaS9LhhqGGMoWVlPs1E2quUErt0DudNqykyFOcrKR0hRpLwuGmiVBzu1LqHYdnI7KwknIphppmsZIir0m5ktIdaixxhxuGGtLIqqT66B6EDAw1zbNVUvfonoUoAUlXUm4JNZYWww1DDekkIsVgJeUaDDVxYyVFnqKUSqqScluosTQZbhhqyCXuAHgvKd0YahJmVVI8uI88YdGiRUVIoJJya6ixHBFuGGrIZcYBUCUlJdwlpYEVal5++WXU1tYCDDUtYiVFXrR06dITEUcl5fZQYzkYbhhqyG1YSenDUJMSVlLkOevXrz8BzVRSXgk1lmyGGnIxq5Kq1T1IUDDUOIKVFHnKsmXLutXW1rZHjEDutVBjyQawHkAhgLcB3KmU+lDvSEQHjYVRSR2lexC/i0ajeOaZZ/DKK6/Yr6mZC+Mu3b6995PTRKQfjErqXt2zEMVryZIlR8MILgcrKRE5BsZduifDeD14CsZdutfqmDFR2QAWgaGGHLZu3ToUFSV/mYz500KXgoKCLbm5uV2dm4zsmgk13w/aicIOmWD+ykqKPEFEpHXr1n07dOjw1Y4dOzY2EWru80qosWQrpUbqHoL8pb6+XhYuXJhSuAFwG8BdUukSjUYxc+ZMvPrqqww1zrIqqaW6ByGK0+k1NTVtu3fvvkREZsDjocYi999//526h0hCXwDnAfg/3YM4QSnVHUCJiDyiexYnfPDBB2Xz5s1r9f3vf3/twIEDZyTzHLfffvsv6+vr8//0pz9JdrbjN69PiFIK27dvR+fOnbXO4YRoNIqXXnoJb775Jurr6yEiqnv37iuvvPLKfxYWFno5SN4I4G8AtusaoLKyssOf//zn648//vj3L7/88lRvQ3ONiMxVSq13ZDj9rgSwAMBK3YM4pBTGn2Wx7kFS9dRTT12wYsWKYQAgItE+ffosGT169Pt9+vTxWh29IRwOH8wE2QDaahwmKUqpfBEJwYOzxyIirUUkpJTyxZ9nyZIluQDw2WefdRg4cGDCf6b169e3q6+vb92pU6eaUCjUOhqNOj9kApRSAIxg4FXRaBRz587Fm2++ibq6OogIevTose6KK654pWPHjvvh0dcCGwHQGoC2i88//vjjkwDg1FNPXYvU/78MKaXyHXget8gC0Ar++fNkA8iDh/8869atK3zrrbdOW7Vq1fGhUEgNHDhwy1lnnfXq0Ucfba3ceurPJiL5h/3eeuH2kkgkMhLAveFweKjuWZwQiUROAjArHA4P0D2LE1q1anWgtrY21KVLl+1btmxJeLlDRP4C4OpLLrlk/fe+9z3tFxNHo1GsXLkSgwYN0j1Kwpq6pua2224bVVhY2Pumm27apnlER0QikapQKHTezTffvELXDCKyCEBbpVTK/1AikchSEZlaVlZW4cBo2kUikXdF5OGysrJXdM/ihEgk8gKAueFw+CndsyRKRAbAqP0nwwidGD58eMXYsWNnh8Phh7QO56CQ7gHIX0TkuNra2hAAbN++vYOI5CXxNBcBUBMnTuzt7HTBEY1G8fTTT2PSpEl48cUXUVdXFwXwMoDOSqnvtG7dWveIvmLukhoCXkhMLiUiA8xrar4EcBmMa2pmA4iedtppa3TOlg56L2YgPxpt/Uc0Gg0BGA7jmIG4mAf3dWnXrh13SSWB59RoU2L+OkvrFESNxDin5hkYp2evArAWwIddunSp0TdhejDckNPGNPr9aCQQbgDcDgAjR47kwX0JUErhH//4B2bPns1Qo0cJgJU8uI/coonD9+5RSv3XfP8wAH0APAjgW7rmTBeGG3KMiLQBcFajN48B8MsEnmYcWEnFjaFGP9u9pHhwH2nXUqixKcGhe0n5Ltzwmhty0v8AyG30tuNEpE88D7ZVUltzc3PF4dl8Z86cOZg0aRKeffZZ1NbWRgG8BqCLUmoMg01GlcLYrcXrbUgbESkWkcdgbFG/CkaoGayUmtI42IiIALgEQHlT95LyOq7ckJMubOLtowA8HsfjbweA888/n5VUM+bMmYPnn3+eKzXuwUqKtDF/KLwFLa/U2A2FUUn5ZndUYww35KRRML647KsuCkboiSfcjAOgSktLWUnFwFDjPqykSJckQ43FqqReTNd8ujHckCNE5FgAR8d6F4DzRSRPKdXkigx3STWNocbVWElRRqUYagJRSQEMN+Scxruk7NoAOBPAO818zO0AMGrUKFZSJoYaT2AlRRnRKNSEYKy63BpvqLHxfSUFMNyQcy7EkZVU4/c3F27GAVATJkwIfCXFUOMN5q6UkwDcp3sW8i8HQ43F95UUwHBDDrBtAW8q2Cg0syXc3E0V+EqKocZzJoKVFKVJGkJNYCopgOGGnBFrC7idwNwSrpSqjPH+O4DgVlIMNZ5lVVJLdQ9C/pGOUGNzOgJQSQEMN+SM0S1/yMGPeyzG2wNZSTHUeBcrKXJamkONxX5wn68x3JATxqD5621gvv+IcBPESoqhxhdYSZEjMhRqrErqUhiVVJWTz+1GDDeUEnMLeDwnEFtbwnOVUnW2t98BAOeff35d7If5B0ONr7CSopQ0EWqmKaVWpulTBqaSAhhuKHVHnErcpUuX+q1bt+a0a9du7549ewps77K2hL9re5t1cF+vNM+pDUONv7CSolRoCDWWwFRSAO8tRamztoBbnjnuuOO+AYDhw4d/DuDjRh9/8DwcWyXly3tJzZkzB5dddhlmzJjBez/5Cw/uo4TZ7v30XwA/ADAHwLFKqdJ0B5ugVVIAV24oBeYW8BE4dK3NLABXhkKh7QCQl5fXAOM6mzcAnGZ+zIU4tCX8dgC44IIL6jM1cyZwpcb3WElR3DSu1NgFqpICuHJDqbFvAZ8F4HKlVIP9A5RSuwFcAODf5psG2+4SfhEAVVJS0jMTw6YbV2r8z6ykTobx752oSTpXamIIVCUFcOWGUmNtAX8WwPeUUgdifZBSareIjIKxgnMqgFEiMh+HKqkumRk3PZpYqfmeUmq73skoDVhJUbNcslJjnydwlRTAcEOpGQXjJ9gpTQUbi1Jql4icD+Mb/4Uwayov75JiqAkkVlIUk9tCjU3gKimA4YaSZG4BX4QYVVRTbCs4L8LYNaVKS0s9V0k1EWqmKKW26Z2M0slWSXGXFB3k4lBjCVwlBTDcUPLqAExuacWmMTPg/BzAUq9VUgw1gcdKig5atWpVZ/OaGreGmsBWUgDDDSVJKbU6hYffAHhnl9Q///lPPP/886irqwMYaoKMlRRBRIqPPfbYk5cvX/5d802uCzU2gaykAIYb0mM8jF1SPXQP0hz7So2IQEReV0p9j6EmeFhJkbcBlJEAACAASURBVL1+Wr58eVbnzp0Xbd269QqXhhpLICspgFvBKcNsB/dtc+vBfY23dGdlZb05bdo0RKPRMQw2gcVKKqBEpE/jLd0/+clP3rjxxhsfdXOwsVVSFUGrpACGG8q82wB3VlJNnFPTLRKJfLd169a6xyO9WEkFjC3UrEKjc2p69+5drXe6uFiVVCADOcMNZZpVSblml1RTocY8fI8rNQHHg/uCpblQ4+aVmhisSupF3YPowGtuKGMa3UtK+y4p7n6iOLGSCgDz9elXcPHup3gFvZICGG4os1xRSTHUUIJYSfmYn0KNzWkwKqmHdQ+iC8MNZZLWSoqhhhJlq6T+n+5ZyFm2UHMVgCz4I9RYAl1JAQw3lCE6KymGGkoBKymfMV+LbgTwYwA5MALAbUqpFVoHc4hZSU1AgCspgOGGMuc2ABg1alTGKimGGnKAVUkt0T0IpcbvocYm8JUUwHBDmTMegJowYULaKymGGnICKyl/CFCosQS+kgIYbigDMlVJMdSQw1hJeVgAQw0rKRuGG8qEtO6SYqihNGEl5UFBDDU2rKRMDDeUCWnZJcVQQ+nCSsp7Ah5qLCUAFIyDBwON4YbSKh2VFEMNZUAJWEl5AkONwXZwX7lSar3ueXRjuKF0syqphlSfiKGGMoiVlMsx1BzhNADFAH6reQ5XYLihdLMqqR7JPgFDDWWSWUkNASspV2KoaRIrKRuGG0qbvXv3toJRSW3Lzc3tnOjjG4UaBeB1MNRQ+rGSciGGmqaxkjoSww2lzRdffNEbAM4///yEKimGGtKMlZSLMNTEhZVUIww3lDZbt27tBECVlpZ2j+fjY4SatwFcoZTaHOvjRaTU/M83lVI7nZiZgo2VlHsw1CSElVQjDDeUNvX19TnxVFIxQs37AC6P4xCql2F8Mc8UkYUAXjP/t1gppVL/E1AAsZLSjKEmMaykYmO4obRqrpJKIdQAAJRS+0XkuzACzmgAwwHcB2CziMyDEXTeVErtSvGPQcFRAuC/rKQyj6EmaaykYmC4obSKVUmlGmrsYgQcAOgK4CrzfwdEpAJG0HkdXNWhJrCS0oOhJmWspGJguCHHffPNNyEAKCgoqM/Nzc2x3u5kqLEzA853YLwojoNRK1iyYKzonAXjm9Y2EXkXwFwAr/BaHbJhJZVBIlIE4CYw1CTNVklVsJI6HMMNOa6ysjIXAAYOHKiA9IUaO6VUnYhcikMBx84edjrB+CZWAiAqIp/CDDoA/sNVnUBjJZUBDDWOsiqp32mew3Vk6tSpx+seIlEdO3YcmpeXd92mTZsu1z2LE9q3b39sfn7+g5s2bRqrexYn/OUvf1laX18vQ4YMwbJlyw6GmpycnE+GDh0aHjx4cMzdT06oqanJef75539bW1t7dpwPUTDDj4jsysvL+3dhYeF7p5xyyr+OOuqoPQCQl5eX36lTp39v2bLlhIaGBl+Enx49enyya9eukd98840vVq569OjxdnV19f/u3bv3q2Qev2TJkl4LFix4rbCw8IlJkyY94vB4CevRo8fs2trau3fs2LFY9yxO6NGjx5OrV69+Zfbs2QOrq6tLAGS3atXqreOOO+6R00477Svd8yWqe/fuDzc0NLy3bdu2l3TOMXPmzF/s3bt3yvDhwy84/vjjv072ebp163ZHNBr9auvWrX9zcr5MEpGaRx99dM3B3//0pz/1xYs1ucPevXsxY8aMw97Wpk0bdO3aFdnZmVkoVEph48aNqKmpSel52rdvj0GDBqFPnz7o3DnhMwjJQz799FNUVFSgtLQUXbo4cgs0Mu3duxeLFi3C8uXLoZTCMcccg1NOOQXt27fXPZrnzZgxA23atMGll16qexTtRGThI488Msz6PWspckxlZSUWLlwIAMjKygIA5OXlQSmFzZvTtlgTU319fcrPsXv3blRVVSErKwv5+flo06aNA5ORG61atQrt27dnsHEQQ016bd68GXv37sWJJ56oexRXygZwg+4hEpWbmzuwVatWY/fs2fOw7lmckJub2zs/P/+q3bt336N7lmQsWrTouGXLlo3et29fHwBo1aqVmjJliuTk5HwB4LFMzzN//vyRq1atuiiBhxyspnJycnZ27Njxy169eq0YPHjw8nbt2u0XkdzCwsLf7N69+2d+uSansLDwoerq6tsPHDiwT/csTigsLLy7pqZmen19/ZZEH1tVVdVxy5YttxcVFb0F4/or7dq1a1dWW1s7q7a2dq3uWRJVVVXVccGCBRds2bLlNADSuXPn/4wfP75rYWHh/Nra2mW653NCQUHB1Q0NDZ9/8803H+maYeHChd8BcG63bt3uBJDScRdt27adqJTasm/fvncdGU4DpdRhtZx48bU6EomMBHBvOBweqnsWJ0QikZMAzAqHwwN0z5IIERkD4A4YF7VtAfAEgF8NHDhw/8iRI/MBzJs+fXpGryMSkTIAEdgCSwz29x0AsBDGBcVvIcZFxQ8++GCbhoaG6nA4HDIf63mRSGR/Tk5O75tuuskXt7SIRCJVoVDovJtvvjnhi1JF5JcAfg3gZKXUp85Pl7hIJLJURKaWlZVV6J4lXiJSDOBXAL4PIATgWQD3KqVWRCKRd0Xk4bKyslf0TeicSCTyAoC54XD4KR2f39wltQbARqXUmak+XyQSeQzAynA4/FDKw7kEaylKmIiMBHAvgNMBbANwF4CHAVwCQAYMGLAfQL6GuZoLNlEYL7iAEcTegBFo5iul9mRsSHKjUgCr3RJsvKaJ3U+3K6WWax3M304Fd0k1i+GG4tZUqLHCgYiUANheVFSU0I0yHZrtNgB3W7/F4QGnDsb289cBzFNKfZnp+cidzNWGIQDu1zuJ9zDUaMWD+1rAcEMtainUmB/THsBIADNCodBFmaw7GwUbywYAr8I4mfgdpVR1xgYiLykFD+5LCEONXmYlNQHGwX3rdM/jVgw31KR4Qo3NxQByYXyTSORi3lRntIJNPYzVmdcAvKaU+iJTM5CnlcCopHxxnkw6MdS4BiupODDc0BESDDWWEgA7Afwr7QOaRGQKgF4wgtXbXJ2hRLCSig9DjeuwkopDqOUPoaAQkZEishDAmwD6wQg1/ZRSdzYXbGyV1ItKqbrMTAsopWYopaYqpV5isKEk8F5SzRCRIhH5PYAVAK4F8DKAwUqpUgYbrS4BK6kWceWGkl2psfsODlVSRF7BSioG20rNj2B8XXOlxiVE5DQAfQH8QfcsbsdwE2AOhBpLxispolSYldQpYCV1EEONJ7CSihPDTQA5GGqsSup8AH/PZCVFlCJWUiaGGk9hJRUnhpsAcTLU2LCSIi8KfCXFUOMtrKQSw3ATAGkKNRarkvLsPUkoWIJeSTHUeBYrqQQw3PiYiAyHEWrOhvOhhpUUeVUgKymGGs9jJZUAhhsfSneosWElRV5UAmBNUCophhrvYyWVOIYbH8lgqLGwkiJPCVIl1USouYP3VvMkVlIJYrjxAQ2hxn5w39OspMhDfF9JichRAH4Bhho/uQTAAlZS8WO48TAz1NwD4BwA25GBUGPzHQB58PE3CfIl31ZSMULNPADTlFJLtA5GKbFVUo/onsVLGG48qIlQ81ul1O4MjsFKijzFr5VUE6HmNj8GuICyKqnZugfxEoYbD3FJqGElRV7lq0qKoSYwWEklgeHGA9wSamxYSZEX+aKSYqgJDhE5FaykksJw42IuDDUWVlLkKbZKKqJ3kuQx1AQSK6kkMdy4kItDDSsp8irPVlIMNYF2KVhJJYXhxkVEZBSAOwAMg7GlOwzgj0qpaq2DHW48jErqBd2DECVgAoBVSqlPdQ8Sr08++aSbiPwJwNUwXqufB3APt3QHg4icAqOSmq57Fi9iuHGB2bNnf3vz5s29ALwOl63UxFAKo5J6R/cgRPEwVz5OhUcqKRE56pRTTun5ySefPAfjNZorNcFUCqOSelH3IF7EcKORvX7Kz88/AHeHGlZS5FWXwQOVlL1++uSTT1q1adOmvLq6+lqGmsBiJZWCkO4BgkhEhovIuwA+APCtrl27PvbLX/6yUil1p1uDjYm7pMiLrF1SrqykROQoEfk9gJUArgXw1tSpU/87bdq0mxlsgsm2S4qvtUliuMkgM9S8AzPUwFip6ffzn//8sfz8/Kje6eLCXVLkKeZqyCkwrldxlVihBsAQpdRFRUVF+/VOR5pxl1SKGG4yoFGoOQFmqPHASs1BtkpqNisp8pCJcFkl1Vyo4UoNmXhwX4p4zU0amdfU3A3gXLj/QuGWWLukXPNNgigOrqmkuKWb4mFWUv3AXVIpYbhJA5+FGgsrKfIUt+ySYqihBLGScgDDjYN8GmqsSup8ADNZSZGHaK2kGGooSaykHMBw4wC/hhobVlLkRVoqqSZCze1uqMbI3VhJOYfhJgUBCDUWq5LiwX3kCToqKYYacgArKYcw3CQhQKGGlRR5VcYqKYYactAlABaykkodw00CghRqbFhJkRelvZJiqCEn2SqpP+qexQ8YbuIQ0FBjYSVFnpLuSoqhhtLEqqR4LykHMNw0I+ChhpUUeVVaKikR6Q3gl2CoofRgJeUghpsYgh5qbFhJkRc5WkmJSDcAPwdwA4yvh1fBUEMOYiXlPIYbG4aaI7CSIk9xspJiqKEMYiXlMIYbMNTEIiLtYNxL6hlWUuQhKVdSDDWkASsphwU63Jih5i4A5wHYAYYau4sBtAIrKfKWpCspW6i5Hsa/fYYaSjsROQWspBwXyHDTRKj5nVJql9bB3IWVFHnKBx980ANGJfVAIo9jqCHNeHBfGgQq3DDUxIeVFHnRwoULL0QClRRDDbnEpTAqqUrdg/hJIMINQ03CWEmR5+zevXs0jErqP819nIh0BXAjGGpIM1ZS6ePrcMNQk7QSALvASoo8YufOnVn19fXfQjOVFEMNuRArqTTxZbhhqEkeKynyosWLF+ejiUqqiVBzR0srPEQZwEoqTXwVbhhqHMFKijzn888/b5WVlbW+oaHhYGBhqCE3YyWVXr4INww1jmIlRZ5iHtyX26FDh9fM3zPUkBewkkojT4cbhhpnsZIijyoFgC5duiwSkQgYasgbWEmlkUQikbG6h0hUeXn5pYsXL75s/fr1+VlZWXuLiope+u53v/ty165da3TPlqS+SqmwiPxI5xDPPvvsuUuWLLnpjDPOuHP8+PGLkn2eDRs2PK2Uap+dnb2oR48edzo4ohbRaDRPRF4UkXG6Z3GKUmpOVlbWldFodI/uWVJ1zz33PLhv375BItKglMrq0KFDxYgRI54dNmzYV7pnS5ZSarqI/BHAl7pncYJS6n6l1JxQKPRv3bM4QSl1i4h8DOCtZB7//vvv9583b97v+vfv/38/+MEP/unweAlTSl0rIlUA5uieJVnRaHTXLbfcUi4iOQCuzFZK3ax7qHh9/vnn7d95550+Gzdu/P/t3X10VdWZBvDnvclNSDB+FEIQQqx8iN+IFdRFy8IgZbR8jJBk2RlxdGZWK2pGZ9DkjrUKVlzHqqgja6Z22s6wrNMxYv0sdVX8KEW7BFREHZUQgmMjHUeGDsgkQHLf+ePc0x7SJOTenHv32ec8v39cArl5WWHdPNnP2XsfV1ZWpjNmzNhVW1vbUV5eXgPgelU1PWJOROQYACeY/lrs27fvjNLS0u5LLrlktqrW5vo6iUSivKenB0VFReNN/52CICIJAIjC38WnqKenpxHAYdOD5GrPnj2l69evH3fgwIExIoJJkybtnz179s6ampoeAA22vh9kVAL4c1W1Pnxm1IjIIlWdZXqQgEwGMFJVz83lgz/77LOTAWDhwoVnqeopgU6Wm0mZOSaZHiRX3d3dH4jIqQC+BeBkseENQERqASwH8BUA/zNu3Lhnrr766jNXrFgxzexkwXAcZyqAllQqZewflogcB+C/APxEVa8eyms1Njb+VlWrAKxbvXq1dSuDvd17773Du7u7P0+lUgm4Hbn1HMfpSiaT1cuWLfvM9CzZEpGxAFIA/hpu/YSrrrpqz2mnnTajqanpQ6PDBcRxnG0ick1zc/NrpmcJguM4L4vIqubm5mdNzxIEx3HWAngulUr9ay4fLyJtAD5V1QsDHSxHjuM8DGB7KpW6z/Qs2cqs1FyJTKgB8AGAOxNGpzoKEakVkQ0AXgRwBoBvAzj52muvfbSsrKzH7HSRMx/uJYHcJUWhJCJjReQfAOwAcC2A5wB0ANg5efLkg0aHIxokEfkSgPHge+2QiEhSRP4KwIcAfgDgIIArAJypqo+GMtyIyJdF5EW4oWYK3IO5JqjqnRFapg2bBri7pHLqkInyRURGZR4UbgVwPdx/o9Pg7ogaA6DF4HhE2WqAuwL8hOlBbJQJNVcCeA9uqFEA3wRwlqo+qqo9ABCqcJMJNesB/Ap/uADvJFVNcQdU/mR2Sc0B8CR3SVFY+ELNLgBNcH/YOU9V52d2QDUgi7ukiEJiMYDXuUsqO71CzRoARXBDzWRV/b6qdvv/fCi2gme2dC8HMBvAfrihxmGgKZiF4MF9FBJZnFNTD6AdAK9PICv4Du77R9Oz2CLzTM3XAdwK94Hndrih5ke9A42f0ZWbXis10+GGmhqu1BScd3Dfi6YHofgaxEqN/8+Og/ue8ZjasCuCyOUd3MdK6ij6WKkphhtqTulrpaY3Iys3XKkJD18l9RNWUmRCjicKs5IiG7GSOopcV2p6K2i4YagJJVZSZMQQr0lgJUVWYSU1sKBCjacg4UZELoIbamYC2AvgNgAPcudTKNTB/ZqwkqKCEJExAJoBfAPu8QM/BXCHqm4b5MfXwK2kvstKiixSB1ZSfyQTapbAPadmPNyt3Uvgtgk5H/mS13DDUBNumUpqLlhJUQEMNdT41MGtpNYGOyFRXtUB2MRKypWvUOPJS7hh/WSNhXC/yfCcEMqbPNzS3QB3yfqNYCYkyq/MwX2spBB8/dSfQMMNQ411uEuK8iYPoca/S4qVFNkk9rukChVqPIGEG4Ya+4hIBbhLivKgn1CzXFWDWGnhLimyUR1iuksqc/HwYgArUYBQ4xlSuGGosdqfgrukKEB5DjUeb5dUzqs/RIUU10rKVKjx5BRuGGoigZUUBaJAoYaVFNkqVpWU6VDjySrcMNREAyspCkKhQo0PKymyUSwqqbCEGs+gwg1DTeSwkqKcGQg1HlZSZJU4VFJhCzWeAcNNJtTcDuBiMNRECSspyprBUMNKimwV2UrKF2ruBHAKQhJqPH2Gm35Czd2qureAs1EesJKibJkMNT71YCVF9oncXVJhDzWeI8INQ00s8C4pGpSQhBoPKymySqaSmgjgn0zPEgRbQo2nGPh9qGkGMA8MNVHHSooGJCKVAJYhHKHGq6TOByspskskKinbQo2nWEReBjAL7je85QAeUNX/NTkU5UfmLqmvAniMlRT1JiIn4g93Pw0D8BSAFar6ttHBeJcU2cnqu6REpBjAFXBPFJ4AoBXAXwB4NIi7n/KtGMCXwJWauFgA95sW75Ki3wvbSk0feJcUWcXmXVK2rtT0lgAwTlVTDDaxUAd3hW696UHIvCeffLJKRB4A8BGAJgDPA5iqqvPDEmx8ldTjrKTIInWwrJLq7u5OiMhVALbD/QFY4K7UTFLV79sUbACgmBVUPGR2Sc0F8O+spOJNRCpnzpxZ/Oqrr24GUAY37KbCEmh68XZJcbWRbGJNJSUiiUsvvXT8K6+8chmASli6UtNbwvQAVDDcJRVzIlIpIg6AXRs2bCgqLi7eBOA8VZ0T0mADcJcUWca3SyrU77UikhCRegDvr1u37mJVLYIbak6xcaWmN4ab+PB2SbGSihl/qIH7wPBr11133SHHcepCHGr8lVQLKymyiLdLKpQPwPtDDdwV0ZJZs2b96pZbbnGiEGo8DDcxkKmkvgrgKVZS8dFXqAEwTVXnVFdX2xAWeHAf2WgxQlhJ9RVq4K7UTJo7d+77xcXFaaMDBozhJh5YScXIQKFGVbcYHS47rKTIKmGspAYKNVFaqemN4SYeWEnFQIRCDSspslVoKqm4hhrPoG4FJ3v5Kinukooo3zk1jQDK4YbYv7ct0PTCSopsZLyS6uOcml2IwO6nbDHcRB8rqYiKaKjxsJIiq4jIuXArqe8Z+vwMNT6spaKPlVTERKl+6ouIVIMH95F9jNwlFff6qT9cuYkwVlLREvGVGr8GsJIi+3gH9+0qxCfjSs3AGG6ijZVUBMQo1Hi8Siq0Z/AQ+RWykmKoGRzWUtHGSspiUa+f+sJKiiyV90rKVz/9B1g/HRVXbiKKlZS9YrhS48dKimyUt0rKt1LzHQCTwZWaQWG4iS5WUpaJeajxsJIiq+SrkmKoGRrWUtHFSsoScayf+sJKiiwVaCXVR/1UCtZPWePKTQSxkrIDV2r+CA/uIxsFUklxpSZYDDfRtACspEKrn1Bzi6puNjqYeaykyCpBVFIMNfnBWiqaWEmFUD/10/RM/RTrYJOppC4AKymyS86VFOun/OLKTcRkKqm5AB5jJRUOXKkZFFZSZKOsKymu1BQGw030sJIKCYaarLCSIqts3rz5JGRRSTHUFBZrqejxKqkXTA8SVyIykvXT4LGSIhtt3bp1GgZRSbF+MoMrNxHCSsosERkJ4CZwpSZbrKTIOp988sk0AJv7q6T6WKn5CFypKRiGm2hhJWVAJtRcD+BvARwLhpps1cNd5WIlRVbYsWPH8V1dXaMA3NP79xhqwoHhJlpYSRUQQ83Q+Sqpe1hJkS22bt1aDbeSWuv9GkNNuPCZm4jwHdz3NCup/Mo8U7McQBuA2wFsAp+pyRUrKbJOa2vr2IqKinZV3dXHMzXD4IaaiXymxhyGm+hYAKAM/CaRNxUVFQw1wWMlRVYRkXP37dt3zLhx47Yw1ISXrFy58hzTQ2SrqKjofFW9Lp1OX2l6loCcKiLfVdUFub7AXXfdtaqzs/O8G2644eKRI0caXbnZvXv3elUdkUgkNo4ePbrR5CxB+OCDD8bs2rXrZxs3buxS1dLhw4dvOPvssx+eN2/e+6Zny1UikXgdwNx0Ov07UzNs2rSp6umnn/75CSec8MhNN910/1BeS0R+AeAb+biV2YREItGiqitV9W3TswRBRP5ZVX8M4JemZxmqVatWNe7Zs+cvk8lk5+HDh8uKiop+M3bs2B8sWbLkZ+Xl5VYGmkQicauIfNTT0/OI6VlylUwmD9x8882t3v8Xi8jagT4gjFS1DMAIG2fvi4iUAqiCr7/NRldXV+LgwYNfPOOMMz6vrKz8t2Cny56IHK+qSCaT59r8Ndq/f3/RSy+9dPybb755XHd3NyZOnNgze/bsjpqammq4vbrNkiLyIxFJmxqgq6vrOABSX19fKyIzhvJaInICgAcBHA5kOPPGichKAF2mBwmCiIwRkZSqWvvDjqpiy5YtFZ2dnSMAYPjw4SUzZ878dPr06YcSicQSAEsMj5gzVa1U1cMistD0LLnq6enZCvdQRQCA2PgMn+M4FwO4M5VKXWB6liA4jjMVQEsqlZqUy8eLyJ8BeBTAfFV9LtDhctDY2PhbVa0CsG716tVfMz1PtkRkFIAmANcAKC8qKvr50qVLL33ooYcScB8itJ7jOF3JZLJ62bJln5maQUReBTAGwPihPkzsOE5HIpGobWpq+jCY6cxyHGebiFzT3Nz8mulZguA4zssisqq5uflZ07NkS0SKAHwdwK1wHxTGlClTdixatMi57bbbfmh0uIA4jvMwgO2pVOo+07MEhc/cRAN3SQVAREaJyD0AdgL4OwAvAZjmOE7D2LFjzQ4XMZldUhcCWMtdUhRGIlIkIlcAeA/AIwCSAN4CoBdddFFrSUlJj9EBaUAMN5bzHdz3tKoeND2PjXy7n1rhHsL3awDnq+oCVeWDrvnh7ZJqMT0IkZ9v99O7cEPNMAA3AjgdQAWAzVVVVf9ncEQaBIYb+3GXVI64pdsob5fUFsNzEAE4ItS8Bzd0l8ENNZNV9UG44WYi+F5rBYYb+3mV1HrTg9iCocYs3iVFYXK0UONbEa/P/PenBsakLDHcWKzXwX2spI6in1BzPkNNwfHgPjIui1DjqQewSVV3FnhUygGvX7AbK6lB6OeahG+p6iajg8UXKykyxndNwh0AToV7TcKNAL7X3w+JIjIVbiV1c6HmpKFhuLEbK6kBMNSEj6+SupeVFBVSLqHGh5WUZRhuLOWrpFpYSR2JoSbU6sBKigpoiKHGUwdWUlZhuLHXfLCSOgJDjRVYSVFBBBRqvEpqElhJWYXhxl6spDIYauzgO7iPlRTlTVChxoeVlIUYbizkO7jv8ThXUgw11mElRXmTh1DjYSVlIYYbO8W6kmKosRYrKQpcHkMNKymLMdzYKZZ3STHU2IuVFAUtn6HGh5WUpRhuLBPHSoqhJhJYSVEg+gg1/4ngQ42nDsBmVlL2YbixT2wqKYaaSGElRUNS4FDjr6Sagn5tyj+GG/tEvpJiqIkW38F997GSomwVOtT4eJXUE3n8HJQnDDcWiXolxVATWXVw77GL/GojBccXalYAOA2FCzUeVlIWY7ixSyQrKYaayKsH8DFYSdEghCDUsJKKAIYbu0Sqkuon1Nyqqq8bHYwCw0qKBisMocaHlZTlGG4sISLHICKVlIiMANAIhpo4YCVFA8qEmq8B+A6AKTAbajyLwErKagw39lgAyyspX6i5EcBxYKiJA1ZS1CdfqLkDwDkIR6iBiJwDYDJYSVmN4cYe9QD2wcK7pBhq4klExsKtpFaxkiJPWEONDw/uiwCGGwv0qqS6TM8zWJ9//nmJiCwHQ01c1YOVFGWk02kRkfkIb6jxLIZbSbWZHoRyx3BjB6sqqc7OzsS2bdvw1ltvzQJwMRhq4sqrpDabHoTMEZFEQ0PDiGefffZ+AOMR3lDDSipCGG7sYEUl5dVPJSUlIw8dOoRRo0b97tNPP53HUBM/rKTIXz+1tLSclUwm/xshDTU+IpDgawAABHBJREFUrKQiImF6ABqYr5J6KqyVlIiMyNRPbQBur6ysPFxXV4f6+vpNDDaxxUoqpkQkkamf3gDwDIAv1NbW7mhqalqqqg+GONgArKQig+Em/EJ7cF/vUAO3frjgsssu21tVVWV0NjKOlVTM9BVq4K7UTJ4zZ85vKioqDhkd8Ch8lVTo3mspeww34Re6Sqq/UKOqc7hSQ75K6jFWUtE3UKjJrNSEcsW5D6ykIoTP3IRYppL6E4RklxS3dNMg8eC+GBhgS/fDYXi/yoF3cB8rqQhguAm3UFRSDDWUJVZSERbBUONVUqeCu6Qig+Em3IxWUgw1lK1MJXUhuEsqcqIYanxYSUUMw01I+SqptYV+4+gj1LwK95buXxZyDrISK6mIiXio8bCSihiGm/AqeCXFUEMBYCUVETEJNaykIorhJry8SuqFfH8ihhoKAiupaIhLqPFhJRVBDDchVKhKiqGGAsZKymK+ULMCwFS4K3BRDjWeRQC2sJKKFoabcMprJdVPqLlVVV/Jx+ej2GAlZaEYhxp/JdVsehYKFsNNOOWlkmKooXwRkRPBSsoqcQ41Pl4l9YTRKShwDDchk49KiqGGCqABrKSswFBzBFZSEcVwEz6BVVIMNVRArKRCjqHmSKykoo3hJnyGXEkx1FAhsZIKN4aafrGSijCGmxAZaiXFUEOGsJIKIRERAPPAUNMfVlIRxnATLjlVUgw1ZBgrqRBhqDk6EZkCVlKRxnATLllVUgw1ZJqvkrqflZRZDDVZYSUVcQw3IXHw4MEEBllJicgXAPwNGGrIPFZShjHU5GQxWElFGsNNSLz77rvDcZRKyhdqbgBwPBhqyDyvktpkepC4YajJDSupeGC4CYl33nnnGAD70UclxVBDYcRKygyGmiFjJRUDDDch0NHRUd7W1lYO4Mf+N6d+Qs23VfVlM5MSHYGVVAEx1ASGlVQMMNyEwPPPP/+V7u5uQeabBEMNWYKVVAEw1ASHlVR8JEwPQMDu3bvnlJSUpAG8ISLLAbQBuB3AewBqVfXLDDYUJr5KqoWVVH6k02kRkfkAtgB4BsBIuKHmFFV9kMEmJ6ykYkJaWlqKTA+Rrfb29vJ0Oj1iwoQJH5ueZahSqdQxO3fu3C0iXapaDKBCRF4YNmzYHWvWrPm16flysXHjxvHpdLoonU4fmDVr1iem5xmqvXv3Jvbs2TNh4sSJraZnCUp7e/vEzs7O9tNPP70nl4+//PLLr0+n0w+UlZXNWLNmzetBz5ettra2k0tLSzuqq6sPmZ5lqNavX59Yt27dNzs6Opaq6ukAPk4kEndPnTr1X5qbmw+ani8X27dvrz722GP3jh49+oDJORoaGt4DcKClpWX6UF6nvb39xHQ6fWDChAn7AhrNqNbW1lGlpaWHa2pq9pqeJVePP/44Wlpafv9+Jvyhy5xM/XQngKWZX/oFgBWq+pq5qYiOTkQ2ADgJwBe5chOMzDUJiwHcBuBMuPWTA+CHqmplqAkTETkbwNsAUqp6t+l5KL/+H3nb9d5JRwJsAAAAAElFTkSuQmCC;" vertex="1" parent="1">
          <mxGeometry x="53" y="980" width="567" height="453" as="geometry" />
        </mxCell>
        <mxCell id="QVBjA24aKZEz9xPjlTkT-37" value="\(\hat j\)" style="text;html=1;strokeColor=none;fillColor=none;align=center;verticalAlign=middle;whiteSpace=wrap;rounded=0;fontSize=25;" vertex="1" parent="1">
          <mxGeometry x="155" y="1213" width="60" height="30" as="geometry" />
        </mxCell>
        <mxCell id="QVBjA24aKZEz9xPjlTkT-38" value="\(\hat i\)" style="text;html=1;strokeColor=none;fillColor=none;align=center;verticalAlign=middle;whiteSpace=wrap;rounded=0;fontSize=25;" vertex="1" parent="1">
          <mxGeometry x="215" y="1283" width="60" height="30" as="geometry" />
        </mxCell>
        <mxCell id="QVBjA24aKZEz9xPjlTkT-39" value="\(\hat a\)" style="text;html=1;strokeColor=none;fillColor=none;align=center;verticalAlign=middle;whiteSpace=wrap;rounded=0;fontSize=29;" vertex="1" parent="1">
          <mxGeometry x="392" y="1174" width="60" height="30" as="geometry" />
        </mxCell>
        <mxCell id="QVBjA24aKZEz9xPjlTkT-40" value="\(\hat b\)" style="text;html=1;strokeColor=none;fillColor=none;align=center;verticalAlign=middle;whiteSpace=wrap;rounded=0;fontSize=29;" vertex="1" parent="1">
          <mxGeometry x="211" y="1089" width="60" height="30" as="geometry" />
        </mxCell>
        <mxCell id="QVBjA24aKZEz9xPjlTkT-57" value="" style="endArrow=none;dashed=1;html=1;rounded=0;fontSize=12;strokeWidth=3;entryX=0.723;entryY=0.424;entryDx=0;entryDy=0;entryPerimeter=0;" edge="1" parent="1">
          <mxGeometry width="50" height="50" relative="1" as="geometry">
            <mxPoint x="860" y="1016" as="sourcePoint" />
            <mxPoint x="1120" y="1016" as="targetPoint" />
          </mxGeometry>
        </mxCell>
        <mxCell id="QVBjA24aKZEz9xPjlTkT-58" value="" style="endArrow=none;dashed=1;html=1;rounded=0;fontSize=12;strokeWidth=3;entryX=0.635;entryY=0.088;entryDx=0;entryDy=0;entryPerimeter=0;" edge="1" parent="1">
          <mxGeometry width="50" height="50" relative="1" as="geometry">
            <mxPoint x="1119" y="1278" as="sourcePoint" />
            <mxPoint x="1121" y="1018" as="targetPoint" />
          </mxGeometry>
        </mxCell>
        <mxCell id="QVBjA24aKZEz9xPjlTkT-60" value="" style="rounded=0;whiteSpace=wrap;html=1;fillColor=#85858555;strokeColor=none;" vertex="1" parent="1">
          <mxGeometry x="860" y="1016" width="52" height="103" as="geometry" />
        </mxCell>
        <mxCell id="QVBjA24aKZEz9xPjlTkT-61" value="" style="rounded=0;whiteSpace=wrap;html=1;fillColor=#85858555;strokeColor=none;" vertex="1" parent="1">
          <mxGeometry x="1068" y="1172" width="52" height="103" as="geometry" />
        </mxCell>
        <mxCell id="QVBjA24aKZEz9xPjlTkT-62" value="\(a_1\)" style="text;html=1;strokeColor=none;fillColor=none;align=center;verticalAlign=middle;whiteSpace=wrap;rounded=0;fontSize=25;" vertex="1" parent="1">
          <mxGeometry x="1043" y="1276" width="60" height="30" as="geometry" />
        </mxCell>
        <mxCell id="QVBjA24aKZEz9xPjlTkT-63" value="\(b_1\)" style="text;html=1;strokeColor=none;fillColor=none;align=center;verticalAlign=middle;whiteSpace=wrap;rounded=0;fontSize=25;" vertex="1" parent="1">
          <mxGeometry x="889" y="1274" width="60" height="30" as="geometry" />
        </mxCell>
        <mxCell id="QVBjA24aKZEz9xPjlTkT-64" value="\(a_2\)" style="text;html=1;strokeColor=none;fillColor=none;align=center;verticalAlign=middle;whiteSpace=wrap;rounded=0;fontSize=25;" vertex="1" parent="1">
          <mxGeometry x="814" y="1153" width="60" height="30" as="geometry" />
        </mxCell>
        <mxCell id="QVBjA24aKZEz9xPjlTkT-65" value="\(b_2\)" style="text;html=1;strokeColor=none;fillColor=none;align=center;verticalAlign=middle;whiteSpace=wrap;rounded=0;fontSize=25;" vertex="1" parent="1">
          <mxGeometry x="813" y="1103" width="60" height="30" as="geometry" />
        </mxCell>
        <mxCell id="QVBjA24aKZEz9xPjlTkT-66" value="\(a_2+b_2\)" style="text;html=1;strokeColor=none;fillColor=none;align=center;verticalAlign=middle;whiteSpace=wrap;rounded=0;fontSize=25;" vertex="1" parent="1">
          <mxGeometry x="780" y="984" width="60" height="30" as="geometry" />
        </mxCell>
        <mxCell id="QVBjA24aKZEz9xPjlTkT-67" value="\(a_1+b_1\)" style="text;html=1;strokeColor=none;fillColor=none;align=center;verticalAlign=middle;whiteSpace=wrap;rounded=0;fontSize=25;" vertex="1" parent="1">
          <mxGeometry x="1138" y="1277" width="60" height="30" as="geometry" />
        </mxCell>
        <mxCell id="QVBjA24aKZEz9xPjlTkT-69" value="\(a_2b_1\)" style="text;html=1;strokeColor=none;fillColor=none;align=center;verticalAlign=middle;whiteSpace=wrap;rounded=0;fontSize=25;rotation=90;" vertex="1" parent="1">
          <mxGeometry x="1068" y="1207.5" width="60" height="30" as="geometry" />
        </mxCell>
        <mxCell id="QVBjA24aKZEz9xPjlTkT-70" value="\(a_2b_1\)" style="text;html=1;strokeColor=none;fillColor=none;align=center;verticalAlign=middle;whiteSpace=wrap;rounded=0;fontSize=25;rotation=90;" vertex="1" parent="1">
          <mxGeometry x="861" y="1052.5" width="60" height="30" as="geometry" />
        </mxCell>
        <mxCell id="QVBjA24aKZEz9xPjlTkT-71" value="\(a_1a_2 \over 2\)" style="text;html=1;strokeColor=none;fillColor=none;align=center;verticalAlign=middle;whiteSpace=wrap;rounded=0;fontSize=31;" vertex="1" parent="1">
          <mxGeometry x="966" y="1230" width="94" height="34" as="geometry" />
        </mxCell>
        <mxCell id="QVBjA24aKZEz9xPjlTkT-72" value="\(a_1a_2 \over 2\)" style="text;html=1;strokeColor=none;fillColor=none;align=center;verticalAlign=middle;whiteSpace=wrap;rounded=0;fontSize=31;" vertex="1" parent="1">
          <mxGeometry x="926" y="1030" width="94" height="34" as="geometry" />
        </mxCell>
        <mxCell id="QVBjA24aKZEz9xPjlTkT-73" value="\(b_1b_2 \over 2\)" style="text;html=1;strokeColor=none;fillColor=none;align=center;verticalAlign=middle;whiteSpace=wrap;rounded=0;fontSize=25;rotation=90;" vertex="1" parent="1">
          <mxGeometry x="835" y="1130" width="94" height="34" as="geometry" />
        </mxCell>
        <mxCell id="QVBjA24aKZEz9xPjlTkT-74" value="\(b_1b_2 \over 2\)" style="text;html=1;strokeColor=none;fillColor=none;align=center;verticalAlign=middle;whiteSpace=wrap;rounded=0;fontSize=25;rotation=90;" vertex="1" parent="1">
          <mxGeometry x="1052" y="1121" width="94" height="34" as="geometry" />
        </mxCell>
      </root>
    </mxGraphModel>
  </diagram>
</mxfile>
